  0
SECTION
  2
HEADER
  9
$ACADVER
  1
AC1006
  9
$EXTMIN
 10
0.000000
 20
0.000000
 30
0.000000
  9
$EXTMAX
 10
120.000000
 20
120.000000
 30
0.000000
  0
ENDSEC
  0
SECTION
  2
ENTITIES
  0
POLYLINE
  8
0
 66
1
 70
1
  0
VERTEX
  8
0
 10
48.799176
 20
117.893292
 42
0.046184
  0
VERTEX
  8
0
 10
38.958909
 20
115.672950
 42
0.039911
  0
VERTEX
  8
0
 10
29.176388
 20
111.605941
 42
0.040699
  0
VERTEX
  8
0
 10
20.379204
 20
106.149970
 42
0.054529
  0
VERTEX
  8
0
 10
13.486694
 20
99.787388
 42
0.076235
  0
VERTEX
  8
0
 10
6.423995
 20
88.627403
 42
0.059735
  0
VERTEX
  8
0
 10
2.284138
 20
74.891338
 42
0.058857
  0
VERTEX
  8
0
 10
1.471280
 20
60.345066
 42
0.068778
  0
VERTEX
  8
0
 10
4.204880
 20
46.796800
 42
0.076628
  0
VERTEX
  8
0
 10
4.869812
 20
45.548350
 42
0.667908
  0
VERTEX
  8
0
 10
5.298863
 20
45.657573
 42
0.034124
  0
VERTEX
  8
0
 10
5.476959
 20
48.009530
 42
0.001680
  0
VERTEX
  8
0
 10
5.508079
 20
55.796800
 42
-0.015826
  0
VERTEX
  8
0
 10
5.807329
 20
65.062443
 42
-0.040439
  0
VERTEX
  8
0
 10
6.775605
 20
71.704094
 42
-0.043507
  0
VERTEX
  8
0
 10
8.751150
 20
77.817445
 42
-0.020935
  0
VERTEX
  8
0
 10
12.272599
 20
85.270725
 42
-0.053191
  0
VERTEX
  8
0
 10
16.267596
 20
91.243468
 42
-0.032052
  0
VERTEX
  8
0
 10
22.142905
 20
97.426395
 42
-0.031343
  0
VERTEX
  8
0
 10
28.998082
 20
103.017195
 42
-0.039976
  0
VERTEX
  8
0
 10
35.983978
 20
107.219778
 42
-0.011897
  0
VERTEX
  8
0
 10
38.906624
 20
108.588137
 42
-0.018427
  0
VERTEX
  8
0
 10
41.496731
 20
109.614372
 42
-0.013162
  0
VERTEX
  8
0
 10
43.627940
 20
110.306621
 42
-0.274913
  0
VERTEX
  8
0
 10
44.251931
 20
110.148069
 42
-0.106977
  0
VERTEX
  8
0
 10
44.601219
 20
109.605828
 42
-0.015667
  0
VERTEX
  8
0
 10
45.024854
 20
108.360012
 42
-0.017102
  0
VERTEX
  8
0
 10
45.434878
 20
106.832522
 42
-0.013929
  0
VERTEX
  8
0
 10
45.771709
 20
105.172517
 42
0.000000
  0
VERTEX
  8
0
 10
46.500000
 20
100.988452
 42
0.000000
  0
VERTEX
  8
0
 10
51.408237
 20
104.481581
 42
-0.034004
  0
VERTEX
  8
0
 10
56.261280
 20
107.460652
 42
-0.028505
  0
VERTEX
  8
0
 10
61.763316
 20
109.954561
 42
-0.026809
  0
VERTEX
  8
0
 10
67.861162
 20
111.941332
 42
-0.022531
  0
VERTEX
  8
0
 10
74.500000
 20
113.400194
 42
0.000000
  0
VERTEX
  8
0
 10
81.500000
 20
114.610831
 42
0.000000
  0
VERTEX
  8
0
 10
74.500000
 20
116.247593
 42
0.018737
  0
VERTEX
  8
0
 10
67.682199
 20
117.574540
 42
0.022707
  0
VERTEX
  8
0
 10
61.207466
 20
118.285395
 42
0.023733
  0
VERTEX
  8
0
 10
54.953673
 20
118.388524
 42
0.024668
  0
SEQEND
  0
POLYLINE
  8
0
 66
1
 70
1
  0
VERTEX
  8
0
 10
67.812901
 20
110.530239
 42
0.025383
  0
VERTEX
  8
0
 10
63.011755
 20
108.941782
 42
0.024111
  0
VERTEX
  8
0
 10
58.311010
 20
106.851110
 42
0.024265
  0
VERTEX
  8
0
 10
53.864009
 20
104.333103
 42
0.026608
  0
VERTEX
  8
0
 10
49.822120
 20
101.466205
 42
0.000000
  0
VERTEX
  8
0
 10
45.500000
 20
98.040998
 42
0.000000
  0
VERTEX
  8
0
 10
44.760218
 20
102.270499
 42
0.015702
  0
VERTEX
  8
0
 10
43.792502
 20
106.935038
 42
0.256829
  0
VERTEX
  8
0
 10
42.754711
 20
108.074455
 42
0.195539
  0
VERTEX
  8
0
 10
41.053541
 20
107.977459
 42
0.009021
  0
VERTEX
  8
0
 10
35.758705
 20
105.346199
 42
0.053176
  0
VERTEX
  8
0
 10
26.040910
 20
98.902760
 42
0.053182
  0
VERTEX
  8
0
 10
17.901071
 20
90.554887
 42
0.053632
  0
VERTEX
  8
0
 10
11.762363
 20
80.749463
 42
0.055967
  0
VERTEX
  8
0
 10
7.955329
 20
70.000000
 42
0.038088
  0
VERTEX
  8
0
 10
7.006141
 20
63.820888
 42
0.018854
  0
VERTEX
  8
0
 10
6.699892
 20
55.886537
 42
0.018743
  0
VERTEX
  8
0
 10
6.999244
 20
47.712512
 42
0.029124
  0
VERTEX
  8
0
 10
7.929712
 20
40.721536
 42
0.073032
  0
VERTEX
  8
0
 10
11.060122
 20
31.768295
 42
0.049898
  0
VERTEX
  8
0
 10
16.991972
 20
22.751238
 42
0.051420
  0
VERTEX
  8
0
 10
24.099638
 20
15.628448
 42
0.130721
  0
VERTEX
  8
0
 10
30.704394
 20
12.649249
 42
0.041253
  0
VERTEX
  8
0
 10
39.350198
 20
11.944661
 42
0.037130
  0
VERTEX
  8
0
 10
48.310750
 20
12.621293
 42
0.038457
  0
VERTEX
  8
0
 10
56.693013
 20
14.552770
 42
0.056747
  0
VERTEX
  8
0
 10
63.590443
 20
17.605871
 42
0.000000
  0
VERTEX
  8
0
 10
68.000000
 20
20.190044
 42
0.000000
  0
VERTEX
  8
0
 10
68.000000
 20
14.515567
 42
0.000000
  0
VERTEX
  8
0
 10
68.000000
 20
8.841089
 42
0.000000
  0
VERTEX
  8
0
 10
71.250000
 20
9.539749
 42
0.051765
  0
VERTEX
  8
0
 10
82.815665
 20
13.310818
 42
0.054084
  0
VERTEX
  8
0
 10
93.178039
 20
19.336310
 42
0.055171
  0
VERTEX
  8
0
 10
101.830581
 20
27.316275
 42
0.058251
  0
VERTEX
  8
0
 10
108.348695
 20
36.859893
 42
0.028284
  0
VERTEX
  8
0
 10
111.610525
 20
44.042378
 42
0.035819
  0
VERTEX
  8
0
 10
113.751257
 20
51.008978
 42
0.033660
  0
VERTEX
  8
0
 10
114.962274
 20
58.550346
 42
0.020950
  0
VERTEX
  8
0
 10
115.410445
 20
67.500000
 42
0.006900
  0
VERTEX
  8
0
 10
115.372416
 20
74.220095
 42
0.037727
  0
VERTEX
  8
0
 10
115.028461
 20
77.834489
 42
0.050347
  0
VERTEX
  8
0
 10
114.182006
 20
80.882242
 42
0.018342
  0
VERTEX
  8
0
 10
112.401141
 20
85.000000
 42
0.029927
  0
VERTEX
  8
0
 10
108.885367
 20
91.364149
 42
0.031560
  0
VERTEX
  8
0
 10
104.690876
 20
97.145542
 42
0.031507
  0
VERTEX
  8
0
 10
99.795034
 20
102.361643
 42
0.029616
  0
VERTEX
  8
0
 10
94.184953
 20
107.037781
 42
0.010183
  0
VERTEX
  8
0
 10
89.805086
 20
110.133433
 42
0.066338
  0
VERTEX
  8
0
 10
87.396493
 20
111.334036
 42
0.071963
  0
VERTEX
  8
0
 10
84.836381
 20
111.816475
 42
0.013124
  0
VERTEX
  8
0
 10
80.000000
 20
111.895491
 42
0.014153
  0
VERTEX
  8
0
 10
76.785147
 20
111.772578
 42
0.011261
  0
VERTEX
  8
0
 10
73.326290
 20
111.463789
 42
0.011423
  0
VERTEX
  8
0
 10
70.132437
 20
111.031918
 42
0.027884
  0
SEQEND
  0
POLYLINE
  8
0
 66
1
 70
1
  0
VERTEX
  8
0
 10
46.988956
 20
83.505711
 42
-0.056325
  0
VERTEX
  8
0
 10
49.487004
 20
81.833923
 42
-0.066445
  0
VERTEX
  8
0
 10
51.394898
 20
79.726684
 42
-0.071018
  0
VERTEX
  8
0
 10
52.589944
 20
77.322483
 42
-0.080045
  0
VERTEX
  8
0
 10
53.000000
 20
74.777494
 42
-0.038470
  0
VERTEX
  8
0
 10
52.879661
 20
73.215757
 42
-0.184763
  0
VERTEX
  8
0
 10
52.444726
 20
72.454734
 42
-0.149782
  0
VERTEX
  8
0
 10
51.551879
 20
72.088949
 42
-0.022872
  0
VERTEX
  8
0
 10
49.608408
 20
72.000000
 42
-0.029680
  0
VERTEX
  8
0
 10
47.818711
 20
72.106329
 42
-0.108774
  0
VERTEX
  8
0
 10
46.752745
 20
72.477869
 42
-0.136189
  0
VERTEX
  8
0
 10
46.073727
 20
73.209663
 42
-0.057912
  0
VERTEX
  8
0
 10
45.596601
 20
74.471135
 42
0.092577
  0
VERTEX
  8
0
 10
44.703944
 20
76.414796
 42
0.104452
  0
VERTEX
  8
0
 10
43.199214
 20
77.809550
 42
0.104998
  0
VERTEX
  8
0
 10
41.265757
 20
78.472040
 42
0.094444
  0
VERTEX
  8
0
 10
39.150735
 20
78.329167
 42
0.137681
  0
VERTEX
  8
0
 10
37.650918
 20
77.451566
 42
0.097325
  0
VERTEX
  8
0
 10
36.585847
 20
75.803343
 42
0.078243
  0
VERTEX
  8
0
 10
36.068958
 20
73.529165
 42
0.052031
  0
VERTEX
  8
0
 10
36.167120
 20
70.851713
 42
0.112768
  0
VERTEX
  8
0
 10
36.673645
 20
69.526952
 42
0.172268
  0
VERTEX
  8
0
 10
37.650870
 20
68.799636
 42
0.060638
  0
VERTEX
  8
0
 10
39.633384
 20
68.443984
 42
0.005297
  0
VERTEX
  8
0
 10
44.750000
 20
68.209558
 42
0.000000
  0
VERTEX
  8
0
 10
53.000000
 20
67.919115
 42
0.000000
  0
VERTEX
  8
0
 10
53.000000
 20
60.393816
 42
-0.030690
  0
VERTEX
  8
0
 10
52.590157
 20
53.722951
 42
-0.103715
  0
VERTEX
  8
0
 10
51.185289
 20
49.613572
 42
-0.129798
  0
VERTEX
  8
0
 10
48.454881
 20
46.931117
 42
-0.061043
  0
VERTEX
  8
0
 10
43.857821
 20
45.006712
 42
-0.077419
  0
VERTEX
  8
0
 10
40.024636
 20
44.544563
 42
-0.078000
  0
VERTEX
  8
0
 10
36.242974
 20
45.272752
 42
-0.078506
  0
VERTEX
  8
0
 10
32.886427
 20
47.117812
 42
-0.079963
  0
VERTEX
  8
0
 10
30.286557
 20
49.897883
 42
-0.030715
  0
VERTEX
  8
0
 10
28.256853
 20
53.354740
 42
-0.178419
  0
VERTEX
  8
0
 10
28.015426
 20
55.419702
 42
-0.272762
  0
VERTEX
  8
0
 10
29.175687
 20
56.617929
 42
-0.067333
  0
VERTEX
  8
0
 10
32.000000
 20
57.000000
 42
-0.018269
  0
VERTEX
  8
0
 10
34.060015
 20
56.924705
 42
-0.087670
  0
VERTEX
  8
0
 10
35.194444
 20
56.637500
 42
-0.167991
  0
VERTEX
  8
0
 10
35.782894
 20
56.082973
 42
-0.121136
  0
VERTEX
  8
0
 10
36.000000
 20
55.200000
 42
0.165907
  0
VERTEX
  8
0
 10
36.854027
 20
52.697031
 42
0.163196
  0
VERTEX
  8
0
 10
39.065431
 20
51.217591
 42
0.146435
  0
VERTEX
  8
0
 10
41.920259
 20
51.288185
 42
0.130663
  0
VERTEX
  8
0
 10
44.415347
 20
52.906460
 42
0.065724
  0
VERTEX
  8
0
 10
45.124819
 20
53.933971
 42
0.052939
  0
VERTEX
  8
0
 10
45.607162
 20
55.187711
 42
0.048888
  0
VERTEX
  8
0
 10
45.843017
 20
56.614786
 42
0.040424
  0
VERTEX
  8
0
 10
45.820335
 20
58.156460
 42
0.000000
  0
VERTEX
  8
0
 10
45.500000
 20
61.500000
 42
0.000000
  0
VERTEX
  8
0
 10
36.750000
 20
61.788933
 42
0.000000
  0
VERTEX
  8
0
 10
28.000000
 20
62.077866
 42
0.000000
  0
VERTEX
  8
0
 10
28.000000
 20
69.088593
 42
-0.016571
  0
VERTEX
  8
0
 10
28.100203
 20
72.111177
 42
-0.020068
  0
VERTEX
  8
0
 10
28.401496
 20
74.931940
 42
-0.021706
  0
VERTEX
  8
0
 10
28.859179
 20
77.312451
 42
-0.061051
  0
VERTEX
  8
0
 10
29.448089
 20
78.899616
 42
-0.123684
  0
VERTEX
  8
0
 10
32.413233
 20
82.257484
 42
-0.086343
  0
VERTEX
  8
0
 10
37.028549
 20
84.368877
 42
-0.083139
  0
VERTEX
  8
0
 10
42.259984
 20
84.845722
 42
-0.100903
  0
SEQEND
  0
POLYLINE
  8
0
 66
1
 70
1
  0
VERTEX
  8
0
 10
66.225229
 20
67.750000
 42
0.000000
  0
VERTEX
  8
0
 10
66.500000
 20
51.500000
 42
0.000000
  0
VERTEX
  8
0
 10
69.000000
 20
51.500000
 42
0.098967
  0
VERTEX
  8
0
 10
70.446536
 20
51.789150
 42
0.215260
  0
VERTEX
  8
0
 10
71.203706
 20
52.598398
 42
0.068693
  0
VERTEX
  8
0
 10
71.554018
 20
54.410680
 42
0.004613
  0
VERTEX
  8
0
 10
71.789545
 20
59.694434
 42
0.000000
  0
VERTEX
  8
0
 10
72.079089
 20
67.888869
 42
0.000000
  0
VERTEX
  8
0
 10
76.289545
 20
68.269727
 42
0.000000
  0
VERTEX
  8
0
 10
80.500000
 20
68.650586
 42
0.000000
  0
VERTEX
  8
0
 10
75.750000
 20
68.825293
 42
0.000000
  0
VERTEX
  8
0
 10
71.000000
 20
69.000000
 42
0.000000
  0
VERTEX
  8
0
 10
71.000000
 20
60.500000
 42
-0.004818
  0
VERTEX
  8
0
 10
70.950217
 20
55.333891
 42
-0.053864
  0
VERTEX
  8
0
 10
70.690271
 20
53.296397
 42
-0.176964
  0
VERTEX
  8
0
 10
70.072200
 20
52.362869
 42
-0.160270
  0
VERTEX
  8
0
 10
68.969221
 20
52.000000
 42
-0.208206
  0
VERTEX
  8
0
 10
67.853069
 20
52.485841
 42
-0.153004
  0
VERTEX
  8
0
 10
67.263805
 20
53.718117
 42
-0.038636
  0
VERTEX
  8
0
 10
67.083691
 20
56.478289
 42
-0.002732
  0
VERTEX
  8
0
 10
67.219221
 20
64.206464
 42
-0.002824
  0
VERTEX
  8
0
 10
67.448919
 20
72.222530
 42
-0.044846
  0
VERTEX
  8
0
 10
67.785295
 20
74.922900
 42
-0.154946
  0
VERTEX
  8
0
 10
68.547086
 20
76.250289
 42
-0.125847
  0
VERTEX
  8
0
 10
70.000000
 20
77.028923
 42
-0.081880
  0
VERTEX
  8
0
 10
72.784397
 20
77.247081
 42
-0.047165
  0
VERTEX
  8
0
 10
76.102144
 20
76.645185
 42
-0.046695
  0
VERTEX
  8
0
 10
79.304492
 20
75.413976
 42
-0.071476
  0
VERTEX
  8
0
 10
81.750000
 20
73.729835
 42
-0.071909
  0
VERTEX
  8
0
 10
82.966934
 20
72.229376
 42
-0.084214
  0
VERTEX
  8
0
 10
83.628677
 20
70.522411
 42
-0.043632
  0
VERTEX
  8
0
 10
83.929061
 20
67.912605
 42
-0.006846
  0
VERTEX
  8
0
 10
84.000000
 20
62.732066
 42
-0.005254
  0
VERTEX
  8
0
 10
83.944585
 20
57.458572
 42
-0.046962
  0
VERTEX
  8
0
 10
83.679282
 20
55.159181
 42
-0.128036
  0
VERTEX
  8
0
 10
83.078767
 20
53.957451
 42
-0.150347
  0
VERTEX
  8
0
 10
82.000000
 20
53.289749
 42
0.044280
  0
VERTEX
  8
0
 10
81.234731
 20
53.015355
 42
0.054988
  0
VERTEX
  8
0
 10
80.587500
 20
52.625053
 42
0.065131
  0
VERTEX
  8
0
 10
80.144489
 20
52.184523
 42
0.166033
  0
VERTEX
  8
0
 10
80.000000
 20
51.761397
 42
0.332485
  0
VERTEX
  8
0
 10
80.190099
 20
51.507124
 42
0.125666
  0
VERTEX
  8
0
 10
80.660938
 20
51.489777
 42
0.063584
  0
VERTEX
  8
0
 10
81.386102
 20
51.746451
 42
0.029629
  0
VERTEX
  8
0
 10
82.250000
 20
52.248490
 42
0.122312
  0
VERTEX
  8
0
 10
83.536004
 20
53.652069
 42
0.087089
  0
VERTEX
  8
0
 10
84.219017
 20
55.682104
 42
0.030508
  0
VERTEX
  8
0
 10
84.552880
 20
59.389150
 42
0.002645
  0
VERTEX
  8
0
 10
84.776046
 20
68.870462
 42
0.000000
  0
VERTEX
  8
0
 10
85.052092
 20
84.000000
 42
0.000000
  0
VERTEX
  8
0
 10
89.026046
 20
84.000000
 42
0.000000
  0
VERTEX
  8
0
 10
93.000000
 20
84.000000
 42
0.000000
  0
VERTEX
  8
0
 10
92.996262
 20
69.250000
 42
-0.003851
  0
VERTEX
  8
0
 10
92.928787
 20
60.768155
 42
-0.023963
  0
VERTEX
  8
0
 10
92.652639
 20
56.430195
 42
-0.047246
  0
VERTEX
  8
0
 10
92.061025
 20
53.597755
 42
-0.061873
  0
VERTEX
  8
0
 10
90.974365
 20
51.189824
 42
-0.089977
  0
VERTEX
  8
0
 10
88.238489
 20
48.114052
 42
-0.092847
  0
VERTEX
  8
0
 10
84.624761
 20
46.236455
 42
-0.058107
  0
VERTEX
  8
0
 10
79.248908
 20
45.269669
 42
-0.015465
  0
VERTEX
  8
0
 10
70.532119
 20
45.000000
 42
0.000000
  0
VERTEX
  8
0
 10
59.000000
 20
45.000000
 42
0.000000
  0
VERTEX
  8
0
 10
59.000000
 20
64.500000
 42
0.000000
  0
VERTEX
  8
0
 10
59.000000
 20
84.000000
 42
0.000000
  0
VERTEX
  8
0
 10
62.475229
 20
84.000000
 42
0.000000
  0
VERTEX
  8
0
 10
65.950457
 20
84.000000
 42
0.000000
  0
SEQEND
  0
POLYLINE
  8
0
 66
1
 70
1
  0
VERTEX
  8
0
 10
32.048074
 20
38.000000
 42
0.000000
  0
VERTEX
  8
0
 10
32.126773
 20
35.500000
 42
0.000000
  0
VERTEX
  8
0
 10
33.232003
 20
38.000000
 42
0.000000
  0
VERTEX
  8
0
 10
34.337234
 20
40.500000
 42
0.000000
  0
VERTEX
  8
0
 10
35.036976
 20
37.000000
 42
0.000000
  0
VERTEX
  8
0
 10
35.736718
 20
33.500000
 42
0.000000
  0
VERTEX
  8
0
 10
35.868359
 20
36.809017
 42
-0.027420
  0
VERTEX
  8
0
 10
35.984970
 20
38.038177
 42
-0.055382
  0
VERTEX
  8
0
 10
36.234783
 20
38.977007
 42
-0.099044
  0
VERTEX
  8
0
 10
36.566485
 20
39.496614
 42
-0.353391
  0
VERTEX
  8
0
 10
36.930902
 20
39.542705
 42
0.113635
  0
VERTEX
  8
0
 10
37.336535
 20
39.405000
 42
0.100290
  0
VERTEX
  8
0
 10
37.781676
 20
39.449185
 42
0.093945
  0
VERTEX
  8
0
 10
38.198049
 20
39.669239
 42
0.086135
  0
VERTEX
  8
0
 10
38.519929
 20
40.032246
 42
-0.099518
  0
VERTEX
  8
0
 10
38.900913
 20
40.439602
 42
-0.165203
  0
VERTEX
  8
0
 10
39.346662
 20
40.574081
 42
-0.121997
  0
VERTEX
  8
0
 10
39.883695
 20
40.421262
 42
-0.043201
  0
VERTEX
  8
0
 10
40.545223
 20
39.962468
 42
0.057017
  0
VERTEX
  8
0
 10
41.140593
 20
39.573410
 42
0.060429
  0
VERTEX
  8
0
 10
41.797105
 20
39.338079
 42
0.067674
  0
VERTEX
  8
0
 10
42.413159
 20
39.283517
 42
0.127374
  0
VERTEX
  8
0
 10
42.887097
 20
39.430222
 42
-0.108449
  0
VERTEX
  8
0
 10
43.309405
 20
39.578431
 42
-0.099695
  0
VERTEX
  8
0
 10
43.768808
 20
39.542863
 42
-0.095476
  0
VERTEX
  8
0
 10
44.194595
 20
39.328514
 42
-0.090362
  0
VERTEX
  8
0
 10
44.519929
 20
38.967754
 42
0.090007
  0
VERTEX
  8
0
 10
44.896235
 20
38.549881
 42
0.165697
  0
VERTEX
  8
0
 10
45.324361
 20
38.403357
 42
0.128746
  0
VERTEX
  8
0
 10
45.832713
 20
38.535732
 42
0.045506
  0
VERTEX
  8
0
 10
46.458021
 20
38.965160
 42
-0.084686
  0
VERTEX
  8
0
 10
47.119257
 20
39.347064
 42
-0.041191
  0
VERTEX
  8
0
 10
48.061417
 20
39.610304
 42
-0.039301
  0
VERTEX
  8
0
 10
49.113390
 20
39.728148
 42
-0.045564
  0
VERTEX
  8
0
 10
50.118993
 20
39.669687
 42
-0.068257
  0
VERTEX
  8
0
 10
51.331513
 20
39.313869
 42
-0.137725
  0
VERTEX
  8
0
 10
52.089967
 20
38.680882
 42
-0.101922
  0
VERTEX
  8
0
 10
52.543541
 20
37.603440
 42
-0.027483
  0
VERTEX
  8
0
 10
52.804281
 20
35.758033
 42
-0.018017
  0
VERTEX
  8
0
 10
52.897333
 20
33.875171
 42
-0.107460
  0
VERTEX
  8
0
 10
52.702398
 20
32.917199
 42
-0.212452
  0
VERTEX
  8
0
 10
52.197006
 20
32.458252
 42
-0.100436
  0
VERTEX
  8
0
 10
51.304281
 20
32.352064
 42
-0.119846
  0
VERTEX
  8
0
 10
50.502965
 20
32.617935
 42
-0.089224
  0
VERTEX
  8
0
 10
49.810365
 20
33.246408
 42
-0.071044
  0
VERTEX
  8
0
 10
49.260381
 20
34.220313
 42
-0.042263
  0
VERTEX
  8
0
 10
48.881641
 20
35.500000
 42
0.000000
  0
VERTEX
  8
0
 10
48.263282
 20
38.500000
 42
0.000000
  0
VERTEX
  8
0
 10
48.131641
 20
35.127555
 42
-0.013065
  0
VERTEX
  8
0
 10
48.013996
 20
33.324191
 42
-0.130722
  0
VERTEX
  8
0
 10
47.756244
 20
32.620792
 42
-0.349805
  0
VERTEX
  8
0
 10
47.315675
 20
32.490961
 42
-0.076725
  0
VERTEX
  8
0
 10
46.589028
 20
32.926114
 42
0.046256
  0
VERTEX
  8
0
 10
45.941465
 20
33.369399
 42
0.106971
  0
VERTEX
  8
0
 10
45.380417
 20
33.539698
 42
0.149374
  0
VERTEX
  8
0
 10
44.918484
 20
33.438830
 42
0.127098
  0
VERTEX
  8
0
 10
44.557003
 20
33.092232
 42
-0.228413
  0
VERTEX
  8
0
 10
43.564109
 20
32.458477
 42
-0.192885
  0
VERTEX
  8
0
 10
42.348947
 20
32.784485
 42
-0.124960
  0
VERTEX
  8
0
 10
41.303215
 20
34.080392
 42
-0.095430
  0
VERTEX
  8
0
 10
40.868359
 20
35.856989
 42
0.006175
  0
VERTEX
  8
0
 10
40.775856
 20
37.344255
 42
0.639255
  0
VERTEX
  8
0
 10
40.628328
 20
37.399576
 42
0.144724
  0
VERTEX
  8
0
 10
40.445991
 20
37.069378
 42
0.002405
  0
VERTEX
  8
0
 10
40.000000
 20
35.000000
 42
0.000000
  0
VERTEX
  8
0
 10
39.263282
 20
31.500000
 42
0.000000
  0
VERTEX
  8
0
 10
38.995459
 20
35.000000
 42
0.002874
  0
VERTEX
  8
0
 10
38.831353
 20
36.993891
 42
0.136924
  0
VERTEX
  8
0
 10
38.690506
 20
37.368057
 42
0.645864
  0
VERTEX
  8
0
 10
38.533106
 20
37.334787
 42
0.007952
  0
VERTEX
  8
0
 10
38.263003
 20
36.000000
 42
-0.059099
  0
VERTEX
  8
0
 10
37.664106
 20
34.076323
 42
-0.134390
  0
VERTEX
  8
0
 10
36.706481
 20
32.909061
 42
-0.192277
  0
VERTEX
  8
0
 10
35.530962
 20
32.625572
 42
-0.138233
  0
VERTEX
  8
0
 10
34.283538
 20
33.179647
 42
0.028926
  0
VERTEX
  8
0
 10
33.668608
 20
33.632623
 42
0.180966
  0
VERTEX
  8
0
 10
33.293838
 20
33.716035
 42
0.298402
  0
VERTEX
  8
0
 10
33.071264
 20
33.521199
 42
0.068049
  0
VERTEX
  8
0
 10
33.000000
 20
33.000000
 42
-0.066831
  0
VERTEX
  8
0
 10
32.928709
 20
32.469015
 42
-0.307651
  0
VERTEX
  8
0
 10
32.704787
 20
32.277733
 42
-0.176563
  0
VERTEX
  8
0
 10
32.323708
 20
32.370788
 42
-0.025931
  0
VERTEX
  8
0
 10
31.676206
 20
32.853762
 42
0.060386
  0
VERTEX
  8
0
 10
30.982480
 20
33.300476
 42
0.125641
  0
VERTEX
  8
0
 10
30.356461
 20
33.428356
 42
0.121934
  0
VERTEX
  8
0
 10
29.733221
 20
33.241600
 42
0.055094
  0
VERTEX
  8
0
 10
29.046578
 20
32.726206
 42
-0.147035
  0
VERTEX
  8
0
 10
28.457261
 20
32.432773
 42
-0.409125
  0
VERTEX
  8
0
 10
28.113421
 20
32.671399
 42
-0.071957
  0
VERTEX
  8
0
 10
28.066431
 20
33.744883
 42
-0.007012
  0
VERTEX
  8
0
 10
28.362608
 20
36.332930
 42
-0.009348
  0
VERTEX
  8
0
 10
28.647053
 20
38.258421
 42
-0.011418
  0
VERTEX
  8
0
 10
28.987674
 20
40.046937
 42
-0.010004
  0
VERTEX
  8
0
 10
29.336567
 20
41.530095
 42
-0.075778
  0
VERTEX
  8
0
 10
29.617236
 20
42.189693
 42
-0.351388
  0
VERTEX
  8
0
 10
30.337977
 20
42.445781
 42
-0.179555
  0
VERTEX
  8
0
 10
31.126100
 20
41.795655
 42
-0.076873
  0
VERTEX
  8
0
 10
31.781785
 20
40.116541
 42
-0.046877
  0
SEQEND
  0
POLYLINE
  8
0
 66
1
 70
1
  0
VERTEX
  8
0
 10
63.317343
 20
40.384601
 42
0.049477
  0
VERTEX
  8
0
 10
63.097498
 20
39.582551
 42
0.324591
  0
VERTEX
  8
0
 10
63.271664
 20
39.230189
 42
0.181196
  0
VERTEX
  8
0
 10
63.789709
 20
39.164828
 42
0.018586
  0
VERTEX
  8
0
 10
65.000000
 20
39.500000
 42
-0.019724
  0
VERTEX
  8
0
 10
66.157193
 20
39.817633
 42
-0.156920
  0
VERTEX
  8
0
 10
66.702689
 20
39.772331
 42
-0.326188
  0
VERTEX
  8
0
 10
66.898660
 20
39.449824
 42
-0.070572
  0
VERTEX
  8
0
 10
66.743792
 20
38.774716
 42
0.072905
  0
VERTEX
  8
0
 10
66.595408
 20
38.113816
 42
0.047822
  0
VERTEX
  8
0
 10
66.611248
 20
37.332370
 42
0.047288
  0
VERTEX
  8
0
 10
66.776997
 20
36.556030
 42
0.064971
  0
VERTEX
  8
0
 10
67.077207
 20
35.909316
 42
0.169268
  0
VERTEX
  8
0
 10
67.458982
 20
35.606187
 42
0.404248
  0
VERTEX
  8
0
 10
67.757911
 20
35.744229
 42
0.079196
  0
VERTEX
  8
0
 10
67.936206
 20
36.573430
 42
0.012413
  0
VERTEX
  8
0
 10
67.984687
 20
38.250000
 42
-0.027866
  0
VERTEX
  8
0
 10
68.070807
 20
39.688387
 42
-0.043847
  0
VERTEX
  8
0
 10
68.320327
 20
40.899650
 42
-0.054492
  0
VERTEX
  8
0
 10
68.678901
 20
41.748530
 42
-0.271985
  0
VERTEX
  8
0
 10
69.106989
 20
42.000000
 42
-0.145904
  0
VERTEX
  8
0
 10
69.484507
 20
41.887441
 42
-0.152631
  0
VERTEX
  8
0
 10
69.730736
 20
41.588094
 42
-0.118371
  0
VERTEX
  8
0
 10
69.799262
 20
41.133994
 42
-0.070249
  0
VERTEX
  8
0
 10
69.675890
 20
40.597766
 42
0.082616
  0
VERTEX
  8
0
 10
69.429557
 20
39.392164
 42
0.235305
  0
VERTEX
  8
0
 10
69.773425
 20
38.633409
 42
0.256868
  0
VERTEX
  8
0
 10
70.552112
 20
38.491536
 42
0.092784
  0
VERTEX
  8
0
 10
71.568963
 20
39.057234
 42
-0.050038
  0
VERTEX
  8
0
 10
72.176870
 20
39.466671
 42
-0.131340
  0
VERTEX
  8
0
 10
72.684536
 20
39.586370
 42
-0.161163
  0
VERTEX
  8
0
 10
73.118294
 20
39.428425
 42
-0.087330
  0
VERTEX
  8
0
 10
73.500000
 20
39.000000
 42
0.096700
  0
VERTEX
  8
0
 10
73.896794
 20
38.570962
 42
0.170640
  0
VERTEX
  8
0
 10
74.353423
 20
38.432907
 42
0.122886
  0
VERTEX
  8
0
 10
74.907987
 20
38.597776
 42
0.039822
  0
VERTEX
  8
0
 10
75.613194
 20
39.093942
 42
-0.061433
  0
VERTEX
  8
0
 10
76.819930
 20
39.867444
 42
-0.429074
  0
VERTEX
  8
0
 10
77.405676
 20
39.644736
 42
-0.131059
  0
VERTEX
  8
0
 10
77.560305
 20
38.516454
 42
-0.010372
  0
VERTEX
  8
0
 10
77.119283
 20
35.500000
 42
-0.015769
  0
VERTEX
  8
0
 10
76.779453
 20
33.801388
 42
-0.068412
  0
VERTEX
  8
0
 10
76.412940
 20
32.843975
 42
-0.255415
  0
VERTEX
  8
0
 10
76.028459
 20
32.598379
 42
-0.276573
  0
VERTEX
  8
0
 10
75.635694
 20
32.798558
 42
0.065971
  0
VERTEX
  8
0
 10
75.179242
 20
33.349876
 42
0.164834
  0
VERTEX
  8
0
 10
74.708152
 20
33.560689
 42
0.147929
  0
VERTEX
  8
0
 10
74.170406
 20
33.451859
 42
0.049869
  0
VERTEX
  8
0
 10
73.500000
 20
33.000000
 42
-0.042198
  0
VERTEX
  8
0
 10
72.841757
 20
32.541528
 42
-0.131763
  0
VERTEX
  8
0
 10
72.324778
 20
32.402883
 42
-0.171511
  0
VERTEX
  8
0
 10
71.891284
 20
32.556088
 42
-0.084648
  0
VERTEX
  8
0
 10
71.500000
 20
33.000000
 42
0.094120
  0
VERTEX
  8
0
 10
71.104448
 20
33.432105
 42
0.170936
  0
VERTEX
  8
0
 10
70.652727
 20
33.573447
 42
0.124697
  0
VERTEX
  8
0
 10
70.106163
 20
33.414226
 42
0.040308
  0
VERTEX
  8
0
 10
69.410972
 20
32.926114
 42
-0.020100
  0
VERTEX
  8
0
 10
68.696402
 20
32.380036
 42
-0.156189
  0
VERTEX
  8
0
 10
68.300778
 20
32.256587
 42
-0.329450
  0
VERTEX
  8
0
 10
68.074601
 20
32.426366
 42
-0.072722
  0
VERTEX
  8
0
 10
68.000000
 20
32.936572
 42
0.114567
  0
VERTEX
  8
0
 10
67.905838
 20
33.342127
 42
0.199127
  0
VERTEX
  8
0
 10
67.650390
 20
33.566808
 42
0.155387
  0
VERTEX
  8
0
 10
67.255279
 20
33.574705
 42
0.066410
  0
VERTEX
  8
0
 10
66.767581
 20
33.356357
 42
-0.063953
  0
VERTEX
  8
0
 10
64.777091
 20
32.453474
 42
-0.176143
  0
VERTEX
  8
0
 10
63.261390
 20
32.530231
 42
-0.201380
  0
VERTEX
  8
0
 10
62.279544
 20
33.534630
 42
-0.084951
  0
VERTEX
  8
0
 10
61.883999
 20
35.417119
 42
0.007791
  0
VERTEX
  8
0
 10
61.814229
 20
36.727536
 42
0.102212
  0
VERTEX
  8
0
 10
61.684054
 20
37.193375
 42
0.654267
  0
VERTEX
  8
0
 10
61.523976
 20
37.183092
 42
0.032548
  0
VERTEX
  8
0
 10
61.325449
 20
36.500000
 42
-0.010868
  0
VERTEX
  8
0
 10
60.602921
 20
33.541091
 42
-0.188258
  0
VERTEX
  8
0
 10
60.025386
 20
32.754611
 42
-0.493208
  0
VERTEX
  8
0
 10
59.483016
 20
32.953304
 42
-0.026655
  0
VERTEX
  8
0
 10
58.960540
 20
35.000000
 42
0.000000
  0
VERTEX
  8
0
 10
58.263282
 20
38.500000
 42
0.000000
  0
VERTEX
  8
0
 10
58.131641
 20
35.338484
 42
-0.026520
  0
VERTEX
  8
0
 10
57.984893
 20
33.792554
 42
-0.107197
  0
VERTEX
  8
0
 10
57.652114
 20
32.911785
 42
-0.179551
  0
VERTEX
  8
0
 10
57.089778
 20
32.492529
 42
-0.108186
  0
VERTEX
  8
0
 10
56.250000
 20
32.433813
 42
-0.118385
  0
VERTEX
  8
0
 10
55.442837
 20
32.757516
 42
-0.127655
  0
VERTEX
  8
0
 10
54.897360
 20
33.405412
 42
-0.083533
  0
VERTEX
  8
0
 10
54.591349
 20
34.472933
 42
-0.028130
  0
VERTEX
  8
0
 10
54.500000
 20
36.095329
 42
-0.023500
  0
VERTEX
  8
0
 10
54.583087
 20
37.862156
 42
-0.110499
  0
VERTEX
  8
0
 10
54.895109
 20
38.822689
 42
-0.178278
  0
VERTEX
  8
0
 10
55.499570
 20
39.315256
 42
-0.085912
  0
VERTEX
  8
0
 10
56.500000
 20
39.476190
 42
0.054695
  0
VERTEX
  8
0
 10
57.362600
 20
39.560454
 42
0.038342
  0
VERTEX
  8
0
 10
58.300670
 20
39.833557
 42
0.038759
  0
VERTEX
  8
0
 10
59.169684
 20
40.239945
 42
0.063119
  0
VERTEX
  8
0
 10
59.821429
 20
40.726190
 42
-0.073823
  0
VERTEX
  8
0
 10
61.227073
 20
41.728997
 42
-0.143395
  0
VERTEX
  8
0
 10
62.570405
 20
41.983789
 42
-0.276736
  0
VERTEX
  8
0
 10
63.303041
 20
41.441309
 42
-0.192290
  0
SEQEND
  0
POLYLINE
  8
0
 66
1
 70
1
  0
VERTEX
  8
0
 10
80.868359
 20
36.190983
 42
-0.035127
  0
VERTEX
  8
0
 10
80.997413
 20
37.269373
 42
-0.038544
  0
VERTEX
  8
0
 10
81.274564
 20
38.285079
 42
-0.041865
  0
VERTEX
  8
0
 10
81.646951
 20
39.103279
 42
-0.127288
  0
VERTEX
  8
0
 10
82.066327
 20
39.540993
 42
-0.313559
  0
VERTEX
  8
0
 10
82.489540
 20
39.518064
 42
-0.171175
  0
VERTEX
  8
0
 10
82.783081
 20
39.060009
 42
-0.061460
  0
VERTEX
  8
0
 10
82.896740
 20
38.012515
 42
-0.016826
  0
VERTEX
  8
0
 10
82.816327
 20
36.350010
 42
-0.052408
  0
VERTEX
  8
0
 10
82.220356
 20
33.195032
 42
-0.343236
  0
VERTEX
  8
0
 10
80.992261
 20
32.321795
 42
-0.332198
  0
VERTEX
  8
0
 10
79.801887
 20
33.293545
 42
-0.051477
  0
VERTEX
  8
0
 10
79.343974
 20
36.500000
 42
0.000000
  0
VERTEX
  8
0
 10
79.187949
 20
40.500000
 42
0.000000
  0
VERTEX
  8
0
 10
79.962333
 20
37.000000
 42
0.002099
  0
VERTEX
  8
0
 10
80.447827
 20
34.848565
 42
0.155168
  0
VERTEX
  8
0
 10
80.628416
 20
34.543170
 42
0.623620
  0
VERTEX
  8
0
 10
80.774417
 20
34.602557
 42
0.005096
  0
SEQEND
  0
POLYLINE
  8
0
 66
1
 70
1
  0
VERTEX
  8
0
 10
87.797590
 20
35.874549
 42
-0.019801
  0
VERTEX
  8
0
 10
87.884807
 20
34.002188
 42
-0.119780
  0
VERTEX
  8
0
 10
87.663435
 20
33.062973
 42
-0.203112
  0
VERTEX
  8
0
 10
87.098556
 20
32.587061
 42
-0.074978
  0
VERTEX
  8
0
 10
86.047590
 20
32.428571
 42
-0.085579
  0
VERTEX
  8
0
 10
85.003368
 20
32.608617
 42
-0.182885
  0
VERTEX
  8
0
 10
84.388454
 20
33.129984
 42
-0.106793
  0
VERTEX
  8
0
 10
84.079057
 20
34.155596
 42
-0.020055
  0
VERTEX
  8
0
 10
84.000000
 20
36.125802
 42
-0.018780
  0
VERTEX
  8
0
 10
84.071506
 20
38.028945
 42
-0.099019
  0
VERTEX
  8
0
 10
84.351343
 20
39.030306
 42
-0.197413
  0
VERTEX
  8
0
 10
84.890560
 20
39.494796
 42
-0.116490
  0
VERTEX
  8
0
 10
85.750000
 20
39.571779
 42
-0.125777
  0
VERTEX
  8
0
 10
86.547506
 20
39.241311
 42
-0.105880
  0
VERTEX
  8
0
 10
87.149754
 20
38.550123
 42
-0.073972
  0
VERTEX
  8
0
 10
87.562785
 20
37.446435
 42
-0.031078
  0
SEQEND
  0
POLYLINE
  8
0
 66
1
 70
1
  0
VERTEX
  8
0
 10
93.000000
 20
34.833333
 42
-0.012918
  0
VERTEX
  8
0
 10
92.932672
 20
32.227835
 42
-0.078000
  0
VERTEX
  8
0
 10
92.655031
 20
30.908110
 42
-0.173262
  0
VERTEX
  8
0
 10
92.091664
 20
30.247553
 42
-0.131125
  0
VERTEX
  8
0
 10
91.163934
 20
30.000000
 42
-0.121215
  0
VERTEX
  8
0
 10
90.256450
 20
30.223283
 42
-0.160138
  0
VERTEX
  8
0
 10
89.667066
 20
30.830240
 42
-0.085244
  0
VERTEX
  8
0
 10
89.327466
 20
31.997793
 42
-0.018455
  0
VERTEX
  8
0
 10
89.167184
 20
34.100750
 42
-0.014201
  0
VERTEX
  8
0
 10
89.134228
 20
37.162128
 42
-0.093397
  0
VERTEX
  8
0
 10
89.443341
 20
38.657145
 42
-0.195108
  0
VERTEX
  8
0
 10
90.171272
 20
39.399606
 42
-0.102837
  0
VERTEX
  8
0
 10
91.456011
 20
39.666667
 42
-0.186494
  0
VERTEX
  8
0
 10
92.188339
 20
39.383675
 42
-0.131778
  0
VERTEX
  8
0
 10
92.670139
 20
38.634062
 42
-0.062848
  0
VERTEX
  8
0
 10
92.930189
 20
37.234158
 42
-0.014536
  0
SEQEND
  0
POLYLINE
  8
0
 66
1
 70
1
  0
VERTEX
  8
0
 10
116.772535
 20
61.000000
 42
-0.032538
  0
VERTEX
  8
0
 10
115.555759
 20
52.754967
 42
-0.031129
  0
VERTEX
  8
0
 10
113.268526
 20
44.611382
 42
-0.031705
  0
VERTEX
  8
0
 10
110.043108
 20
36.970529
 42
-0.037373
  0
VERTEX
  8
0
 10
106.024175
 20
30.228340
 42
-0.028737
  0
VERTEX
  8
0
 10
101.683604
 20
24.746288
 42
-0.036336
  0
VERTEX
  8
0
 10
97.047802
 20
20.242176
 42
-0.036082
  0
VERTEX
  8
0
 10
91.781244
 20
16.432676
 42
-0.027715
  0
VERTEX
  8
0
 10
85.544904
 20
13.036529
 42
-0.023424
  0
VERTEX
  8
0
 10
80.533016
 20
10.938704
 42
-0.014102
  0
VERTEX
  8
0
 10
74.417045
 20
8.902634
 42
-0.006172
  0
VERTEX
  8
0
 10
68.401000
 20
7.167326
 42
-0.269740
  0
VERTEX
  8
0
 10
67.175300
 20
7.491367
 42
-0.144081
  0
VERTEX
  8
0
 10
66.993343
 20
7.825065
 42
-0.006878
  0
VERTEX
  8
0
 10
66.738771
 20
9.085711
 42
-0.010795
  0
VERTEX
  8
0
 10
66.486373
 20
10.611710
 42
-0.007521
  0
VERTEX
  8
0
 10
66.264761
 20
12.343402
 42
0.000000
  0
VERTEX
  8
0
 10
65.764061
 20
16.785599
 42
0.000000
  0
VERTEX
  8
0
 10
60.444175
 20
14.432892
 42
-0.035989
  0
VERTEX
  8
0
 10
54.762383
 20
12.394597
 42
-0.026853
  0
VERTEX
  8
0
 10
48.261731
 20
10.949110
 42
-0.027172
  0
VERTEX
  8
0
 10
41.770492
 20
10.227076
 42
-0.041939
  0
VERTEX
  8
0
 10
36.129912
 20
10.381565
 42
0.000000
  0
VERTEX
  8
0
 10
30.500000
 20
11.010265
 42
0.000000
  0
VERTEX
  8
0
 10
33.500000
 20
9.074565
 42
0.033754
  0
VERTEX
  8
0
 10
35.168664
 20
8.150942
 42
0.008791
  0
VERTEX
  8
0
 10
37.968750
 20
6.898921
 42
0.008896
  0
VERTEX
  8
0
 10
41.217193
 20
5.582209
 42
0.008982
  0
VERTEX
  8
0
 10
44.500000
 20
4.386334
 42
0.016074
  0
VERTEX
  8
0
 10
49.309310
 20
2.902676
 42
0.032514
  0
VERTEX
  8
0
 10
53.190085
 20
2.107583
 42
0.026567
  0
VERTEX
  8
0
 10
57.611351
 20
1.735515
 42
0.007577
  0
VERTEX
  8
0
 10
64.500000
 20
1.627484
 42
0.007301
  0
VERTEX
  8
0
 10
71.286080
 20
1.723005
 42
0.025775
  0
VERTEX
  8
0
 10
75.631418
 20
2.072319
 42
0.033344
  0
VERTEX
  8
0
 10
79.311622
 20
2.812273
 42
0.019529
  0
VERTEX
  8
0
 10
83.602042
 20
4.158919
 42
0.054116
  0
VERTEX
  8
0
 10
95.315236
 20
9.836046
 42
0.064040
  0
VERTEX
  8
0
 10
104.820184
 20
17.638531
 42
0.065136
  0
VERTEX
  8
0
 10
111.920532
 20
27.470407
 42
0.058936
  0
VERTEX
  8
0
 10
116.545887
 20
39.130963
 42
0.029422
  0
VERTEX
  8
0
 10
117.766192
 20
45.118113
 42
0.018459
  0
VERTEX
  8
0
 10
118.517708
 20
52.226825
 42
0.018381
  0
VERTEX
  8
0
 10
118.733845
 20
59.052380
 42
0.046234
  0
VERTEX
  8
0
 10
118.249896
 20
64.000000
 42
0.000000
  0
VERTEX
  8
0
 10
117.384890
 20
68.500000
 42
0.000000
  0
SEQEND
  0
POLYLINE
  8
0
 66
1
 70
1
  0
VERTEX
  8
0
 10
43.157895
 20
36.000000
 42
0.017491
  0
VERTEX
  8
0
 10
43.189089
 20
35.108560
 42
0.078554
  0
VERTEX
  8
0
 10
43.306058
 20
34.601562
 42
0.447206
  0
VERTEX
  8
0
 10
43.474999
 20
34.540618
 42
0.174857
  0
VERTEX
  8
0
 10
43.662281
 20
34.750000
 42
0.057986
  0
VERTEX
  8
0
 10
43.818615
 20
35.320008
 42
0.037979
  0
VERTEX
  8
0
 10
43.870340
 20
36.000000
 42
0.037979
  0
VERTEX
  8
0
 10
43.818615
 20
36.679992
 42
0.057986
  0
VERTEX
  8
0
 10
43.662281
 20
37.250000
 42
0.174857
  0
VERTEX
  8
0
 10
43.474999
 20
37.459382
 42
0.447206
  0
VERTEX
  8
0
 10
43.306058
 20
37.398438
 42
0.078554
  0
VERTEX
  8
0
 10
43.189089
 20
36.891440
 42
0.017491
  0
SEQEND
  0
POLYLINE
  8
0
 66
1
 70
1
  0
VERTEX
  8
0
 10
64.000000
 20
35.000000
 42
0.105053
  0
VERTEX
  8
0
 10
64.081062
 20
34.618444
 42
0.099167
  0
VERTEX
  8
0
 10
64.311086
 20
34.293750
 42
0.096420
  0
VERTEX
  8
0
 10
64.654762
 20
34.076123
 42
0.093332
  0
VERTEX
  8
0
 10
65.059017
 20
34.000000
 42
0.108972
  0
VERTEX
  8
0
 10
65.413961
 20
34.078288
 42
0.182303
  0
VERTEX
  8
0
 10
65.625400
 20
34.293750
 42
0.161196
  0
VERTEX
  8
0
 10
65.656512
 20
34.617900
 42
0.082592
  0
VERTEX
  8
0
 10
65.500000
 20
35.000000
 42
0.029505
  0
VERTEX
  8
0
 10
65.231006
 20
35.382774
 42
0.035638
  0
VERTEX
  8
0
 10
64.933975
 20
35.706250
 42
0.038439
  0
VERTEX
  8
0
 10
64.651710
 20
35.934461
 42
0.151918
  0
VERTEX
  8
0
 10
64.440983
 20
36.000000
 42
0.210953
  0
VERTEX
  8
0
 10
64.272352
 20
35.925540
 42
0.081139
  0
VERTEX
  8
0
 10
64.129539
 20
35.706250
 42
0.061769
  0
VERTEX
  8
0
 10
64.032345
 20
35.382849
 42
0.042167
  0
SEQEND
  0
ENDSEC
  0
EOF
