  0
SECTION
  2
HEADER
  9
$ACADVER
  1
AC1006
  9
$EXTMIN
 10
0.000000
 20
0.000000
 30
0.000000
  9
$EXTMAX
 10
569.000000
 20
566.000000
 30
0.000000
  0
ENDSEC
  0
SECTION
  2
ENTITIES
  0
POLYLINE
  8
0
 66
1
 70
1
  0
VERTEX
  8
0
 10
247.500000
 20
564.350603
 42
-0.000499
  0
VERTEX
  8
0
 10
245.779978
 20
564.151826
 42
-0.000091
  0
VERTEX
  8
0
 10
242.590625
 20
563.787054
 42
-0.000098
  0
VERTEX
  8
0
 10
238.857080
 20
563.361467
 42
-0.000089
  0
VERTEX
  8
0
 10
235.000000
 20
562.923252
 42
0.040379
  0
VERTEX
  8
0
 10
190.730200
 20
554.240937
 42
0.038385
  0
VERTEX
  8
0
 10
147.644436
 20
538.459118
 42
0.038935
  0
VERTEX
  8
0
 10
108.090313
 20
516.558225
 42
0.044718
  0
VERTEX
  8
0
 10
74.337858
 20
489.659026
 42
0.050118
  0
VERTEX
  8
0
 10
42.367496
 20
452.342126
 42
0.053655
  0
VERTEX
  8
0
 10
19.299944
 20
410.220003
 42
0.052897
  0
VERTEX
  8
0
 10
5.486184
 20
363.610236
 42
0.046371
  0
VERTEX
  8
0
 10
0.931482
 20
313.000000
 42
0.015942
  0
VERTEX
  8
0
 10
1.814562
 20
287.635515
 42
0.019344
  0
VERTEX
  8
0
 10
4.316696
 20
263.976072
 42
0.019985
  0
VERTEX
  8
0
 10
8.544512
 20
241.260128
 42
0.019417
  0
VERTEX
  8
0
 10
14.605223
 20
218.731937
 42
0.012890
  0
VERTEX
  8
0
 10
17.447504
 20
210.363364
 42
0.004414
  0
VERTEX
  8
0
 10
21.984271
 20
198.383849
 42
0.000643
  0
VERTEX
  8
0
 10
27.053552
 20
185.396364
 42
0.540724
  0
VERTEX
  8
0
 10
27.612834
 20
185.279500
 42
0.234000
  0
VERTEX
  8
0
 10
27.715625
 20
185.583891
 42
0.001277
  0
VERTEX
  8
0
 10
27.283032
 20
188.730748
 42
0.005109
  0
VERTEX
  8
0
 10
26.739344
 20
192.343165
 42
0.003177
  0
VERTEX
  8
0
 10
26.031402
 20
196.569724
 42
-0.010156
  0
VERTEX
  8
0
 10
23.514423
 20
213.000958
 42
-0.012715
  0
VERTEX
  8
0
 10
21.878864
 20
228.334809
 42
-0.012181
  0
VERTEX
  8
0
 10
20.978805
 20
244.255886
 42
-0.008152
  0
VERTEX
  8
0
 10
20.690373
 20
262.500000
 42
-0.008065
  0
VERTEX
  8
0
 10
21.001459
 20
281.211652
 42
-0.014492
  0
VERTEX
  8
0
 10
21.948776
 20
296.537076
 42
-0.015601
  0
VERTEX
  8
0
 10
23.719296
 20
310.987429
 42
-0.011388
  0
VERTEX
  8
0
 10
26.549901
 20
326.914011
 42
-0.064099
  0
VERTEX
  8
0
 10
48.275523
 20
391.033399
 42
-0.068609
  0
VERTEX
  8
0
 10
85.178919
 20
445.945499
 42
-0.065828
  0
VERTEX
  8
0
 10
137.028152
 20
490.566321
 42
-0.052320
  0
VERTEX
  8
0
 10
202.783297
 20
524.348860
 42
0.000000
  0
VERTEX
  8
0
 10
207.066595
 20
526.010452
 42
0.000000
  0
VERTEX
  8
0
 10
209.130930
 20
521.255226
 42
-0.030659
  0
VERTEX
  8
0
 10
211.557844
 20
514.570816
 42
-0.013975
  0
VERTEX
  8
0
 10
213.939147
 20
505.584044
 42
-0.013725
  0
VERTEX
  8
0
 10
215.940779
 20
495.890508
 42
-0.017655
  0
VERTEX
  8
0
 10
217.218353
 20
486.881754
 42
0.000000
  0
VERTEX
  8
0
 10
218.343504
 20
476.263508
 42
0.000000
  0
VERTEX
  8
0
 10
226.207939
 20
483.059420
 42
-0.027880
  0
VERTEX
  8
0
 10
243.419534
 20
496.332039
 42
-0.024367
  0
VERTEX
  8
0
 10
262.773288
 20
508.262634
 42
-0.023675
  0
VERTEX
  8
0
 10
283.794877
 20
518.582645
 42
-0.022672
  0
VERTEX
  8
0
 10
306.000000
 20
527.034264
 42
-0.015970
  0
VERTEX
  8
0
 10
324.296226
 20
532.422659
 42
-0.020109
  0
VERTEX
  8
0
 10
341.551419
 20
536.177401
 42
-0.019791
  0
VERTEX
  8
0
 10
359.276356
 20
538.575358
 42
-0.014684
  0
VERTEX
  8
0
 10
379.000000
 20
539.869659
 42
0.000000
  0
VERTEX
  8
0
 10
397.500000
 20
540.538958
 42
0.000000
  0
VERTEX
  8
0
 10
393.500000
 20
542.356052
 42
0.033663
  0
VERTEX
  8
0
 10
375.755521
 20
549.016932
 42
0.015068
  0
VERTEX
  8
0
 10
351.663583
 20
555.468940
 42
0.014866
  0
VERTEX
  8
0
 10
325.758578
 20
560.768804
 42
0.019937
  0
VERTEX
  8
0
 10
302.000000
 20
563.928252
 42
0.017256
  0
VERTEX
  8
0
 10
291.456203
 20
564.538664
 42
0.003892
  0
VERTEX
  8
0
 10
273.499216
 20
564.817636
 42
0.003263
  0
VERTEX
  8
0
 10
255.548728
 20
564.839589
 42
0.027695
  0
SEQEND
  0
POLYLINE
  8
0
 66
1
 70
1
  0
VERTEX
  8
0
 10
370.000000
 20
535.043459
 42
0.037691
  0
VERTEX
  8
0
 10
328.230227
 20
528.373396
 42
0.040223
  0
VERTEX
  8
0
 10
288.867570
 20
515.586334
 42
0.041896
  0
VERTEX
  8
0
 10
253.575112
 20
497.291420
 42
0.049566
  0
VERTEX
  8
0
 10
223.919632
 20
474.226372
 42
0.000000
  0
VERTEX
  8
0
 10
214.164249
 20
464.952745
 42
0.000000
  0
VERTEX
  8
0
 10
213.612959
 20
471.226372
 42
-0.001457
  0
VERTEX
  8
0
 10
213.358961
 20
474.216778
 42
-0.000681
  0
VERTEX
  8
0
 10
213.046576
 20
478.091034
 42
-0.000675
  0
VERTEX
  8
0
 10
212.729981
 20
482.155113
 42
-0.000946
  0
VERTEX
  8
0
 10
212.459000
 20
485.785659
 42
0.023783
  0
VERTEX
  8
0
 10
211.586274
 20
493.013428
 42
0.011296
  0
VERTEX
  8
0
 10
209.812128
 20
502.222975
 42
0.010862
  0
VERTEX
  8
0
 10
207.699764
 20
511.060356
 42
0.036101
  0
VERTEX
  8
0
 10
205.773692
 20
516.710842
 42
0.000000
  0
VERTEX
  8
0
 10
204.413571
 20
519.921684
 42
0.000000
  0
VERTEX
  8
0
 10
190.507884
 20
513.931859
 42
0.020177
  0
VERTEX
  8
0
 10
163.915431
 20
501.181987
 42
0.025247
  0
VERTEX
  8
0
 10
140.418746
 20
487.164101
 42
0.025907
  0
VERTEX
  8
0
 10
118.956131
 20
471.177782
 42
0.023366
  0
VERTEX
  8
0
 10
98.475901
 20
452.525500
 42
0.016998
  0
VERTEX
  8
0
 10
83.532829
 20
436.528823
 42
0.024577
  0
VERTEX
  8
0
 10
71.547679
 20
421.345477
 42
0.024973
  0
VERTEX
  8
0
 10
61.250256
 20
405.249642
 42
0.018404
  0
VERTEX
  8
0
 10
51.431707
 20
386.500000
 42
0.019557
  0
VERTEX
  8
0
 10
42.997628
 20
366.906842
 42
0.021576
  0
VERTEX
  8
0
 10
36.421152
 20
347.339434
 42
0.020587
  0
VERTEX
  8
0
 10
31.319795
 20
326.486136
 42
0.015086
  0
VERTEX
  8
0
 10
27.322554
 20
303.000000
 42
0.025891
  0
VERTEX
  8
0
 10
25.887152
 20
286.474157
 42
0.008810
  0
VERTEX
  8
0
 10
25.471311
 20
262.371932
 42
0.008928
  0
VERTEX
  8
0
 10
25.914547
 20
238.051883
 42
0.022846
  0
VERTEX
  8
0
 10
27.352842
 20
220.500000
 42
0.006979
  0
VERTEX
  8
0
 10
29.338114
 20
206.553981
 42
0.006846
  0
VERTEX
  8
0
 10
31.723386
 20
192.579165
 42
0.007152
  0
VERTEX
  8
0
 10
34.343938
 20
179.452919
 42
0.010770
  0
VERTEX
  8
0
 10
37.036856
 20
168.099904
 42
0.027980
  0
VERTEX
  8
0
 10
40.389360
 20
157.647636
 42
0.033774
  0
VERTEX
  8
0
 10
44.721783
 20
148.296072
 42
0.024534
  0
VERTEX
  8
0
 10
51.327688
 20
137.531872
 42
0.007449
  0
VERTEX
  8
0
 10
62.367380
 20
121.883010
 42
0.006063
  0
VERTEX
  8
0
 10
69.909683
 20
111.782597
 42
0.013727
  0
VERTEX
  8
0
 10
75.914514
 20
104.371891
 42
0.014950
  0
VERTEX
  8
0
 10
81.991450
 20
97.694247
 42
0.008652
  0
VERTEX
  8
0
 10
89.669581
 20
90.018244
 42
0.004970
  0
VERTEX
  8
0
 10
95.738237
 20
84.273149
 42
0.003688
  0
VERTEX
  8
0
 10
102.552416
 20
78.042448
 42
0.003728
  0
VERTEX
  8
0
 10
109.071428
 20
72.256812
 42
0.008401
  0
VERTEX
  8
0
 10
114.117363
 20
67.992773
 42
0.000000
  0
VERTEX
  8
0
 10
124.743814
 20
59.314729
 42
0.000000
  0
VERTEX
  8
0
 10
135.121907
 20
57.147580
 42
0.007856
  0
VERTEX
  8
0
 10
150.459838
 20
54.195426
 42
0.018533
  0
VERTEX
  8
0
 10
161.995959
 20
52.600603
 42
0.017825
  0
VERTEX
  8
0
 10
173.882135
 20
51.830876
 42
0.006772
  0
VERTEX
  8
0
 10
190.500000
 20
51.573652
 42
0.008129
  0
VERTEX
  8
0
 10
208.185368
 20
51.826992
 42
0.019626
  0
VERTEX
  8
0
 10
221.231425
 20
52.739451
 42
0.021313
  0
VERTEX
  8
0
 10
233.514029
 20
54.617070
 42
0.011329
  0
VERTEX
  8
0
 10
248.540929
 20
57.929629
 42
0.022654
  0
VERTEX
  8
0
 10
267.788277
 20
63.567162
 42
0.023348
  0
VERTEX
  8
0
 10
286.249494
 20
70.874873
 42
0.024359
  0
VERTEX
  8
0
 10
303.117646
 20
79.492437
 42
0.031731
  0
VERTEX
  8
0
 10
317.576250
 20
89.057714
 42
-0.002227
  0
VERTEX
  8
0
 10
320.102628
 20
90.952282
 42
-0.003543
  0
VERTEX
  8
0
 10
322.282732
 20
92.548203
 42
-0.000833
  0
VERTEX
  8
0
 10
324.200868
 20
93.926736
 42
-0.156635
  0
VERTEX
  8
0
 10
324.428999
 20
94.000000
 42
-0.462241
  0
VERTEX
  8
0
 10
324.532427
 20
93.878402
 42
-0.002502
  0
VERTEX
  8
0
 10
324.244933
 20
92.164063
 42
-0.007816
  0
VERTEX
  8
0
 10
323.863684
 20
90.146775
 42
-0.004615
  0
VERTEX
  8
0
 10
323.348698
 20
87.750000
 42
0.035340
  0
VERTEX
  8
0
 10
322.182299
 20
80.044239
 42
0.008621
  0
VERTEX
  8
0
 10
321.381364
 20
67.211859
 42
0.008962
  0
VERTEX
  8
0
 10
321.028879
 20
54.241327
 42
0.028990
  0
VERTEX
  8
0
 10
321.448400
 20
45.637237
 42
0.013360
  0
VERTEX
  8
0
 10
321.857220
 20
42.590866
 42
0.033254
  0
VERTEX
  8
0
 10
322.362072
 20
40.401224
 42
0.045641
  0
VERTEX
  8
0
 10
322.955884
 20
38.932897
 42
0.184260
  0
VERTEX
  8
0
 10
323.662881
 20
38.299123
 42
0.143838
  0
VERTEX
  8
0
 10
326.380303
 20
38.079376
 42
0.003782
  0
VERTEX
  8
0
 10
338.351695
 20
40.663429
 42
0.008515
  0
VERTEX
  8
0
 10
351.187734
 20
43.766333
 42
0.009716
  0
VERTEX
  8
0
 10
363.354594
 20
47.181390
 42
0.063589
  0
VERTEX
  8
0
 10
431.355085
 20
77.555174
 42
0.074737
  0
VERTEX
  8
0
 10
485.449964
 20
122.776114
 42
0.073688
  0
VERTEX
  8
0
 10
524.410768
 20
182.476324
 42
0.059569
  0
VERTEX
  8
0
 10
547.936327
 20
255.391451
 42
0.009856
  0
VERTEX
  8
0
 10
551.211620
 20
274.091493
 42
0.016297
  0
VERTEX
  8
0
 10
553.147719
 20
290.002440
 42
0.014971
  0
VERTEX
  8
0
 10
554.139398
 20
306.918573
 42
0.006879
  0
VERTEX
  8
0
 10
554.467515
 20
329.000000
 42
0.000000
  0
VERTEX
  8
0
 10
554.500000
 20
358.500000
 42
0.000000
  0
VERTEX
  8
0
 10
551.146156
 20
368.990554
 42
0.044708
  0
VERTEX
  8
0
 10
530.593473
 20
417.766923
 42
0.047454
  0
VERTEX
  8
0
 10
502.032268
 20
461.078374
 42
0.047514
  0
VERTEX
  8
0
 10
465.853670
 20
498.182170
 42
0.045037
  0
VERTEX
  8
0
 10
422.699425
 20
528.540085
 42
0.000000
  0
VERTEX
  8
0
 10
410.898850
 20
535.344385
 42
0.000000
  0
VERTEX
  8
0
 10
395.199425
 20
535.589093
 42
0.005120
  0
VERTEX
  8
0
 10
388.492589
 20
535.624943
 42
0.004189
  0
VERTEX
  8
0
 10
381.321081
 20
535.529755
 42
0.004232
  0
VERTEX
  8
0
 10
374.725653
 20
535.331086
 42
0.011107
  0
SEQEND
  0
POLYLINE
  8
0
 66
1
 70
1
  0
VERTEX
  8
0
 10
208.403989
 20
400.024555
 42
-0.029684
  0
VERTEX
  8
0
 10
216.344839
 20
397.483162
 42
-0.038945
  0
VERTEX
  8
0
 10
223.208703
 20
394.193401
 42
-0.038230
  0
VERTEX
  8
0
 10
229.575989
 20
389.825956
 42
-0.027091
  0
VERTEX
  8
0
 10
236.024978
 20
384.033647
 42
-0.035974
  0
VERTEX
  8
0
 10
242.922933
 20
376.055392
 42
-0.056148
  0
VERTEX
  8
0
 10
247.500358
 20
368.221640
 42
-0.058838
  0
VERTEX
  8
0
 10
250.083256
 20
359.844869
 42
-0.044439
  0
VERTEX
  8
0
 10
250.975554
 20
350.250000
 42
0.000000
  0
VERTEX
  8
0
 10
251.000000
 20
344.000000
 42
0.000000
  0
VERTEX
  8
0
 10
234.000000
 20
344.000000
 42
0.000000
  0
VERTEX
  8
0
 10
217.000000
 20
344.000000
 42
0.000000
  0
VERTEX
  8
0
 10
217.000000
 20
349.532119
 42
0.092355
  0
VERTEX
  8
0
 10
215.305515
 20
358.627666
 42
0.100770
  0
VERTEX
  8
0
 10
210.466168
 20
366.190446
 42
0.098170
  0
VERTEX
  8
0
 10
202.934940
 20
371.398153
 42
0.083206
  0
VERTEX
  8
0
 10
193.529412
 20
373.732193
 42
0.082285
  0
VERTEX
  8
0
 10
184.813345
 20
372.972090
 42
0.081577
  0
VERTEX
  8
0
 10
176.779641
 20
369.442306
 42
0.085182
  0
VERTEX
  8
0
 10
170.573980
 20
363.698945
 42
0.102214
  0
VERTEX
  8
0
 10
167.116626
 20
356.548884
 42
0.048903
  0
VERTEX
  8
0
 10
166.203626
 20
350.464524
 42
0.015204
  0
VERTEX
  8
0
 10
166.011035
 20
341.211836
 42
0.013308
  0
VERTEX
  8
0
 10
166.340623
 20
332.113208
 42
0.083432
  0
VERTEX
  8
0
 10
167.394367
 20
327.598574
 42
0.120304
  0
VERTEX
  8
0
 10
170.265948
 20
323.703140
 42
0.135806
  0
VERTEX
  8
0
 10
174.488268
 20
321.786376
 42
0.037092
  0
VERTEX
  8
0
 10
182.781609
 20
321.104521
 42
0.001971
  0
VERTEX
  8
0
 10
209.299429
 20
321.000000
 42
0.000000
  0
VERTEX
  8
0
 10
245.153846
 20
321.000000
 42
0.000000
  0
VERTEX
  8
0
 10
248.129019
 20
318.024827
 42
0.000000
  0
VERTEX
  8
0
 10
251.104192
 20
315.049654
 42
0.000000
  0
VERTEX
  8
0
 10
250.797491
 20
283.274827
 42
-0.004346
  0
VERTEX
  8
0
 10
250.362234
 20
259.549985
 42
-0.041042
  0
VERTEX
  8
0
 10
249.255110
 20
249.440114
 42
-0.077953
  0
VERTEX
  8
0
 10
246.661081
 20
242.260355
 42
-0.035591
  0
VERTEX
  8
0
 10
241.237491
 20
233.862631
 42
-0.062964
  0
VERTEX
  8
0
 10
231.727839
 20
224.062571
 42
-0.059883
  0
VERTEX
  8
0
 10
219.924043
 20
216.743318
 42
-0.057780
  0
VERTEX
  8
0
 10
206.318433
 20
212.234621
 42
-0.051546
  0
VERTEX
  8
0
 10
191.500000
 20
210.724398
 42
-0.041728
  0
VERTEX
  8
0
 10
178.923027
 20
211.794024
 42
-0.050706
  0
VERTEX
  8
0
 10
167.528057
 20
214.942448
 42
-0.051930
  0
VERTEX
  8
0
 10
157.220848
 20
220.238796
 42
-0.047379
  0
VERTEX
  8
0
 10
147.876399
 20
227.689520
 42
-0.045256
  0
VERTEX
  8
0
 10
141.144472
 20
235.481504
 42
-0.049154
  0
VERTEX
  8
0
 10
136.134475
 20
244.153827
 42
-0.050854
  0
VERTEX
  8
0
 10
133.044707
 20
253.353710
 42
-0.055656
  0
VERTEX
  8
0
 10
132.000000
 20
262.710099
 42
0.000000
  0
VERTEX
  8
0
 10
132.000000
 20
268.000000
 42
0.000000
  0
VERTEX
  8
0
 10
149.000000
 20
268.000000
 42
0.000000
  0
VERTEX
  8
0
 10
166.000000
 20
268.000000
 42
0.000000
  0
VERTEX
  8
0
 10
166.000000
 20
264.181501
 42
0.087586
  0
VERTEX
  8
0
 10
167.670130
 20
254.720385
 42
0.100455
  0
VERTEX
  8
0
 10
172.458300
 20
246.905241
 42
0.100212
  0
VERTEX
  8
0
 10
179.925307
 20
241.561947
 42
0.086752
  0
VERTEX
  8
0
 10
189.277731
 20
239.190982
 42
0.062532
  0
VERTEX
  8
0
 10
197.509397
 20
239.600343
 42
0.077760
  0
VERTEX
  8
0
 10
204.751031
 20
242.079140
 42
0.082454
  0
VERTEX
  8
0
 10
210.569015
 20
246.497768
 42
0.082030
  0
VERTEX
  8
0
 10
214.659158
 20
252.566681
 42
0.029804
  0
VERTEX
  8
0
 10
216.067842
 20
256.201364
 42
0.051182
  0
VERTEX
  8
0
 10
216.737735
 20
259.377361
 42
0.028096
  0
VERTEX
  8
0
 10
216.952741
 20
263.723936
 42
0.003687
  0
VERTEX
  8
0
 10
216.822086
 20
272.972361
 42
0.003053
  0
VERTEX
  8
0
 10
216.568693
 20
282.148524
 42
0.028958
  0
VERTEX
  8
0
 10
216.209276
 20
286.060767
 42
0.071252
  0
VERTEX
  8
0
 10
215.512844
 20
288.379527
 42
0.088167
  0
VERTEX
  8
0
 10
214.223218
 20
290.225027
 42
0.000000
  0
VERTEX
  8
0
 10
211.946435
 20
292.500000
 42
0.000000
  0
VERTEX
  8
0
 10
173.763314
 20
292.784973
 42
-0.001118
  0
VERTEX
  8
0
 10
151.882795
 20
292.997191
 42
-0.008922
  0
VERTEX
  8
0
 10
141.791059
 20
293.297785
 42
-0.014177
  0
VERTEX
  8
0
 10
135.904483
 20
293.745872
 42
-0.159132
  0
VERTEX
  8
0
 10
133.790096
 20
294.689960
 42
-0.165653
  0
VERTEX
  8
0
 10
132.755826
 20
296.552479
 42
-0.029916
  0
VERTEX
  8
0
 10
132.279696
 20
300.542455
 42
-0.013387
  0
VERTEX
  8
0
 10
132.046632
 20
307.781804
 42
-0.001353
  0
VERTEX
  8
0
 10
132.000000
 20
325.018498
 42
-0.003225
  0
VERTEX
  8
0
 10
132.073443
 20
336.406414
 42
-0.004144
  0
VERTEX
  8
0
 10
132.295301
 20
346.876173
 42
-0.003195
  0
VERTEX
  8
0
 10
132.609771
 20
355.640181
 42
-0.035578
  0
VERTEX
  8
0
 10
133.005280
 20
359.113510
 42
-0.087166
  0
VERTEX
  8
0
 10
138.030447
 20
372.529105
 42
-0.067061
  0
VERTEX
  8
0
 10
147.711729
 20
384.844574
 42
-0.064604
  0
VERTEX
  8
0
 10
160.725869
 20
394.567280
 42
-0.068962
  0
VERTEX
  8
0
 10
175.512217
 20
400.385866
 42
-0.038715
  0
VERTEX
  8
0
 10
182.936246
 20
401.582441
 42
-0.023353
  0
VERTEX
  8
0
 10
191.849134
 20
401.900882
 42
-0.023289
  0
VERTEX
  8
0
 10
200.812908
 20
401.384403
 42
-0.036582
  0
SEQEND
  0
POLYLINE
  8
0
 66
1
 70
1
  0
VERTEX
  8
0
 10
313.231831
 20
321.911394
 42
0.000000
  0
VERTEX
  8
0
 10
313.500000
 20
244.822788
 42
0.000000
  0
VERTEX
  8
0
 10
315.860784
 20
242.911394
 42
0.144466
  0
VERTEX
  8
0
 10
319.888354
 20
241.238642
 42
0.026676
  0
VERTEX
  8
0
 10
327.999688
 20
240.805389
 42
0.026677
  0
VERTEX
  8
0
 10
336.111081
 20
241.238282
 42
0.144439
  0
VERTEX
  8
0
 10
340.139216
 20
242.910824
 42
0.000000
  0
VERTEX
  8
0
 10
342.500000
 20
244.821649
 42
0.000000
  0
VERTEX
  8
0
 10
342.784387
 20
282.910824
 42
0.000000
  0
VERTEX
  8
0
 10
343.068775
 20
321.000000
 42
0.000000
  0
VERTEX
  8
0
 10
360.034387
 20
321.000000
 42
0.000000
  0
VERTEX
  8
0
 10
377.000000
 20
321.000000
 42
0.000000
  0
VERTEX
  8
0
 10
377.000000
 20
283.000000
 42
0.000800
  0
VERTEX
  8
0
 10
377.039646
 20
258.213613
 42
0.012396
  0
VERTEX
  8
0
 10
377.277889
 20
249.704217
 42
0.036683
  0
VERTEX
  8
0
 10
377.840885
 20
245.263763
 42
0.147544
  0
VERTEX
  8
0
 10
379.119539
 20
242.880461
 42
0.049626
  0
VERTEX
  8
0
 10
380.414484
 20
241.819884
 42
0.089648
  0
VERTEX
  8
0
 10
381.668865
 20
241.277318
 42
0.070301
  0
VERTEX
  8
0
 10
383.236525
 20
241.137353
 42
0.021226
  0
VERTEX
  8
0
 10
385.622738
 20
241.361769
 42
0.073151
  0
VERTEX
  8
0
 10
392.165801
 20
243.259257
 42
0.064117
  0
VERTEX
  8
0
 10
398.215227
 20
247.021316
 42
0.065455
  0
VERTEX
  8
0
 10
403.000886
 20
252.100464
 42
0.083653
  0
VERTEX
  8
0
 10
405.839442
 20
257.858443
 42
0.066759
  0
VERTEX
  8
0
 10
406.424697
 20
261.537011
 42
0.002114
  0
VERTEX
  8
0
 10
406.731669
 20
276.710763
 42
0.003083
  0
VERTEX
  8
0
 10
406.940500
 20
297.946483
 42
0.000917
  0
VERTEX
  8
0
 10
407.000000
 20
330.390199
 42
0.000000
  0
VERTEX
  8
0
 10
407.000000
 20
399.048358
 42
0.000000
  0
VERTEX
  8
0
 10
423.750000
 20
398.774179
 42
0.000000
  0
VERTEX
  8
0
 10
440.500000
 20
398.500000
 42
0.000000
  0
VERTEX
  8
0
 10
440.773062
 20
332.000000
 42
-0.001201
  0
VERTEX
  8
0
 10
440.820560
 20
304.137828
 42
-0.002299
  0
VERTEX
  8
0
 10
440.702153
 20
281.772924
 42
-0.001473
  0
VERTEX
  8
0
 10
440.474453
 20
264.038751
 42
-0.034048
  0
VERTEX
  8
0
 10
440.050929
 20
259.000000
 42
-0.079807
  0
VERTEX
  8
0
 10
435.803225
 20
245.794228
 42
-0.068651
  0
VERTEX
  8
0
 10
427.468279
 20
233.806737
 42
-0.065270
  0
VERTEX
  8
0
 10
415.744998
 20
224.016478
 42
-0.060202
  0
VERTEX
  8
0
 10
401.578411
 20
217.257378
 42
0.000000
  0
VERTEX
  8
0
 10
393.500000
 20
214.536153
 42
0.000000
  0
VERTEX
  8
0
 10
338.304164
 20
214.213913
 42
-0.000512
  0
VERTEX
  8
0
 10
302.042928
 20
214.039365
 42
-0.008508
  0
VERTEX
  8
0
 10
289.979403
 20
214.198936
 42
-0.022078
  0
VERTEX
  8
0
 10
283.686345
 20
214.667950
 42
-0.168276
  0
VERTEX
  8
0
 10
281.054164
 20
215.945836
 42
-0.182304
  0
VERTEX
  8
0
 10
279.704416
 20
218.930142
 42
-0.010438
  0
VERTEX
  8
0
 10
279.261433
 20
229.171646
 42
-0.005290
  0
VERTEX
  8
0
 10
279.035470
 20
248.365369
 42
-0.000298
  0
VERTEX
  8
0
 10
279.000000
 20
307.833333
 42
-0.000695
  0
VERTEX
  8
0
 10
279.047951
 20
342.325482
 42
-0.001146
  0
VERTEX
  8
0
 10
279.195833
 20
371.473958
 42
-0.000075
  0
VERTEX
  8
0
 10
279.392807
 20
397.679281
 42
-0.196921
  0
VERTEX
  8
0
 10
279.666667
 20
398.333333
 42
-0.186654
  0
VERTEX
  8
0
 10
280.275883
 20
398.602720
 42
-0.002009
  0
VERTEX
  8
0
 10
284.930080
 20
398.804167
 42
-0.005989
  0
VERTEX
  8
0
 10
290.346675
 20
398.951853
 42
-0.003820
  0
VERTEX
  8
0
 10
296.648498
 20
399.000000
 42
0.000000
  0
VERTEX
  8
0
 10
312.963662
 20
399.000000
 42
0.000000
  0
SEQEND
  0
POLYLINE
  8
0
 66
1
 70
1
  0
VERTEX
  8
0
 10
353.543154
 20
366.488682
 42
-0.010186
  0
VERTEX
  8
0
 10
361.865695
 20
364.623026
 42
-0.015345
  0
VERTEX
  8
0
 10
369.026789
 20
362.628930
 42
-0.011431
  0
VERTEX
  8
0
 10
374.740042
 20
360.703026
 42
-0.177208
  0
VERTEX
  8
0
 10
376.299690
 20
359.392635
 42
0.088052
  0
VERTEX
  8
0
 10
376.745802
 20
358.859653
 42
0.055590
  0
VERTEX
  8
0
 10
377.422865
 20
358.409087
 42
0.053715
  0
VERTEX
  8
0
 10
378.213849
 20
358.103400
 42
0.065457
  0
VERTEX
  8
0
 10
379.000296
 20
358.000000
 42
-0.188647
  0
VERTEX
  8
0
 10
381.352845
 20
357.079646
 42
-0.003883
  0
VERTEX
  8
0
 10
390.740778
 20
348.270767
 42
-0.004282
  0
VERTEX
  8
0
 10
399.917679
 20
339.373722
 42
-0.163437
  0
VERTEX
  8
0
 10
401.195746
 20
336.847099
 42
0.881025
  0
VERTEX
  8
0
 10
401.303218
 20
336.849030
 42
0.005180
  0
VERTEX
  8
0
 10
401.512741
 20
338.980085
 42
0.005001
  0
VERTEX
  8
0
 10
401.752526
 20
342.062245
 42
0.002438
  0
VERTEX
  8
0
 10
402.000000
 20
346.000000
 42
-0.946925
  0
VERTEX
  8
0
 10
402.246823
 20
345.999166
 42
-0.007385
  0
VERTEX
  8
0
 10
402.487259
 20
339.389062
 42
-0.003103
  0
VERTEX
  8
0
 10
402.687109
 20
326.397599
 42
-0.001269
  0
VERTEX
  8
0
 10
402.804254
 20
308.750000
 42
-0.000844
  0
VERTEX
  8
0
 10
402.882211
 20
276.433287
 42
-0.016508
  0
VERTEX
  8
0
 10
402.560553
 20
266.474226
 42
-0.069137
  0
VERTEX
  8
0
 10
401.650299
 20
262.059868
 42
-0.365422
  0
VERTEX
  8
0
 10
399.675670
 20
260.906356
 42
0.151840
  0
VERTEX
  8
0
 10
399.417931
 20
260.872822
 42
0.239748
  0
VERTEX
  8
0
 10
399.282494
 20
260.701669
 42
0.138153
  0
VERTEX
  8
0
 10
399.305520
 20
260.398296
 42
0.050857
  0
VERTEX
  8
0
 10
399.494769
 20
260.008465
 42
0.088188
  0
VERTEX
  8
0
 10
399.811099
 20
259.654631
 42
0.094717
  0
VERTEX
  8
0
 10
400.222642
 20
259.442199
 42
0.100026
  0
VERTEX
  8
0
 10
400.664610
 20
259.403092
 42
0.111063
  0
VERTEX
  8
0
 10
401.069098
 20
259.542705
 42
-0.078831
  0
VERTEX
  8
0
 10
401.424966
 20
259.691588
 42
-0.156793
  0
VERTEX
  8
0
 10
401.726548
 20
259.669790
 42
-0.184939
  0
VERTEX
  8
0
 10
401.926562
 20
259.483848
 42
-0.114522
  0
VERTEX
  8
0
 10
402.000000
 20
259.167425
 42
-0.202710
  0
VERTEX
  8
0
 10
401.826912
 20
258.758035
 42
-0.053080
  0
VERTEX
  8
0
 10
401.253611
 20
258.308726
 42
-0.045141
  0
VERTEX
  8
0
 10
400.431930
 20
257.892936
 42
-0.033094
  0
VERTEX
  8
0
 10
399.459102
 20
257.579091
 42
0.034329
  0
VERTEX
  8
0
 10
398.522252
 20
257.274300
 42
0.061733
  0
VERTEX
  8
0
 10
397.816554
 20
256.882819
 42
0.096626
  0
VERTEX
  8
0
 10
397.435913
 20
256.472879
 42
0.284654
  0
VERTEX
  8
0
 10
397.435521
 20
256.104330
 42
-0.217931
  0
VERTEX
  8
0
 10
397.491896
 20
255.653573
 42
-0.054984
  0
VERTEX
  8
0
 10
397.186591
 20
254.959852
 42
-0.045885
  0
VERTEX
  8
0
 10
396.624578
 20
254.166179
 42
-0.032438
  0
VERTEX
  8
0
 10
395.861656
 20
253.383647
 42
0.032277
  0
VERTEX
  8
0
 10
394.997943
 20
252.498302
 42
0.022103
  0
VERTEX
  8
0
 10
394.131991
 20
251.392384
 42
0.022340
  0
VERTEX
  8
0
 10
393.389505
 20
250.247726
 42
0.041394
  0
VERTEX
  8
0
 10
392.909988
 20
249.250000
 42
-0.052634
  0
VERTEX
  8
0
 10
392.467639
 20
248.380139
 42
-0.053032
  0
VERTEX
  8
0
 10
391.854374
 20
247.624219
 42
-0.058226
  0
VERTEX
  8
0
 10
391.171471
 20
247.086594
 42
-0.117742
  0
VERTEX
  8
0
 10
390.524751
 20
246.875000
 42
0.015391
  0
VERTEX
  8
0
 10
389.249793
 20
246.730859
 42
0.031521
  0
VERTEX
  8
0
 10
388.265581
 20
246.524806
 42
0.027359
  0
VERTEX
  8
0
 10
387.231120
 20
246.177282
 42
0.009000
  0
VERTEX
  8
0
 10
385.750000
 20
245.556645
 42
-0.297675
  0
VERTEX
  8
0
 10
383.091796
 20
245.996104
 42
-0.179726
  0
VERTEX
  8
0
 10
381.583748
 20
248.945469
 42
-0.027984
  0
VERTEX
  8
0
 10
381.073027
 20
257.300875
 42
-0.001274
  0
VERTEX
  8
0
 10
381.000000
 20
285.968615
 42
0.000000
  0
VERTEX
  8
0
 10
381.000000
 20
326.000000
 42
0.000000
  0
VERTEX
  8
0
 10
360.000000
 20
326.000000
 42
0.000000
  0
VERTEX
  8
0
 10
339.000000
 20
326.000000
 42
0.000000
  0
VERTEX
  8
0
 10
339.000000
 20
287.071429
 42
-0.001087
  0
VERTEX
  8
0
 10
338.951677
 20
264.852067
 42
-0.008608
  0
VERTEX
  8
0
 10
338.729817
 20
254.565855
 42
-0.012697
  0
VERTEX
  8
0
 10
338.341518
 20
248.523389
 42
-0.175734
  0
VERTEX
  8
0
 10
337.428571
 20
246.571429
 42
-0.173444
  0
VERTEX
  8
0
 10
334.577393
 20
245.222429
 42
-0.024619
  0
VERTEX
  8
0
 10
328.000000
 20
244.898372
 42
-0.024619
  0
VERTEX
  8
0
 10
321.422607
 20
245.222429
 42
-0.173444
  0
VERTEX
  8
0
 10
318.571429
 20
246.571429
 42
-0.184750
  0
VERTEX
  8
0
 10
317.622477
 20
248.696295
 42
-0.007009
  0
VERTEX
  8
0
 10
317.263668
 20
257.524942
 42
-0.005961
  0
VERTEX
  8
0
 10
317.045897
 20
272.358229
 42
-0.000690
  0
VERTEX
  8
0
 10
317.000000
 20
305.630446
 42
-0.001135
  0
VERTEX
  8
0
 10
317.057420
 20
330.933977
 42
-0.003261
  0
VERTEX
  8
0
 10
317.251661
 20
348.495110
 42
-0.000715
  0
VERTEX
  8
0
 10
317.512910
 20
362.234919
 42
-0.580533
  0
VERTEX
  8
0
 10
318.000000
 20
362.500000
 42
0.067256
  0
VERTEX
  8
0
 10
318.382830
 20
362.329376
 42
0.140621
  0
VERTEX
  8
0
 10
318.706250
 20
362.327582
 42
0.190840
  0
VERTEX
  8
0
 10
318.918968
 20
362.489631
 42
0.136498
  0
VERTEX
  8
0
 10
319.000000
 20
362.780923
 42
-0.290495
  0
VERTEX
  8
0
 10
319.416370
 20
363.437104
 42
-0.019428
  0
VERTEX
  8
0
 10
321.561010
 20
364.346603
 42
-0.018100
  0
VERTEX
  8
0
 10
324.817338
 20
365.447606
 42
-0.005596
  0
VERTEX
  8
0
 10
329.793878
 20
366.871403
 42
-0.051525
  0
VERTEX
  8
0
 10
334.281428
 20
367.616373
 42
-0.019418
  0
VERTEX
  8
0
 10
340.652680
 20
367.761140
 42
-0.019368
  0
VERTEX
  8
0
 10
347.472250
 20
367.386744
 42
-0.026650
  0
SEQEND
  0
POLYLINE
  8
0
 66
1
 70
1
  0
VERTEX
  8
0
 10
400.000000
 20
254.687091
 42
-0.195042
  0
VERTEX
  8
0
 10
399.919179
 20
254.487785
 42
-0.003123
  0
VERTEX
  8
0
 10
399.049905
 20
253.603329
 42
-0.007681
  0
VERTEX
  8
0
 10
398.005295
 20
252.585433
 42
-0.004955
  0
VERTEX
  8
0
 10
396.765633
 20
251.437091
 42
-0.001536
  0
VERTEX
  8
0
 10
394.884280
 20
249.739172
 42
-0.099006
  0
VERTEX
  8
0
 10
394.506226
 20
249.515754
 42
-0.745167
  0
VERTEX
  8
0
 10
394.434594
 20
249.614750
 42
-0.004123
  0
VERTEX
  8
0
 10
395.515633
 20
251.000000
 42
-0.017412
  0
VERTEX
  8
0
 10
397.177662
 20
252.950410
 42
-0.035540
  0
VERTEX
  8
0
 10
398.635984
 20
254.334222
 42
-0.071069
  0
VERTEX
  8
0
 10
399.624232
 20
254.935020
 42
-0.538259
  0
SEQEND
  0
POLYLINE
  8
0
 66
1
 70
1
  0
VERTEX
  8
0
 10
149.158947
 20
176.500000
 42
-0.000501
  0
VERTEX
  8
0
 10
150.987576
 20
168.012516
 42
-0.000795
  0
VERTEX
  8
0
 10
152.534260
 20
160.742188
 42
-0.000158
  0
VERTEX
  8
0
 10
153.884811
 20
154.333780
 42
-0.038864
  0
VERTEX
  8
0
 10
153.960956
 20
153.750000
 42
-0.303951
  0
VERTEX
  8
0
 10
153.787898
 20
153.460077
 42
-0.047256
  0
VERTEX
  8
0
 10
153.127076
 20
153.220313
 42
-0.039256
  0
VERTEX
  8
0
 10
152.188540
 20
153.054233
 42
-0.024172
  0
VERTEX
  8
0
 10
151.067388
 20
153.000000
 42
-0.055775
  0
VERTEX
  8
0
 10
149.214047
 20
153.207386
 42
-0.183155
  0
VERTEX
  8
0
 10
148.204741
 20
153.876127
 42
-0.092630
  0
VERTEX
  8
0
 10
147.513661
 20
155.349405
 42
-0.008724
  0
VERTEX
  8
0
 10
146.573893
 20
159.250000
 42
0.050103
  0
VERTEX
  8
0
 10
146.066641
 20
160.785318
 42
0.164355
  0
VERTEX
  8
0
 10
145.352186
 20
161.559932
 42
0.109169
  0
VERTEX
  8
0
 10
144.125876
 20
161.915888
 42
0.016258
  0
VERTEX
  8
0
 10
141.539797
 20
162.000000
 42
0.016693
  0
VERTEX
  8
0
 10
138.701541
 20
161.905213
 42
0.154488
  0
VERTEX
  8
0
 10
137.571352
 20
161.462531
 42
0.157883
  0
VERTEX
  8
0
 10
136.913882
 20
160.454059
 42
0.017651
  0
VERTEX
  8
0
 10
136.282841
 20
157.750000
 42
-0.019701
  0
VERTEX
  8
0
 10
135.702613
 20
155.308935
 42
-0.111844
  0
VERTEX
  8
0
 10
135.071535
 20
154.141359
 42
-0.147143
  0
VERTEX
  8
0
 10
134.084865
 20
153.522320
 42
-0.042703
  0
VERTEX
  8
0
 10
132.299207
 20
153.192251
 42
0.000000
  0
VERTEX
  8
0
 10
129.150432
 20
152.884503
 42
0.000000
  0
VERTEX
  8
0
 10
130.482587
 20
158.692251
 42
0.001867
  0
VERTEX
  8
0
 10
131.223059
 20
161.976693
 42
0.000368
  0
VERTEX
  8
0
 10
132.525405
 20
167.876171
 42
0.000390
  0
VERTEX
  8
0
 10
134.032244
 20
174.751475
 42
0.000362
  0
VERTEX
  8
0
 10
135.566175
 20
181.801098
 42
-0.001946
  0
VERTEX
  8
0
 10
138.076848
 20
193.166166
 42
-0.033287
  0
VERTEX
  8
0
 10
139.160963
 20
196.827654
 42
-0.137988
  0
VERTEX
  8
0
 10
140.270432
 20
198.353623
 42
-0.199049
  0
VERTEX
  8
0
 10
141.856796
 20
198.801098
 42
-0.204201
  0
VERTEX
  8
0
 10
143.487524
 20
197.865472
 42
-0.082841
  0
VERTEX
  8
0
 10
144.698359
 20
195.549505
 42
-0.024149
  0
VERTEX
  8
0
 10
146.052945
 20
190.619451
 42
-0.001662
  0
SEQEND
  0
POLYLINE
  8
0
 66
1
 70
1
  0
VERTEX
  8
0
 10
299.961230
 20
195.072442
 42
-0.089804
  0
VERTEX
  8
0
 10
300.532562
 20
193.302688
 42
-0.123413
  0
VERTEX
  8
0
 10
300.345717
 20
191.647995
 42
-0.127588
  0
VERTEX
  8
0
 10
299.410741
 20
190.315449
 42
-0.099787
  0
VERTEX
  8
0
 10
297.859631
 20
189.455449
 42
-0.172134
  0
VERTEX
  8
0
 10
295.429220
 20
189.537131
 42
-0.169875
  0
VERTEX
  8
0
 10
293.577737
 20
191.131953
 42
-0.165575
  0
VERTEX
  8
0
 10
293.096432
 20
193.568518
 42
-0.164523
  0
VERTEX
  8
0
 10
294.200000
 20
195.800000
 42
-0.108159
  0
VERTEX
  8
0
 10
295.660288
 20
196.735830
 42
-0.120594
  0
VERTEX
  8
0
 10
297.319236
 20
196.926461
 42
-0.123293
  0
VERTEX
  8
0
 10
298.851223
 20
196.330554
 42
-0.116291
  0
SEQEND
  0
POLYLINE
  8
0
 66
1
 70
1
  0
VERTEX
  8
0
 10
329.961230
 20
195.072442
 42
-0.089804
  0
VERTEX
  8
0
 10
330.532562
 20
193.302688
 42
-0.123413
  0
VERTEX
  8
0
 10
330.345717
 20
191.647995
 42
-0.127588
  0
VERTEX
  8
0
 10
329.410741
 20
190.315449
 42
-0.099787
  0
VERTEX
  8
0
 10
327.859631
 20
189.455449
 42
-0.172134
  0
VERTEX
  8
0
 10
325.429220
 20
189.537131
 42
-0.169875
  0
VERTEX
  8
0
 10
323.577737
 20
191.131953
 42
-0.165575
  0
VERTEX
  8
0
 10
323.096432
 20
193.568518
 42
-0.164523
  0
VERTEX
  8
0
 10
324.200000
 20
195.800000
 42
-0.108159
  0
VERTEX
  8
0
 10
325.660288
 20
196.735830
 42
-0.120594
  0
VERTEX
  8
0
 10
327.319236
 20
196.926461
 42
-0.123293
  0
VERTEX
  8
0
 10
328.851223
 20
196.330554
 42
-0.116291
  0
SEQEND
  0
POLYLINE
  8
0
 66
1
 70
1
  0
VERTEX
  8
0
 10
189.000000
 20
188.000000
 42
0.020272
  0
VERTEX
  8
0
 10
189.076585
 20
186.111825
 42
0.069535
  0
VERTEX
  8
0
 10
189.343750
 20
184.916667
 42
0.128937
  0
VERTEX
  8
0
 10
189.815157
 20
184.249641
 42
0.176579
  0
VERTEX
  8
0
 10
190.500000
 20
184.000000
 42
-0.131307
  0
VERTEX
  8
0
 10
191.079202
 20
183.845225
 42
-0.103496
  0
VERTEX
  8
0
 10
191.565397
 20
183.411436
 42
-0.089187
  0
VERTEX
  8
0
 10
191.889078
 20
182.755060
 42
-0.070174
  0
VERTEX
  8
0
 10
192.000000
 20
181.968615
 42
-0.068006
  0
VERTEX
  8
0
 10
191.888006
 20
181.149006
 42
-0.062710
  0
VERTEX
  8
0
 10
191.559375
 20
180.364866
 42
-0.066680
  0
VERTEX
  8
0
 10
191.073641
 20
179.732868
 42
-0.104363
  0
VERTEX
  8
0
 10
190.500000
 20
179.361626
 42
0.233062
  0
VERTEX
  8
0
 10
189.718041
 20
178.516238
 42
0.044424
  0
VERTEX
  8
0
 10
189.290247
 20
176.402631
 42
0.023567
  0
VERTEX
  8
0
 10
189.057154
 20
172.753366
 42
0.004165
  0
VERTEX
  8
0
 10
189.000000
 20
165.893011
 42
0.000000
  0
VERTEX
  8
0
 10
189.000000
 20
153.000000
 42
0.000000
  0
VERTEX
  8
0
 10
186.000000
 20
153.000000
 42
0.000000
  0
VERTEX
  8
0
 10
183.000000
 20
153.000000
 42
0.000000
  0
VERTEX
  8
0
 10
183.000000
 20
166.000000
 42
0.003680
  0
VERTEX
  8
0
 10
182.947808
 20
173.090431
 42
0.025044
  0
VERTEX
  8
0
 10
182.721154
 20
176.583333
 42
0.056711
  0
VERTEX
  8
0
 10
182.289342
 20
178.442821
 42
0.317386
  0
VERTEX
  8
0
 10
181.500000
 20
179.000000
 42
-0.140575
  0
VERTEX
  8
0
 10
180.880020
 20
179.177821
 42
-0.118484
  0
VERTEX
  8
0
 10
180.400000
 20
179.666667
 42
-0.088208
  0
VERTEX
  8
0
 10
180.098630
 20
180.456621
 42
-0.047160
  0
VERTEX
  8
0
 10
180.000000
 20
181.500000
 42
-0.047160
  0
VERTEX
  8
0
 10
180.098630
 20
182.543379
 42
-0.088208
  0
VERTEX
  8
0
 10
180.400000
 20
183.333333
 42
-0.118484
  0
VERTEX
  8
0
 10
180.880020
 20
183.822179
 42
-0.140575
  0
VERTEX
  8
0
 10
181.500000
 20
184.000000
 42
0.176579
  0
VERTEX
  8
0
 10
182.184843
 20
184.249641
 42
0.128937
  0
VERTEX
  8
0
 10
182.656250
 20
184.916667
 42
0.069535
  0
VERTEX
  8
0
 10
182.923415
 20
186.111825
 42
0.020272
  0
VERTEX
  8
0
 10
183.000000
 20
188.000000
 42
-0.015744
  0
VERTEX
  8
0
 10
183.076799
 20
190.438365
 42
-0.146160
  0
VERTEX
  8
0
 10
183.437500
 20
191.416667
 42
-0.200505
  0
VERTEX
  8
0
 10
184.224263
 20
191.879267
 42
-0.033956
  0
VERTEX
  8
0
 10
186.000000
 20
192.000000
 42
-0.033956
  0
VERTEX
  8
0
 10
187.775737
 20
191.879267
 42
-0.200505
  0
VERTEX
  8
0
 10
188.562500
 20
191.416667
 42
-0.146160
  0
VERTEX
  8
0
 10
188.923201
 20
190.438365
 42
-0.015744
  0
SEQEND
  0
POLYLINE
  8
0
 66
1
 70
1
  0
VERTEX
  8
0
 10
287.000000
 20
188.000000
 42
0.020272
  0
VERTEX
  8
0
 10
287.076585
 20
186.111825
 42
0.069535
  0
VERTEX
  8
0
 10
287.343750
 20
184.916667
 42
0.128937
  0
VERTEX
  8
0
 10
287.815157
 20
184.249641
 42
0.176579
  0
VERTEX
  8
0
 10
288.500000
 20
184.000000
 42
-0.140575
  0
VERTEX
  8
0
 10
289.119980
 20
183.822179
 42
-0.118484
  0
VERTEX
  8
0
 10
289.600000
 20
183.333333
 42
-0.088208
  0
VERTEX
  8
0
 10
289.901370
 20
182.543379
 42
-0.047160
  0
VERTEX
  8
0
 10
290.000000
 20
181.500000
 42
-0.047160
  0
VERTEX
  8
0
 10
289.901370
 20
180.456621
 42
-0.088208
  0
VERTEX
  8
0
 10
289.600000
 20
179.666667
 42
-0.118484
  0
VERTEX
  8
0
 10
289.119980
 20
179.177821
 42
-0.140575
  0
VERTEX
  8
0
 10
288.500000
 20
179.000000
 42
0.317386
  0
VERTEX
  8
0
 10
287.710658
 20
178.442821
 42
0.056711
  0
VERTEX
  8
0
 10
287.278846
 20
176.583333
 42
0.025044
  0
VERTEX
  8
0
 10
287.052192
 20
173.090431
 42
0.003680
  0
VERTEX
  8
0
 10
287.000000
 20
166.000000
 42
0.000000
  0
VERTEX
  8
0
 10
287.000000
 20
153.000000
 42
0.000000
  0
VERTEX
  8
0
 10
284.000000
 20
153.000000
 42
0.000000
  0
VERTEX
  8
0
 10
281.000000
 20
153.000000
 42
0.000000
  0
VERTEX
  8
0
 10
281.000000
 20
166.000000
 42
0.003680
  0
VERTEX
  8
0
 10
280.947808
 20
173.090431
 42
0.025044
  0
VERTEX
  8
0
 10
280.721154
 20
176.583333
 42
0.056711
  0
VERTEX
  8
0
 10
280.289342
 20
178.442821
 42
0.317386
  0
VERTEX
  8
0
 10
279.500000
 20
179.000000
 42
-0.140575
  0
VERTEX
  8
0
 10
278.880020
 20
179.177821
 42
-0.118484
  0
VERTEX
  8
0
 10
278.400000
 20
179.666667
 42
-0.088208
  0
VERTEX
  8
0
 10
278.098630
 20
180.456621
 42
-0.047160
  0
VERTEX
  8
0
 10
278.000000
 20
181.500000
 42
-0.047160
  0
VERTEX
  8
0
 10
278.098630
 20
182.543379
 42
-0.088208
  0
VERTEX
  8
0
 10
278.400000
 20
183.333333
 42
-0.118484
  0
VERTEX
  8
0
 10
278.880020
 20
183.822179
 42
-0.140575
  0
VERTEX
  8
0
 10
279.500000
 20
184.000000
 42
0.176579
  0
VERTEX
  8
0
 10
280.184843
 20
184.249641
 42
0.128937
  0
VERTEX
  8
0
 10
280.656250
 20
184.916667
 42
0.069535
  0
VERTEX
  8
0
 10
280.923415
 20
186.111825
 42
0.020272
  0
VERTEX
  8
0
 10
281.000000
 20
188.000000
 42
-0.015744
  0
VERTEX
  8
0
 10
281.076799
 20
190.438365
 42
-0.146160
  0
VERTEX
  8
0
 10
281.437500
 20
191.416667
 42
-0.200505
  0
VERTEX
  8
0
 10
282.224263
 20
191.879267
 42
-0.033956
  0
VERTEX
  8
0
 10
284.000000
 20
192.000000
 42
-0.033956
  0
VERTEX
  8
0
 10
285.775737
 20
191.879267
 42
-0.200505
  0
VERTEX
  8
0
 10
286.562500
 20
191.416667
 42
-0.146160
  0
VERTEX
  8
0
 10
286.923201
 20
190.438365
 42
-0.015744
  0
SEQEND
  0
POLYLINE
  8
0
 66
1
 70
1
  0
VERTEX
  8
0
 10
315.750000
 20
184.369714
 42
-0.066863
  0
VERTEX
  8
0
 10
316.790743
 20
183.935371
 42
-0.110811
  0
VERTEX
  8
0
 10
317.484119
 20
183.289928
 42
-0.101269
  0
VERTEX
  8
0
 10
317.873555
 20
182.365255
 42
-0.049231
  0
VERTEX
  8
0
 10
318.000000
 20
181.084169
 42
-0.035937
  0
VERTEX
  8
0
 10
317.889474
 20
179.548382
 42
-0.211967
  0
VERTEX
  8
0
 10
317.470005
 20
178.881448
 42
-0.159671
  0
VERTEX
  8
0
 10
316.611849
 20
178.639376
 42
-0.018624
  0
VERTEX
  8
0
 10
314.598463
 20
178.798712
 42
0.025478
  0
VERTEX
  8
0
 10
312.765186
 20
178.918546
 42
0.109829
  0
VERTEX
  8
0
 10
311.701941
 20
178.698080
 42
0.149464
  0
VERTEX
  8
0
 10
311.008801
 20
178.090191
 42
0.061770
  0
VERTEX
  8
0
 10
310.482417
 20
176.944600
 42
0.105141
  0
VERTEX
  8
0
 10
310.351000
 20
175.605410
 42
0.105930
  0
VERTEX
  8
0
 10
310.776718
 20
174.332568
 42
0.059994
  0
VERTEX
  8
0
 10
311.929245
 20
172.828027
 42
0.013629
  0
VERTEX
  8
0
 10
314.240286
 20
170.587025
 42
-0.028399
  0
VERTEX
  8
0
 10
317.539512
 20
167.193143
 42
-0.086496
  0
VERTEX
  8
0
 10
319.191809
 20
164.448603
 42
-0.109660
  0
VERTEX
  8
0
 10
319.610210
 20
161.696997
 42
-0.062890
  0
VERTEX
  8
0
 10
318.962880
 20
158.387525
 42
-0.147196
  0
VERTEX
  8
0
 10
316.273894
 20
154.548910
 42
-0.119251
  0
VERTEX
  8
0
 10
311.683784
 20
152.443484
 42
-0.170950
  0
VERTEX
  8
0
 10
307.708540
 20
153.027833
 42
-0.278366
  0
VERTEX
  8
0
 10
305.999344
 20
155.858408
 42
-0.045669
  0
VERTEX
  8
0
 10
306.134754
 20
157.341881
 42
-0.196161
  0
VERTEX
  8
0
 10
306.603694
 20
158.073968
 42
-0.135921
  0
VERTEX
  8
0
 10
307.571469
 20
158.420126
 42
-0.018331
  0
VERTEX
  8
0
 10
309.749344
 20
158.500000
 42
0.020970
  0
VERTEX
  8
0
 10
311.844134
 20
158.587893
 42
0.118460
  0
VERTEX
  8
0
 10
312.898278
 20
158.936860
 42
0.170501
  0
VERTEX
  8
0
 10
313.479870
 20
159.659704
 42
0.055925
  0
VERTEX
  8
0
 10
313.793275
 20
161.010117
 42
0.098165
  0
VERTEX
  8
0
 10
313.679232
 20
162.443540
 42
0.070331
  0
VERTEX
  8
0
 10
313.028521
 20
163.918351
 42
0.047184
  0
VERTEX
  8
0
 10
311.727050
 20
165.629444
 42
0.016220
  0
VERTEX
  8
0
 10
309.543275
 20
167.850253
 42
-0.016065
  0
VERTEX
  8
0
 10
307.133868
 20
170.299003
 42
-0.057887
  0
VERTEX
  8
0
 10
305.846526
 20
172.066374
 42
-0.079065
  0
VERTEX
  8
0
 10
305.211357
 20
173.774105
 42
-0.049611
  0
VERTEX
  8
0
 10
305.000000
 20
175.899006
 42
-0.047737
  0
VERTEX
  8
0
 10
305.256671
 20
178.581272
 42
-0.081296
  0
VERTEX
  8
0
 10
306.033510
 20
180.689522
 42
-0.084220
  0
VERTEX
  8
0
 10
307.418342
 20
182.390449
 42
-0.054788
  0
VERTEX
  8
0
 10
309.500000
 20
183.845268
 42
-0.030191
  0
VERTEX
  8
0
 10
311.093088
 20
184.595538
 42
-0.074151
  0
VERTEX
  8
0
 10
312.349546
 20
184.892045
 42
-0.066145
  0
VERTEX
  8
0
 10
313.722501
 20
184.825568
 42
-0.020342
  0
SEQEND
  0
POLYLINE
  8
0
 66
1
 70
1
  0
VERTEX
  8
0
 10
370.993677
 20
182.250000
 42
-0.062007
  0
VERTEX
  8
0
 10
370.818867
 20
180.871682
 42
-0.085909
  0
VERTEX
  8
0
 10
370.310310
 20
179.737178
 42
-0.076298
  0
VERTEX
  8
0
 10
369.396772
 20
178.746894
 42
-0.039033
  0
VERTEX
  8
0
 10
367.993677
 20
177.796510
 42
0.000000
  0
VERTEX
  8
0
 10
365.000000
 20
176.093021
 42
0.000000
  0
VERTEX
  8
0
 10
365.000000
 20
164.546510
 42
0.000000
  0
VERTEX
  8
0
 10
365.000000
 20
153.000000
 42
0.000000
  0
VERTEX
  8
0
 10
362.000000
 20
153.000000
 42
0.000000
  0
VERTEX
  8
0
 10
359.000000
 20
153.000000
 42
0.000000
  0
VERTEX
  8
0
 10
359.000000
 20
168.500000
 42
0.000000
  0
VERTEX
  8
0
 10
359.000000
 20
184.000000
 42
0.000000
  0
VERTEX
  8
0
 10
362.000000
 20
184.000000
 42
-0.032003
  0
VERTEX
  8
0
 10
363.419875
 20
183.909027
 42
-0.099803
  0
VERTEX
  8
0
 10
364.322716
 20
183.602891
 42
-0.150252
  0
VERTEX
  8
0
 10
364.827476
 20
183.057429
 42
-0.110355
  0
VERTEX
  8
0
 10
365.015313
 20
182.250000
 42
0.030716
  0
VERTEX
  8
0
 10
365.062594
 20
181.577225
 42
0.180463
  0
VERTEX
  8
0
 10
365.225965
 20
181.269944
 42
0.361462
  0
VERTEX
  8
0
 10
365.463391
 20
181.262497
 42
0.078521
  0
VERTEX
  8
0
 10
365.765313
 20
181.585463
 42
-0.079857
  0
VERTEX
  8
0
 10
366.522167
 20
182.390772
 42
-0.015152
  0
VERTEX
  8
0
 10
368.158583
 20
183.575726
 42
-0.013748
  0
VERTEX
  8
0
 10
369.859294
 20
184.663269
 42
-0.105488
  0
VERTEX
  8
0
 10
370.750000
 20
184.969591
 42
-0.413971
  0
VERTEX
  8
0
 10
370.849607
 20
184.891654
 42
-0.008127
  0
VERTEX
  8
0
 10
370.924705
 20
184.183255
 42
-0.014387
  0
VERTEX
  8
0
 10
370.978145
 20
183.302340
 42
-0.008529
  0
SEQEND
  0
POLYLINE
  8
0
 66
1
 70
1
  0
VERTEX
  8
0
 10
163.015313
 20
172.250000
 42
0.006690
  0
VERTEX
  8
0
 10
163.082840
 20
167.651324
 42
0.009448
  0
VERTEX
  8
0
 10
163.275162
 20
163.558674
 42
0.006109
  0
VERTEX
  8
0
 10
163.541531
 20
160.153706
 42
0.119223
  0
VERTEX
  8
0
 10
163.878403
 20
159.162508
 42
0.116717
  0
VERTEX
  8
0
 10
164.377647
 20
158.675033
 42
0.060388
  0
VERTEX
  8
0
 10
165.178300
 20
158.317042
 42
0.055085
  0
VERTEX
  8
0
 10
166.137198
 20
158.132856
 42
0.055099
  0
VERTEX
  8
0
 10
167.113090
 20
158.162508
 42
0.151106
  0
VERTEX
  8
0
 10
168.489307
 20
158.811083
 42
0.158671
  0
VERTEX
  8
0
 10
169.226465
 20
160.111395
 42
0.042194
  0
VERTEX
  8
0
 10
169.553130
 20
162.898430
 42
0.002598
  0
VERTEX
  8
0
 10
169.779877
 20
171.250000
 42
0.000000
  0
VERTEX
  8
0
 10
170.059754
 20
184.000000
 42
0.000000
  0
VERTEX
  8
0
 10
173.029877
 20
184.000000
 42
0.000000
  0
VERTEX
  8
0
 10
176.000000
 20
184.000000
 42
0.000000
  0
VERTEX
  8
0
 10
175.985258
 20
171.750000
 42
-0.007321
  0
VERTEX
  8
0
 10
175.899749
 20
166.353643
 42
-0.014008
  0
VERTEX
  8
0
 10
175.646431
 20
162.028308
 42
-0.015387
  0
VERTEX
  8
0
 10
175.258468
 20
158.735640
 42
-0.080228
  0
VERTEX
  8
0
 10
174.705994
 20
157.000000
 42
-0.090717
  0
VERTEX
  8
0
 10
172.936978
 20
154.669216
 42
-0.088123
  0
VERTEX
  8
0
 10
170.440724
 20
153.087300
 42
-0.083530
  0
VERTEX
  8
0
 10
167.432608
 20
152.407114
 42
-0.071140
  0
VERTEX
  8
0
 10
164.187448
 20
152.687984
 42
-0.117263
  0
VERTEX
  8
0
 10
160.628692
 20
154.459312
 42
-0.131618
  0
VERTEX
  8
0
 10
158.430216
 20
157.579742
 42
-0.072035
  0
VERTEX
  8
0
 10
157.302801
 20
162.915927
 42
-0.016067
  0
VERTEX
  8
0
 10
157.001554
 20
172.250000
 42
0.000000
  0
VERTEX
  8
0
 10
157.000000
 20
184.000000
 42
0.000000
  0
VERTEX
  8
0
 10
160.000000
 20
184.000000
 42
0.000000
  0
VERTEX
  8
0
 10
163.000000
 20
184.000000
 42
0.000000
  0
SEQEND
  0
POLYLINE
  8
0
 66
1
 70
1
  0
VERTEX
  8
0
 10
208.928591
 20
183.038217
 42
-0.135684
  0
VERTEX
  8
0
 10
210.873945
 20
181.185106
 42
-0.061591
  0
VERTEX
  8
0
 10
212.309591
 20
177.943592
 42
-0.047653
  0
VERTEX
  8
0
 10
213.202274
 20
173.509494
 42
-0.026526
  0
VERTEX
  8
0
 10
213.480149
 20
168.000000
 42
-0.030163
  0
VERTEX
  8
0
 10
213.112037
 20
162.160369
 42
-0.070113
  0
VERTEX
  8
0
 10
211.973118
 20
157.934509
 42
-0.094470
  0
VERTEX
  8
0
 10
209.991399
 20
154.985192
 42
-0.099850
  0
VERTEX
  8
0
 10
207.097974
 20
153.040582
 42
-0.086654
  0
VERTEX
  8
0
 10
204.070416
 20
152.364122
 42
-0.103257
  0
VERTEX
  8
0
 10
201.186497
 20
152.826088
 42
-0.098132
  0
VERTEX
  8
0
 10
198.619780
 20
154.436220
 42
-0.071324
  0
VERTEX
  8
0
 10
196.514266
 20
157.080278
 42
-0.111338
  0
VERTEX
  8
0
 10
194.548126
 20
163.253812
 42
-0.047438
  0
VERTEX
  8
0
 10
194.620034
 20
171.975388
 42
-0.046247
  0
VERTEX
  8
0
 10
196.211619
 20
180.013446
 42
-0.228971
  0
VERTEX
  8
0
 10
199.228960
 20
183.330706
 42
-0.074967
  0
VERTEX
  8
0
 10
201.265310
 20
183.813680
 42
-0.028349
  0
VERTEX
  8
0
 10
204.196749
 20
183.891489
 42
-0.027945
  0
VERTEX
  8
0
 10
207.084510
 20
183.642469
 42
-0.087599
  0
SEQEND
  0
POLYLINE
  8
0
 66
1
 70
1
  0
VERTEX
  8
0
 10
225.000000
 20
182.345012
 42
0.025779
  0
VERTEX
  8
0
 10
225.049016
 20
181.394959
 42
0.384330
  0
VERTEX
  8
0
 10
225.276247
 20
181.190025
 42
0.177905
  0
VERTEX
  8
0
 10
225.681380
 20
181.338887
 42
0.007828
  0
VERTEX
  8
0
 10
226.828741
 20
182.345012
 42
-0.053456
  0
VERTEX
  8
0
 10
227.700273
 20
182.978797
 42
-0.036074
  0
VERTEX
  8
0
 10
228.808404
 20
183.513847
 42
-0.036291
  0
VERTEX
  8
0
 10
229.969570
 20
183.879613
 42
-0.058218
  0
VERTEX
  8
0
 10
231.000000
 20
184.000000
 42
-0.058218
  0
VERTEX
  8
0
 10
232.030430
 20
183.879613
 42
-0.036291
  0
VERTEX
  8
0
 10
233.191596
 20
183.513847
 42
-0.036074
  0
VERTEX
  8
0
 10
234.299727
 20
182.978797
 42
-0.053456
  0
VERTEX
  8
0
 10
235.171259
 20
182.345012
 42
0.025101
  0
VERTEX
  8
0
 10
236.304177
 20
181.418754
 42
0.160144
  0
VERTEX
  8
0
 10
237.000000
 20
181.190025
 42
0.160144
  0
VERTEX
  8
0
 10
237.695823
 20
181.418754
 42
0.025101
  0
VERTEX
  8
0
 10
238.828741
 20
182.345012
 42
-0.062612
  0
VERTEX
  8
0
 10
239.735277
 20
182.979286
 42
-0.036253
  0
VERTEX
  8
0
 10
240.955279
 20
183.513847
 42
-0.035668
  0
VERTEX
  8
0
 10
242.277632
 20
183.878662
 42
-0.049511
  0
VERTEX
  8
0
 10
243.500000
 20
184.000000
 42
-0.106957
  0
VERTEX
  8
0
 10
246.981600
 20
183.246619
 42
-0.198135
  0
VERTEX
  8
0
 10
248.928186
 20
181.171239
 42
-0.081258
  0
VERTEX
  8
0
 10
249.811218
 20
176.815634
 42
-0.009466
  0
VERTEX
  8
0
 10
250.000000
 20
166.845012
 42
0.000000
  0
VERTEX
  8
0
 10
250.000000
 20
153.000000
 42
0.000000
  0
VERTEX
  8
0
 10
247.029877
 20
153.000000
 42
0.000000
  0
VERTEX
  8
0
 10
244.059754
 20
153.000000
 42
0.000000
  0
VERTEX
  8
0
 10
243.779877
 20
165.750000
 42
0.000000
  0
VERTEX
  8
0
 10
243.500000
 20
178.500000
 42
0.000000
  0
VERTEX
  8
0
 10
241.000000
 20
178.500000
 42
0.000000
  0
VERTEX
  8
0
 10
238.500000
 20
178.500000
 42
0.000000
  0
VERTEX
  8
0
 10
238.220123
 20
165.750000
 42
0.000000
  0
VERTEX
  8
0
 10
237.940246
 20
153.000000
 42
0.000000
  0
VERTEX
  8
0
 10
234.970123
 20
153.000000
 42
0.000000
  0
VERTEX
  8
0
 10
232.000000
 20
153.000000
 42
0.000000
  0
VERTEX
  8
0
 10
231.986345
 20
163.750000
 42
0.006169
  0
VERTEX
  8
0
 10
231.864261
 20
172.720782
 42
0.056434
  0
VERTEX
  8
0
 10
231.325621
 20
176.579465
 42
0.179614
  0
VERTEX
  8
0
 10
230.133079
 20
178.297107
 42
0.182989
  0
VERTEX
  8
0
 10
228.119297
 20
178.803810
 42
0.000000
  0
VERTEX
  8
0
 10
225.500000
 20
178.500000
 42
0.000000
  0
VERTEX
  8
0
 10
225.220123
 20
165.750000
 42
0.000000
  0
VERTEX
  8
0
 10
224.940246
 20
153.000000
 42
0.000000
  0
VERTEX
  8
0
 10
221.970123
 20
153.000000
 42
0.000000
  0
VERTEX
  8
0
 10
219.000000
 20
153.000000
 42
0.000000
  0
VERTEX
  8
0
 10
219.000000
 20
168.500000
 42
0.000000
  0
VERTEX
  8
0
 10
219.000000
 20
184.000000
 42
0.000000
  0
VERTEX
  8
0
 10
222.000000
 20
184.000000
 42
-0.032345
  0
VERTEX
  8
0
 10
223.387407
 20
183.910155
 42
-0.093971
  0
VERTEX
  8
0
 10
224.296824
 20
183.612084
 42
-0.144075
  0
VERTEX
  8
0
 10
224.811416
 20
183.092423
 42
-0.124212
  0
SEQEND
  0
POLYLINE
  8
0
 66
1
 70
1
  0
VERTEX
  8
0
 10
266.800000
 20
182.800000
 42
0.018208
  0
VERTEX
  8
0
 10
267.421376
 20
182.222304
 42
0.180052
  0
VERTEX
  8
0
 10
267.750000
 20
182.100000
 42
0.354955
  0
VERTEX
  8
0
 10
267.943785
 20
182.257401
 42
0.051663
  0
VERTEX
  8
0
 10
268.000000
 20
182.800000
 42
-0.224732
  0
VERTEX
  8
0
 10
268.218920
 20
183.262471
 42
-0.076663
  0
VERTEX
  8
0
 10
268.875000
 20
183.650000
 42
-0.057675
  0
VERTEX
  8
0
 10
269.843172
 20
183.913040
 42
-0.037533
  0
VERTEX
  8
0
 10
271.000000
 20
184.000000
 42
0.000000
  0
VERTEX
  8
0
 10
274.000000
 20
184.000000
 42
0.000000
  0
VERTEX
  8
0
 10
274.000000
 20
168.500000
 42
0.000000
  0
VERTEX
  8
0
 10
274.000000
 20
153.000000
 42
0.000000
  0
VERTEX
  8
0
 10
271.000000
 20
153.000000
 42
-0.032372
  0
VERTEX
  8
0
 10
269.850795
 20
153.074483
 42
-0.049843
  0
VERTEX
  8
0
 10
268.881250
 20
153.300522
 42
-0.064268
  0
VERTEX
  8
0
 10
268.210955
 20
153.630125
 42
-0.251465
  0
VERTEX
  8
0
 10
268.000000
 20
154.023053
 42
0.351116
  0
VERTEX
  8
0
 10
267.796370
 20
154.277279
 42
0.113892
  0
VERTEX
  8
0
 10
267.280008
 20
154.273827
 42
0.058886
  0
VERTEX
  8
0
 10
266.490014
 20
153.984448
 42
0.027827
  0
VERTEX
  8
0
 10
265.548963
 20
153.440125
 42
-0.157044
  0
VERTEX
  8
0
 10
261.826575
 20
152.415947
 42
-0.205528
  0
VERTEX
  8
0
 10
258.680700
 20
153.929594
 42
-0.118767
  0
VERTEX
  8
0
 10
256.423130
 20
158.260657
 42
-0.042495
  0
VERTEX
  8
0
 10
255.311869
 20
165.184618
 42
-0.027874
  0
VERTEX
  8
0
 10
255.208603
 20
170.776200
 42
-0.037706
  0
VERTEX
  8
0
 10
255.776608
 20
175.797374
 42
-0.043407
  0
VERTEX
  8
0
 10
256.921971
 20
179.860238
 42
-0.106363
  0
VERTEX
  8
0
 10
258.597855
 20
182.454998
 42
-0.118641
  0
VERTEX
  8
0
 10
260.329356
 20
183.514735
 42
-0.067855
  0
VERTEX
  8
0
 10
262.754550
 20
183.949888
 42
-0.068982
  0
VERTEX
  8
0
 10
265.153834
 20
183.719555
 42
-0.138869
  0
SEQEND
  0
POLYLINE
  8
0
 66
1
 70
1
  0
VERTEX
  8
0
 10
300.000000
 20
168.500000
 42
0.000000
  0
VERTEX
  8
0
 10
300.000000
 20
153.000000
 42
0.000000
  0
VERTEX
  8
0
 10
297.000000
 20
153.000000
 42
0.000000
  0
VERTEX
  8
0
 10
294.000000
 20
153.000000
 42
0.000000
  0
VERTEX
  8
0
 10
294.000000
 20
168.500000
 42
0.000000
  0
VERTEX
  8
0
 10
294.000000
 20
184.000000
 42
0.000000
  0
VERTEX
  8
0
 10
297.000000
 20
184.000000
 42
0.000000
  0
VERTEX
  8
0
 10
300.000000
 20
184.000000
 42
0.000000
  0
SEQEND
  0
POLYLINE
  8
0
 66
1
 70
1
  0
VERTEX
  8
0
 10
330.000000
 20
168.500000
 42
0.000000
  0
VERTEX
  8
0
 10
330.000000
 20
153.000000
 42
0.000000
  0
VERTEX
  8
0
 10
327.000000
 20
153.000000
 42
0.000000
  0
VERTEX
  8
0
 10
324.000000
 20
153.000000
 42
0.000000
  0
VERTEX
  8
0
 10
324.000000
 20
168.500000
 42
0.000000
  0
VERTEX
  8
0
 10
324.000000
 20
184.000000
 42
0.000000
  0
VERTEX
  8
0
 10
327.000000
 20
184.000000
 42
0.000000
  0
VERTEX
  8
0
 10
330.000000
 20
184.000000
 42
0.000000
  0
SEQEND
  0
POLYLINE
  8
0
 66
1
 70
1
  0
VERTEX
  8
0
 10
349.935067
 20
182.064933
 42
-0.082376
  0
VERTEX
  8
0
 10
351.437485
 20
179.964958
 42
-0.034570
  0
VERTEX
  8
0
 10
352.754798
 20
176.737548
 42
-0.033827
  0
VERTEX
  8
0
 10
353.681476
 20
173.120212
 42
-0.045313
  0
VERTEX
  8
0
 10
353.994423
 20
169.750000
 42
-0.060285
  0
VERTEX
  8
0
 10
353.799199
 20
168.108813
 42
-0.237158
  0
VERTEX
  8
0
 10
353.158877
 20
167.355555
 42
-0.094395
  0
VERTEX
  8
0
 10
351.746744
 20
167.051146
 42
-0.006022
  0
VERTEX
  8
0
 10
347.500000
 20
167.000000
 42
0.006779
  0
VERTEX
  8
0
 10
343.518181
 20
166.946015
 42
0.076846
  0
VERTEX
  8
0
 10
341.972744
 20
166.663987
 42
0.212380
  0
VERTEX
  8
0
 10
341.262863
 20
165.999425
 42
0.101821
  0
VERTEX
  8
0
 10
341.013655
 20
164.750000
 42
0.034827
  0
VERTEX
  8
0
 10
341.210254
 20
162.157720
 42
0.053790
  0
VERTEX
  8
0
 10
341.771689
 20
159.984351
 42
0.067194
  0
VERTEX
  8
0
 10
342.630319
 20
158.391738
 42
0.144937
  0
VERTEX
  8
0
 10
343.725290
 20
157.551922
 42
0.148746
  0
VERTEX
  8
0
 10
345.182906
 20
157.448138
 42
0.118458
  0
VERTEX
  8
0
 10
346.602407
 20
158.151537
 42
0.108963
  0
VERTEX
  8
0
 10
347.633345
 20
159.485801
 42
0.110643
  0
VERTEX
  8
0
 10
348.000000
 20
161.122445
 42
-0.094234
  0
VERTEX
  8
0
 10
348.170035
 20
162.016631
 42
-0.161021
  0
VERTEX
  8
0
 10
348.651992
 20
162.594524
 42
-0.108783
  0
VERTEX
  8
0
 10
349.542285
 20
162.909108
 42
-0.030745
  0
VERTEX
  8
0
 10
351.019052
 20
163.000000
 42
-0.021644
  0
VERTEX
  8
0
 10
352.794771
 20
162.923097
 42
-0.195738
  0
VERTEX
  8
0
 10
353.472529
 20
162.576128
 42
-0.212975
  0
VERTEX
  8
0
 10
353.683511
 20
161.872652
 42
-0.025981
  0
VERTEX
  8
0
 10
353.387813
 20
160.250000
 42
-0.126908
  0
VERTEX
  8
0
 10
350.825169
 20
155.383249
 42
-0.148738
  0
VERTEX
  8
0
 10
346.362250
 20
152.718053
 42
-0.160301
  0
VERTEX
  8
0
 10
341.426383
 20
153.088242
 42
-0.150624
  0
VERTEX
  8
0
 10
337.527535
 20
156.317632
 42
-0.114473
  0
VERTEX
  8
0
 10
335.534206
 20
161.743208
 42
-0.045865
  0
VERTEX
  8
0
 10
335.275848
 20
169.697604
 42
-0.045653
  0
VERTEX
  8
0
 10
336.448875
 20
177.436073
 42
-0.136773
  0
VERTEX
  8
0
 10
339.052747
 20
182.052747
 42
-0.117968
  0
VERTEX
  8
0
 10
341.386581
 20
183.485391
 42
-0.078807
  0
VERTEX
  8
0
 10
344.496061
 20
183.982118
 42
-0.078861
  0
VERTEX
  8
0
 10
347.604442
 20
183.492360
 42
-0.118481
  0
SEQEND
  0
POLYLINE
  8
0
 66
1
 70
1
  0
VERTEX
  8
0
 10
381.000000
 20
172.581787
 42
0.005692
  0
VERTEX
  8
0
 10
381.097369
 20
164.028437
 42
0.053251
  0
VERTEX
  8
0
 10
381.571265
 20
160.380019
 42
0.163001
  0
VERTEX
  8
0
 10
382.642622
 20
158.666344
 42
0.173950
  0
VERTEX
  8
0
 10
384.500000
 20
158.000000
 42
0.173950
  0
VERTEX
  8
0
 10
386.357378
 20
158.666344
 42
0.163001
  0
VERTEX
  8
0
 10
387.428735
 20
160.380019
 42
0.053251
  0
VERTEX
  8
0
 10
387.902631
 20
164.028437
 42
0.005692
  0
VERTEX
  8
0
 10
388.000000
 20
172.581787
 42
0.000000
  0
VERTEX
  8
0
 10
388.000000
 20
184.000000
 42
0.000000
  0
VERTEX
  8
0
 10
391.077480
 20
184.000000
 42
0.000000
  0
VERTEX
  8
0
 10
394.154961
 20
184.000000
 42
0.000000
  0
VERTEX
  8
0
 10
393.827480
 20
170.524919
 42
-0.003747
  0
VERTEX
  8
0
 10
393.572342
 20
162.502168
 42
-0.030089
  0
VERTEX
  8
0
 10
393.205768
 20
158.828106
 42
-0.068614
  0
VERTEX
  8
0
 10
392.526574
 20
156.605859
 42
-0.088334
  0
VERTEX
  8
0
 10
391.305556
 20
154.858252
 42
-0.123084
  0
VERTEX
  8
0
 10
388.441868
 20
153.142408
 42
-0.073885
  0
VERTEX
  8
0
 10
384.499382
 20
152.557145
 42
-0.073887
  0
VERTEX
  8
0
 10
380.557208
 20
153.143411
 42
-0.123117
  0
VERTEX
  8
0
 10
377.694444
 20
154.859987
 42
-0.088332
  0
VERTEX
  8
0
 10
376.473669
 20
156.608709
 42
-0.068193
  0
VERTEX
  8
0
 10
375.791812
 20
158.836114
 42
-0.030007
  0
VERTEX
  8
0
 10
375.419230
 20
162.516468
 42
-0.003766
  0
VERTEX
  8
0
 10
375.151886
 20
170.526654
 42
0.000000
  0
VERTEX
  8
0
 10
374.803771
 20
184.000000
 42
0.000000
  0
VERTEX
  8
0
 10
377.901886
 20
184.000000
 42
0.000000
  0
VERTEX
  8
0
 10
381.000000
 20
184.000000
 42
0.000000
  0
SEQEND
  0
POLYLINE
  8
0
 66
1
 70
1
  0
VERTEX
  8
0
 10
406.000000
 20
182.345012
 42
0.025779
  0
VERTEX
  8
0
 10
406.049016
 20
181.394959
 42
0.384330
  0
VERTEX
  8
0
 10
406.276247
 20
181.190025
 42
0.177905
  0
VERTEX
  8
0
 10
406.681380
 20
181.338887
 42
0.007828
  0
VERTEX
  8
0
 10
407.828741
 20
182.345012
 42
-0.110040
  0
VERTEX
  8
0
 10
410.057822
 20
183.610567
 42
-0.082116
  0
VERTEX
  8
0
 10
412.868171
 20
183.987436
 42
-0.089249
  0
VERTEX
  8
0
 10
415.433512
 20
183.444445
 42
-0.174950
  0
VERTEX
  8
0
 10
416.964816
 20
182.065741
 42
-0.099596
  0
VERTEX
  8
0
 10
417.373572
 20
180.710131
 42
-0.006909
  0
VERTEX
  8
0
 10
417.695915
 20
176.714735
 42
-0.009604
  0
VERTEX
  8
0
 10
417.924550
 20
171.902883
 42
-0.007068
  0
VERTEX
  8
0
 10
418.000000
 20
166.565741
 42
0.000000
  0
VERTEX
  8
0
 10
418.000000
 20
153.000000
 42
0.000000
  0
VERTEX
  8
0
 10
415.500000
 20
153.000000
 42
0.000000
  0
VERTEX
  8
0
 10
413.000000
 20
153.000000
 42
0.000000
  0
VERTEX
  8
0
 10
412.986345
 20
163.750000
 42
0.006433
  0
VERTEX
  8
0
 10
412.864957
 20
172.337129
 42
0.049629
  0
VERTEX
  8
0
 10
412.359615
 20
176.320922
 42
0.140982
  0
VERTEX
  8
0
 10
411.289197
 20
178.255094
 42
0.198864
  0
VERTEX
  8
0
 10
409.490357
 20
179.000000
 42
0.174660
  0
VERTEX
  8
0
 10
407.638857
 20
178.332884
 42
0.162455
  0
VERTEX
  8
0
 10
406.570334
 20
176.617296
 42
0.053095
  0
VERTEX
  8
0
 10
406.097294
 20
172.966476
 42
0.005691
  0
VERTEX
  8
0
 10
406.000000
 20
164.418213
 42
0.000000
  0
VERTEX
  8
0
 10
406.000000
 20
153.000000
 42
0.000000
  0
VERTEX
  8
0
 10
403.000000
 20
153.000000
 42
0.000000
  0
VERTEX
  8
0
 10
400.000000
 20
153.000000
 42
0.000000
  0
VERTEX
  8
0
 10
400.000000
 20
168.500000
 42
0.000000
  0
VERTEX
  8
0
 10
400.000000
 20
184.000000
 42
0.000000
  0
VERTEX
  8
0
 10
403.000000
 20
184.000000
 42
-0.032345
  0
VERTEX
  8
0
 10
404.387407
 20
183.910155
 42
-0.093971
  0
VERTEX
  8
0
 10
405.296824
 20
183.612084
 42
-0.144075
  0
VERTEX
  8
0
 10
405.811416
 20
183.092423
 42
-0.124212
  0
SEQEND
  0
POLYLINE
  8
0
 66
1
 70
1
  0
VERTEX
  8
0
 10
435.171259
 20
182.345012
 42
0.007828
  0
VERTEX
  8
0
 10
436.318620
 20
181.338887
 42
0.177905
  0
VERTEX
  8
0
 10
436.723753
 20
181.190025
 42
0.384330
  0
VERTEX
  8
0
 10
436.950984
 20
181.394959
 42
0.025779
  0
VERTEX
  8
0
 10
437.000000
 20
182.345012
 42
-0.125745
  0
VERTEX
  8
0
 10
437.191980
 20
183.096312
 42
-0.145233
  0
VERTEX
  8
0
 10
437.714726
 20
183.615512
 42
-0.092821
  0
VERTEX
  8
0
 10
438.643912
 20
183.911554
 42
-0.030841
  0
VERTEX
  8
0
 10
440.076462
 20
184.000000
 42
0.000000
  0
VERTEX
  8
0
 10
443.152925
 20
184.000000
 42
0.000000
  0
VERTEX
  8
0
 10
442.826462
 20
164.411666
 42
0.000000
  0
VERTEX
  8
0
 10
442.500000
 20
144.823333
 42
0.000000
  0
VERTEX
  8
0
 10
439.694236
 20
142.411666
 42
-0.078065
  0
VERTEX
  8
0
 10
437.334076
 20
140.950989
 42
-0.059859
  0
VERTEX
  8
0
 10
434.413896
 20
140.115057
 42
-0.059232
  0
VERTEX
  8
0
 10
431.344678
 20
139.989443
 42
-0.072372
  0
VERTEX
  8
0
 10
428.544802
 20
140.621181
 42
-0.132621
  0
VERTEX
  8
0
 10
427.139997
 20
141.645686
 42
-0.037774
  0
VERTEX
  8
0
 10
425.598395
 20
143.891957
 42
-0.038637
  0
VERTEX
  8
0
 10
424.381724
 20
146.418908
 42
-0.093139
  0
VERTEX
  8
0
 10
424.000000
 20
148.450340
 42
-0.273682
  0
VERTEX
  8
0
 10
424.771274
 20
149.753867
 42
-0.166339
  0
VERTEX
  8
0
 10
426.589262
 20
150.070758
 42
-0.118543
  0
VERTEX
  8
0
 10
428.706230
 20
149.192961
 42
-0.145621
  0
VERTEX
  8
0
 10
430.000000
 20
147.500000
 42
0.054991
  0
VERTEX
  8
0
 10
430.571419
 20
146.383925
 42
0.087529
  0
VERTEX
  8
0
 10
431.306625
 20
145.606786
 42
0.092315
  0
VERTEX
  8
0
 10
432.232702
 20
145.154406
 42
0.067676
  0
VERTEX
  8
0
 10
433.368260
 20
145.000000
 42
0.112853
  0
VERTEX
  8
0
 10
435.112040
 20
145.398659
 42
0.163286
  0
VERTEX
  8
0
 10
436.234016
 20
146.493646
 42
0.095280
  0
VERTEX
  8
0
 10
436.834115
 20
148.550544
 42
0.023475
  0
VERTEX
  8
0
 10
437.000000
 20
152.081787
 42
0.000000
  0
VERTEX
  8
0
 10
437.000000
 20
156.000000
 42
0.000000
  0
VERTEX
  8
0
 10
435.000000
 20
154.000000
 42
-0.061453
  0
VERTEX
  8
0
 10
433.131896
 20
152.542217
 42
-0.149492
  0
VERTEX
  8
0
 10
431.453310
 20
152.125906
 42
-0.126459
  0
VERTEX
  8
0
 10
429.643029
 20
152.696345
 42
-0.038399
  0
VERTEX
  8
0
 10
427.305764
 20
154.413416
 42
-0.057829
  0
VERTEX
  8
0
 10
425.654175
 20
156.204494
 42
-0.107948
  0
VERTEX
  8
0
 10
424.863642
 20
158.002118
 42
-0.046031
  0
VERTEX
  8
0
 10
424.556869
 20
160.851506
 42
-0.003813
  0
VERTEX
  8
0
 10
424.500000
 20
168.308429
 42
-0.005133
  0
VERTEX
  8
0
 10
424.566061
 20
174.742824
 42
-0.029701
  0
VERTEX
  8
0
 10
424.837313
 20
178.129724
 42
-0.058710
  0
VERTEX
  8
0
 10
425.399420
 20
180.272128
 42
-0.090670
  0
VERTEX
  8
0
 10
426.404988
 20
181.895012
 42
-0.099321
  0
VERTEX
  8
0
 10
428.344004
 20
183.330396
 42
-0.097296
  0
VERTEX
  8
0
 10
430.700954
 20
183.920359
 42
-0.097433
  0
VERTEX
  8
0
 10
433.103156
 20
183.574570
 42
-0.099917
  0
SEQEND
  0
POLYLINE
  8
0
 66
1
 70
1
  0
VERTEX
  8
0
 10
559.254006
 20
311.500000
 42
-0.014616
  0
VERTEX
  8
0
 10
556.661430
 20
280.559284
 42
-0.019805
  0
VERTEX
  8
0
 10
552.402788
 20
252.838068
 42
-0.021034
  0
VERTEX
  8
0
 10
546.226311
 20
226.937869
 42
-0.020684
  0
VERTEX
  8
0
 10
537.866329
 20
201.500000
 42
-0.032370
  0
VERTEX
  8
0
 10
523.756425
 20
170.207160
 42
-0.031418
  0
VERTEX
  8
0
 10
505.600767
 20
140.669650
 42
-0.032045
  0
VERTEX
  8
0
 10
484.303753
 20
114.226359
 42
-0.037483
  0
VERTEX
  8
0
 10
460.814601
 20
92.177411
 42
-0.033043
  0
VERTEX
  8
0
 10
433.285849
 20
72.822523
 42
-0.030899
  0
VERTEX
  8
0
 10
402.838446
 20
56.779307
 42
-0.029560
  0
VERTEX
  8
0
 10
369.326427
 20
44.009478
 42
-0.025015
  0
VERTEX
  8
0
 10
332.629846
 20
34.445769
 42
-0.004187
  0
VERTEX
  8
0
 10
325.899352
 20
33.105572
 42
-0.021970
  0
VERTEX
  8
0
 10
322.166561
 20
32.563368
 42
-0.037957
  0
VERTEX
  8
0
 10
319.905829
 20
32.508118
 42
-0.246248
  0
VERTEX
  8
0
 10
318.956987
 20
33.069597
 42
-0.105890
  0
VERTEX
  8
0
 10
317.601627
 20
36.869912
 42
-0.013278
  0
VERTEX
  8
0
 10
316.679870
 20
45.613379
 42
-0.015508
  0
VERTEX
  8
0
 10
316.187756
 20
55.972980
 42
-0.013821
  0
VERTEX
  8
0
 10
316.308300
 20
66.750000
 42
0.002556
  0
VERTEX
  8
0
 10
316.505510
 20
72.597646
 42
0.004269
  0
VERTEX
  8
0
 10
316.604285
 20
77.520313
 42
0.000734
  0
VERTEX
  8
0
 10
316.647686
 20
81.834977
 42
0.416732
  0
VERTEX
  8
0
 10
316.484074
 20
82.000000
 42
0.136463
  0
VERTEX
  8
0
 10
316.189960
 20
81.918206
 42
0.001411
  0
VERTEX
  8
0
 10
314.344007
 20
80.798289
 42
0.004407
  0
VERTEX
  8
0
 10
312.222333
 20
79.477077
 42
0.002832
  0
VERTEX
  8
0
 10
309.783741
 20
77.909068
 42
-0.022670
  0
VERTEX
  8
0
 10
302.040629
 20
73.353820
 42
-0.011004
  0
VERTEX
  8
0
 10
291.772296
 20
68.209597
 42
-0.010917
  0
VERTEX
  8
0
 10
280.877056
 20
63.336357
 42
-0.016012
  0
VERTEX
  8
0
 10
271.078184
 20
59.572483
 42
-0.030611
  0
VERTEX
  8
0
 10
242.820797
 20
51.645064
 42
-0.030880
  0
VERTEX
  8
0
 10
213.889291
 20
47.255608
 42
-0.030338
  0
VERTEX
  8
0
 10
184.155260
 20
46.417651
 42
-0.027410
  0
VERTEX
  8
0
 10
153.500000
 20
49.100343
 42
-0.001205
  0
VERTEX
  8
0
 10
147.955724
 20
49.907148
 42
-0.001564
  0
VERTEX
  8
0
 10
142.878125
 20
50.674779
 42
-0.001170
  0
VERTEX
  8
0
 10
138.626022
 20
51.341411
 42
-0.014144
  0
VERTEX
  8
0
 10
137.000000
 20
51.647620
 42
0.820172
  0
VERTEX
  8
0
 10
136.633147
 20
50.806742
 42
0.013901
  0
VERTEX
  8
0
 10
144.210439
 20
45.836535
 42
0.011755
  0
VERTEX
  8
0
 10
154.863166
 20
39.605998
 42
0.012552
  0
VERTEX
  8
0
 10
165.569389
 20
34.023875
 42
0.019776
  0
VERTEX
  8
0
 10
190.958504
 20
22.808458
 42
0.020170
  0
VERTEX
  8
0
 10
216.989267
 20
13.714974
 42
0.020459
  0
VERTEX
  8
0
 10
243.293176
 20
6.862806
 42
0.021850
  0
VERTEX
  8
0
 10
269.500000
 20
2.357959
 42
0.024895
  0
VERTEX
  8
0
 10
289.650429
 20
0.808162
 42
0.013118
  0
VERTEX
  8
0
 10
314.756684
 20
0.789426
 42
0.013094
  0
VERTEX
  8
0
 10
339.533366
 20
2.070892
 42
0.028055
  0
VERTEX
  8
0
 10
358.500000
 20
4.626909
 42
0.031085
  0
VERTEX
  8
0
 10
395.930235
 20
14.272257
 42
0.034778
  0
VERTEX
  8
0
 10
430.448297
 20
28.214709
 42
0.035866
  0
VERTEX
  8
0
 10
461.744752
 20
46.346799
 42
0.037741
  0
VERTEX
  8
0
 10
489.565873
 20
68.490573
 42
0.018381
  0
VERTEX
  8
0
 10
503.296478
 20
82.195439
 42
0.023124
  0
VERTEX
  8
0
 10
514.916301
 20
95.897882
 42
0.022194
  0
VERTEX
  8
0
 10
525.584098
 20
111.073196
 42
0.014926
  0
VERTEX
  8
0
 10
536.452035
 20
129.266050
 42
0.033879
  0
VERTEX
  8
0
 10
548.962457
 20
155.777494
 42
0.029420
  0
VERTEX
  8
0
 10
558.464923
 20
185.004047
 42
0.028193
  0
VERTEX
  8
0
 10
564.806625
 20
216.424890
 42
0.025345
  0
VERTEX
  8
0
 10
567.861637
 20
249.500000
 42
0.012758
  0
VERTEX
  8
0
 10
568.169866
 20
268.870957
 42
0.016590
  0
VERTEX
  8
0
 10
567.410978
 20
286.598874
 42
0.016257
  0
VERTEX
  8
0
 10
565.459186
 20
304.521985
 42
0.011494
  0
VERTEX
  8
0
 10
562.153725
 20
324.500000
 42
0.000000
  0
VERTEX
  8
0
 10
560.451234
 20
333.500000
 42
0.000000
  0
SEQEND
  0
POLYLINE
  8
0
 66
1
 70
1
  0
VERTEX
  8
0
 10
140.075770
 20
178.767211
 42
-0.003082
  0
VERTEX
  8
0
 10
139.541525
 20
175.153264
 42
-0.004186
  0
VERTEX
  8
0
 10
139.011906
 20
171.898418
 42
-0.002816
  0
VERTEX
  8
0
 10
138.529798
 20
169.176596
 42
-0.046400
  0
VERTEX
  8
0
 10
138.280566
 20
168.288760
 42
0.218163
  0
VERTEX
  8
0
 10
138.316754
 20
167.716810
 42
0.176593
  0
VERTEX
  8
0
 10
138.780388
 20
167.303203
 42
0.075691
  0
VERTEX
  8
0
 10
139.805133
 20
167.065690
 42
0.019168
  0
VERTEX
  8
0
 10
141.518011
 20
167.000000
 42
0.013919
  0
VERTEX
  8
0
 10
143.906613
 20
167.066505
 42
0.191449
  0
VERTEX
  8
0
 10
144.677994
 20
167.424011
 42
0.223321
  0
VERTEX
  8
0
 10
144.929296
 20
168.184746
 42
0.019433
  0
VERTEX
  8
0
 10
144.597622
 20
170.250000
 42
-0.005989
  0
VERTEX
  8
0
 10
144.275755
 20
171.959313
 42
-0.001740
  0
VERTEX
  8
0
 10
143.820384
 20
174.601562
 42
-0.001748
  0
VERTEX
  8
0
 10
143.328169
 20
177.581652
 42
-0.001868
  0
VERTEX
  8
0
 10
142.867811
 20
180.500000
 42
0.002242
  0
VERTEX
  8
0
 10
142.439869
 20
183.199746
 42
0.003541
  0
VERTEX
  8
0
 10
142.046076
 20
185.510858
 42
0.000909
  0
VERTEX
  8
0
 10
141.684843
 20
187.522576
 42
0.140061
  0
VERTEX
  8
0
 10
141.583405
 20
187.728451
 42
0.625292
  0
VERTEX
  8
0
 10
141.481799
 20
187.698911
 42
0.000890
  0
VERTEX
  8
0
 10
141.055160
 20
185.190323
 42
0.004125
  0
VERTEX
  8
0
 10
140.589445
 20
182.275374
 42
0.002394
  0
SEQEND
  0
POLYLINE
  8
0
 66
1
 70
1
  0
VERTEX
  8
0
 10
201.341967
 20
176.314919
 42
0.045189
  0
VERTEX
  8
0
 10
200.806217
 20
173.057310
 42
0.017912
  0
VERTEX
  8
0
 10
200.638890
 20
168.520647
 42
0.017894
  0
VERTEX
  8
0
 10
200.796395
 20
163.988366
 42
0.045774
  0
VERTEX
  8
0
 10
201.325674
 20
160.750000
 42
0.116090
  0
VERTEX
  8
0
 10
202.377601
 20
158.752119
 42
0.208593
  0
VERTEX
  8
0
 10
204.021371
 20
157.970776
 42
0.202519
  0
VERTEX
  8
0
 10
205.750795
 20
158.635992
 42
0.110608
  0
VERTEX
  8
0
 10
207.024751
 20
160.565100
 42
0.069873
  0
VERTEX
  8
0
 10
207.669077
 20
163.395863
 42
0.019704
  0
VERTEX
  8
0
 10
207.872638
 20
167.928293
 42
0.020511
  0
VERTEX
  8
0
 10
207.707192
 20
172.582052
 42
0.048346
  0
VERTEX
  8
0
 10
207.109325
 20
176.000000
 42
0.117742
  0
VERTEX
  8
0
 10
205.964547
 20
178.074798
 42
0.196900
  0
VERTEX
  8
0
 10
204.190490
 20
178.917317
 42
0.213516
  0
VERTEX
  8
0
 10
202.445292
 20
178.248108
 42
0.133433
  0
SEQEND
  0
POLYLINE
  8
0
 66
1
 70
1
  0
VERTEX
  8
0
 10
261.975249
 20
176.434900
 42
0.045487
  0
VERTEX
  8
0
 10
261.599175
 20
175.088677
 42
0.014803
  0
VERTEX
  8
0
 10
261.286479
 20
173.045920
 42
0.014617
  0
VERTEX
  8
0
 10
261.071641
 20
170.744010
 42
0.015959
  0
VERTEX
  8
0
 10
261.000000
 20
168.500000
 42
0.026029
  0
VERTEX
  8
0
 10
261.235804
 20
163.973460
 42
0.062301
  0
VERTEX
  8
0
 10
261.996235
 20
160.704179
 42
0.100177
  0
VERTEX
  8
0
 10
263.224369
 20
158.712968
 42
0.207515
  0
VERTEX
  8
0
 10
264.868260
 20
158.000000
 42
0.172285
  0
VERTEX
  8
0
 10
266.433159
 20
158.555711
 42
0.150751
  0
VERTEX
  8
0
 10
267.401889
 20
160.005329
 42
0.062164
  0
VERTEX
  8
0
 10
267.883404
 20
162.884776
 42
0.010381
  0
VERTEX
  8
0
 10
268.000000
 20
168.500000
 42
0.007593
  0
VERTEX
  8
0
 10
267.955580
 20
171.424992
 42
0.009397
  0
VERTEX
  8
0
 10
267.821697
 20
174.146000
 42
0.007979
  0
VERTEX
  8
0
 10
267.630635
 20
176.417512
 42
0.066733
  0
VERTEX
  8
0
 10
267.393011
 20
177.418213
 42
0.171529
  0
VERTEX
  8
0
 10
266.328373
 20
178.666511
 42
0.177951
  0
VERTEX
  8
0
 10
264.733983
 20
178.944586
 42
0.145843
  0
VERTEX
  8
0
 10
263.092868
 20
178.112634
 42
0.112634
  0
SEQEND
  0
POLYLINE
  8
0
 66
1
 70
1
  0
VERTEX
  8
0
 10
341.630286
 20
176.750000
 42
0.024629
  0
VERTEX
  8
0
 10
340.959257
 20
173.641232
 42
0.157855
  0
VERTEX
  8
0
 10
341.196442
 20
172.069596
 42
0.225939
  0
VERTEX
  8
0
 10
342.247956
 20
171.247650
 42
0.054818
  0
VERTEX
  8
0
 10
344.500000
 20
171.000000
 42
0.054818
  0
VERTEX
  8
0
 10
346.752044
 20
171.247650
 42
0.225939
  0
VERTEX
  8
0
 10
347.803558
 20
172.069596
 42
0.157855
  0
VERTEX
  8
0
 10
348.040743
 20
173.641232
 42
0.024629
  0
VERTEX
  8
0
 10
347.369714
 20
176.750000
 42
0.066015
  0
VERTEX
  8
0
 10
346.962836
 20
177.729582
 42
0.095373
  0
VERTEX
  8
0
 10
346.349202
 20
178.435343
 42
0.096794
  0
VERTEX
  8
0
 10
345.524844
 20
178.856117
 42
0.069855
  0
VERTEX
  8
0
 10
344.500000
 20
179.000000
 42
0.069855
  0
VERTEX
  8
0
 10
343.475156
 20
178.856117
 42
0.096794
  0
VERTEX
  8
0
 10
342.650798
 20
178.435343
 42
0.095373
  0
VERTEX
  8
0
 10
342.037164
 20
177.729582
 42
0.066015
  0
SEQEND
  0
POLYLINE
  8
0
 66
1
 70
1
  0
VERTEX
  8
0
 10
431.229187
 20
177.829187
 42
0.179943
  0
VERTEX
  8
0
 10
430.368370
 20
175.948860
 42
0.009791
  0
VERTEX
  8
0
 10
430.013063
 20
169.334561
 42
0.013762
  0
VERTEX
  8
0
 10
429.970356
 20
162.827567
 42
0.086578
  0
VERTEX
  8
0
 10
430.606989
 20
159.581787
 42
0.186660
  0
VERTEX
  8
0
 10
431.746994
 20
158.321887
 42
0.146454
  0
VERTEX
  8
0
 10
433.575900
 20
157.997764
 42
0.137816
  0
VERTEX
  8
0
 10
435.364773
 20
158.731720
 42
0.162844
  0
VERTEX
  8
0
 10
436.369714
 20
160.250000
 42
0.055860
  0
VERTEX
  8
0
 10
436.812163
 20
163.172903
 42
0.013837
  0
VERTEX
  8
0
 10
436.865321
 20
168.025009
 42
0.014171
  0
VERTEX
  8
0
 10
436.645574
 20
172.898630
 42
0.049537
  0
VERTEX
  8
0
 10
436.106475
 20
175.994749
 42
0.086221
  0
VERTEX
  8
0
 10
435.294193
 20
177.705017
 42
0.150017
  0
VERTEX
  8
0
 10
434.061490
 20
178.656922
 42
0.170721
  0
VERTEX
  8
0
 10
432.626592
 20
178.687877
 42
0.117736
  0
SEQEND
  0
ENDSEC
  0
EOF
