  0
SECTION
  2
HEADER
  9
$ACADVER
  1
AC1006
  9
$EXTMIN
 10
0.000000
 20
0.000000
 30
0.000000
  9
$EXTMAX
 10
274.000000
 20
199.000000
 30
0.000000
  0
ENDSEC
  0
SECTION
  2
ENTITIES
  0
POLYLINE
  8
0
 66
1
 70
1
  0
VERTEX
  8
0
 10
140.500000
 20
141.038964
 42
0.056959
  0
VERTEX
  8
0
 10
120.122784
 20
136.253292
 42
0.072119
  0
VERTEX
  8
0
 10
103.058708
 20
127.185312
 42
0.076868
  0
VERTEX
  8
0
 10
90.085181
 20
114.199266
 42
0.077339
  0
VERTEX
  8
0
 10
81.673205
 20
97.926768
 42
0.033741
  0
VERTEX
  8
0
 10
80.166421
 20
92.153198
 42
0.016551
  0
VERTEX
  8
0
 10
78.994850
 20
84.642038
 42
0.015997
  0
VERTEX
  8
0
 10
78.337090
 20
77.323895
 42
0.051671
  0
VERTEX
  8
0
 10
78.559378
 20
72.452605
 42
0.000000
  0
VERTEX
  8
0
 10
79.227088
 20
68.000000
 42
0.000000
  0
VERTEX
  8
0
 10
147.113544
 20
68.000000
 42
-0.000594
  0
VERTEX
  8
0
 10
200.083529
 20
67.937026
 42
-0.031649
  0
VERTEX
  8
0
 10
210.182709
 20
67.273024
 42
-0.317830
  0
VERTEX
  8
0
 10
213.060329
 20
64.622203
 42
-0.164667
  0
VERTEX
  8
0
 10
212.469310
 20
59.526711
 42
-0.071413
  0
VERTEX
  8
0
 10
207.810665
 20
52.484845
 42
-0.073411
  0
VERTEX
  8
0
 10
201.397852
 20
47.114126
 42
-0.060603
  0
VERTEX
  8
0
 10
192.652719
 20
43.107937
 42
-0.030800
  0
VERTEX
  8
0
 10
180.903837
 20
40.146282
 42
0.013691
  0
VERTEX
  8
0
 10
176.358905
 20
39.164561
 42
0.010578
  0
VERTEX
  8
0
 10
171.462489
 20
37.855346
 42
0.010723
  0
VERTEX
  8
0
 10
166.939468
 20
36.437003
 42
0.025100
  0
VERTEX
  8
0
 10
163.642793
 20
35.137417
 42
0.000000
  0
VERTEX
  8
0
 10
156.977912
 20
32.115415
 42
0.000000
  0
VERTEX
  8
0
 10
150.645961
 20
35.078492
 42
0.026950
  0
VERTEX
  8
0
 10
147.464572
 20
36.363214
 42
0.011180
  0
VERTEX
  8
0
 10
143.043864
 20
37.767365
 42
0.010984
  0
VERTEX
  8
0
 10
138.206207
 20
39.071010
 42
0.013481
  0
VERTEX
  8
0
 10
133.634334
 20
40.066040
 42
-0.013111
  0
VERTEX
  8
0
 10
125.383839
 20
41.855313
 42
-0.032825
  0
VERTEX
  8
0
 10
119.509678
 20
43.707278
 42
-0.040030
  0
VERTEX
  8
0
 10
114.652176
 20
46.060030
 42
-0.030430
  0
VERTEX
  8
0
 10
109.741347
 20
49.361724
 42
0.000000
  0
VERTEX
  8
0
 10
104.982694
 20
53.000000
 42
0.000000
  0
VERTEX
  8
0
 10
94.491347
 20
53.000000
 42
0.004823
  0
VERTEX
  8
0
 10
90.468531
 20
52.961195
 42
0.008030
  0
VERTEX
  8
0
 10
87.081833
 20
52.841423
 42
0.002571
  0
VERTEX
  8
0
 10
84.205336
 20
52.678574
 42
0.396256
  0
VERTEX
  8
0
 10
84.000000
 20
52.460162
 42
0.134140
  0
VERTEX
  8
0
 10
84.636447
 20
50.130518
 42
0.019152
  0
VERTEX
  8
0
 10
87.340148
 20
45.927872
 42
0.021974
  0
VERTEX
  8
0
 10
90.821411
 20
41.385516
 42
0.024184
  0
VERTEX
  8
0
 10
94.584135
 20
37.315731
 42
0.039790
  0
VERTEX
  8
0
 10
101.181223
 20
31.796363
 42
0.043991
  0
VERTEX
  8
0
 10
108.360221
 20
27.597568
 42
0.038530
  0
VERTEX
  8
0
 10
116.944899
 20
24.324294
 42
0.021121
  0
VERTEX
  8
0
 10
127.870378
 20
21.592443
 42
-0.014066
  0
VERTEX
  8
0
 10
136.175488
 20
19.639828
 42
-0.036369
  0
VERTEX
  8
0
 10
141.991422
 20
17.636320
 42
-0.042047
  0
VERTEX
  8
0
 10
146.952460
 20
14.999683
 42
-0.025066
  0
VERTEX
  8
0
 10
152.387505
 20
11.097602
 42
0.010365
  0
VERTEX
  8
0
 10
153.941547
 20
9.911143
 42
0.014073
  0
VERTEX
  8
0
 10
155.395054
 20
8.909921
 42
0.010952
  0
VERTEX
  8
0
 10
156.633902
 20
8.145007
 42
0.133596
  0
VERTEX
  8
0
 10
157.166923
 20
8.000000
 42
0.142481
  0
VERTEX
  8
0
 10
157.725884
 20
8.162583
 42
0.007190
  0
VERTEX
  8
0
 10
159.330382
 20
9.214929
 42
0.011045
  0
VERTEX
  8
0
 10
161.214505
 20
10.551397
 42
0.007735
  0
VERTEX
  8
0
 10
163.279418
 20
12.135928
 42
-0.028427
  0
VERTEX
  8
0
 10
168.336713
 20
15.694327
 42
-0.043370
  0
VERTEX
  8
0
 10
173.119475
 20
18.121555
 42
-0.035534
  0
VERTEX
  8
0
 10
178.904294
 20
19.986731
 42
-0.012796
  0
VERTEX
  8
0
 10
187.356983
 20
21.835005
 42
0.048732
  0
VERTEX
  8
0
 10
202.824183
 20
26.401288
 42
0.066846
  0
VERTEX
  8
0
 10
215.415353
 20
33.576260
 42
0.071176
  0
VERTEX
  8
0
 10
225.091201
 20
43.411235
 42
0.065517
  0
VERTEX
  8
0
 10
231.947149
 20
55.834209
 42
0.035513
  0
VERTEX
  8
0
 10
233.792366
 20
61.748165
 42
0.023004
  0
VERTEX
  8
0
 10
235.114378
 20
68.795229
 42
0.023164
  0
VERTEX
  8
0
 10
235.766919
 20
75.782302
 42
0.042801
  0
VERTEX
  8
0
 10
235.546161
 20
81.476841
 42
0.000000
  0
VERTEX
  8
0
 10
234.856087
 20
87.000000
 42
0.000000
  0
VERTEX
  8
0
 10
166.928044
 20
87.000000
 42
-0.000645
  0
VERTEX
  8
0
 10
112.669892
 20
87.070010
 42
-0.041014
  0
VERTEX
  8
0
 10
103.198847
 20
87.872830
 42
-0.384751
  0
VERTEX
  8
0
 10
100.706269
 20
91.021175
 42
-0.100070
  0
VERTEX
  8
0
 10
102.547631
 20
97.822583
 42
-0.055676
  0
VERTEX
  8
0
 10
107.587466
 20
105.597706
 42
-0.062167
  0
VERTEX
  8
0
 10
114.056596
 20
111.749704
 42
-0.056788
  0
VERTEX
  8
0
 10
122.346763
 20
116.525536
 42
-0.036372
  0
VERTEX
  8
0
 10
132.845886
 20
120.197957
 42
-0.045581
  0
VERTEX
  8
0
 10
142.608053
 20
121.900547
 42
-0.020726
  0
VERTEX
  8
0
 10
155.570273
 20
122.420916
 42
-0.020737
  0
VERTEX
  8
0
 10
168.552104
 20
121.865060
 42
-0.044808
  0
VERTEX
  8
0
 10
178.389776
 20
120.137685
 42
-0.021595
  0
VERTEX
  8
0
 10
185.946712
 20
117.745666
 42
-0.032566
  0
VERTEX
  8
0
 10
192.265090
 20
114.963015
 42
-0.035069
  0
VERTEX
  8
0
 10
197.812410
 20
111.561434
 42
-0.031693
  0
VERTEX
  8
0
 10
203.031580
 20
107.310278
 42
0.000000
  0
VERTEX
  8
0
 10
208.767313
 20
102.000000
 42
0.000000
  0
VERTEX
  8
0
 10
218.883657
 20
102.000000
 42
0.007605
  0
VERTEX
  8
0
 10
223.148581
 20
102.064874
 42
0.018004
  0
VERTEX
  8
0
 10
226.317808
 20
102.275697
 42
0.015206
  0
VERTEX
  8
0
 10
228.611578
 20
102.582203
 42
0.367168
  0
VERTEX
  8
0
 10
229.000000
 20
103.039838
 42
0.122149
  0
VERTEX
  8
0
 10
228.393356
 20
105.485997
 42
0.023445
  0
VERTEX
  8
0
 10
226.052474
 20
109.453273
 42
0.023611
  0
VERTEX
  8
0
 10
222.796271
 20
113.945951
 42
0.019423
  0
VERTEX
  8
0
 10
218.921082
 20
118.425209
 42
0.055134
  0
VERTEX
  8
0
 10
207.570893
 20
128.153037
 42
0.055849
  0
VERTEX
  8
0
 10
194.416422
 20
135.116190
 42
0.050749
  0
VERTEX
  8
0
 10
178.942838
 20
139.462808
 42
0.034002
  0
VERTEX
  8
0
 10
160.646478
 20
141.381035
 42
0.007117
  0
VERTEX
  8
0
 10
155.099932
 20
141.504453
 42
0.006248
  0
VERTEX
  8
0
 10
149.305528
 20
141.478481
 42
0.006290
  0
VERTEX
  8
0
 10
144.075454
 20
141.323845
 42
0.018687
  0
SEQEND
  0
ENDSEC
  0
EOF
