  0
SECTION
  2
HEADER
  9
$ACADVER
  1
AC1018
  9
$DWGCODEPAGE
  3
ANSI_1252
  9
$INSBASE
 10
0
 20
0
 30
0
  9
$EXTMIN
 10
1e+20
 20
1e+20
 30
1e+20
  9
$EXTMAX
 10
-1e+20
 20
-1e+20
 30
-1e+20
  9
$LIMMIN
 10
0
 20
0
  9
$LIMMAX
 10
420
 20
297
  9
$ORTHOMODE
 70
    0
  9
$REGENMODE
 70
    1
  9
$FILLMODE
 70
    1
  9
$QTEXTMODE
 70
    0
  9
$MIRRTEXT
 70
    0
  9
$LTSCALE
 40
1
  9
$ATTMODE
 70
    0
  9
$TEXTSIZE
 40
2.5
  9
$TRACEWID
 40
15.68
  9
$TEXTSTYLE
  7
STANDARD
  9
$CLAYER
  8
0
  9
$CELTYPE
  6
BYLAYER
  9
$CECOLOR
 62
  256
  9
$CELTSCALE
 40
1
  9
$DISPSILH
 70
    0
  9
$DIMSCALE
 40
2.5
  9
$DIMASZ
 40
2.5
  9
$DIMEXO
 40
0.625
  9
$DIMDLI
 40
3.75
  9
$DIMRND
 40
0
  9
$DIMDLE
 40
0
  9
$DIMEXE
 40
1.25
  9
$DIMTP
 40
0
  9
$DIMTM
 40
0
  9
$DIMTXT
 40
2.5
  9
$DIMCEN
 40
2.5
  9
$DIMTSZ
 40
0
  9
$DIMTOL
 70
    0
  9
$DIMLIM
 70
    0
  9
$DIMTIH
 70
    0
  9
$DIMTOH
 70
    0
  9
$DIMSE1
 70
    0
  9
$DIMSE2
 70
    0
  9
$DIMTAD
 70
    1
  9
$DIMZIN
 70
    8
  9
$DIMBLK
  1

  9
$DIMASO
 70
    1
  9
$DIMSHO
 70
    1
  9
$DIMPOST
  1

  9
$DIMAPOST
  1

  9
$DIMALT
 70
    0
  9
$DIMALTD
 70
    3
  9
$DIMALTF
 40
0.03937
  9
$DIMLFAC
 40
1
  9
$DIMTOFL
 70
    1
  9
$DIMTVP
 40
0
  9
$DIMTIX
 70
    0
  9
$DIMSOXD
 70
    0
  9
$DIMSAH
 70
    0
  9
$DIMBLK1
  1

  9
$DIMBLK2
  1

  9
$DIMSTYLE
  2
STANDARD
  9
$DIMCLRD
 70
    0
  9
$DIMCLRE
 70
    0
  9
$DIMCLRT
 70
    0
  9
$DIMTFAC
 40
1
  9
$DIMGAP
 40
0.625
  9
$DIMJUST
 70
    0
  9
$DIMSD1
 70
    0
  9
$DIMSD2
 70
    0
  9
$DIMTOLJ
 70
    0
  9
$DIMTZIN
 70
    8
  9
$DIMALTZ
 70
    0
  9
$DIMALTTZ
 70
    0
  9
$DIMUPT
 70
    0
  9
$DIMDEC
 70
    2
  9
$DIMTDEC
 70
    2
  9
$DIMALTU
 70
    2
  9
$DIMALTTD
 70
    3
  9
$DIMTXSTY
  7
STANDARD
  9
$DIMAUNIT
 70
    0
  9
$DIMADEC
 70
    0
  9
$DIMALTRND
 40
0
  9
$DIMAZIN
 70
    0
  9
$DIMDSEP
 70
   44
  9
$DIMATFIT
 70
    3
  9
$DIMFRAC
 70
    0
  9
$DIMLDRBLK
  1
STANDARD
  9
$DIMLUNIT
 70
    2
  9
$DIMLWD
 70
   -2
  9
$DIMLWE
 70
   -2
  9
$DIMTMOVE
 70
    0
  9
$LUNITS
 70
    2
  9
$LUPREC
 70
    4
  9
$SKETCHINC
 40
1
  9
$FILLETRAD
 40
0
  9
$AUNITS
 70
    0
  9
$AUPREC
 70
    2
  9
$MENU
  1
.
  9
$ELEVATION
 40
0
  9
$PELEVATION
 40
0
  9
$THICKNESS
 40
0
  9
$LIMCHECK
 70
    0
  9
$CHAMFERA
 40
0
  9
$CHAMFERB
 40
0
  9
$CHAMFERC
 40
0
  9
$CHAMFERD
 40
0
  9
$SKPOLY
 70
    0
  9
$USRTIMER
 70
    1
  9
$ANGBASE
 50
0
  9
$ANGDIR
 70
    0
  9
$PDMODE
 70
   34
  9
$PDSIZE
 40
0
  9
$PLINEWID
 40
0
  9
$SPLFRAME
 70
    0
  9
$SPLINETYPE
 70
    2
  9
$SPLINESEGS
 70
    8
  9
$HANDSEED
  5
20000
  9
$SURFTAB1
 70
    6
  9
$SURFTAB2
 70
    6
  9
$SURFTYPE
 70
    6
  9
$SURFU
 70
    6
  9
$SURFV
 70
    6
  9
$UCSBASE
  2

  9
$UCSNAME
  2

  9
$UCSORG
 10
0
 20
0
 30
0
  9
$UCSXDIR
 10
1
 20
0
 30
0
  9
$UCSYDIR
 10
0
 20
1
 30
0
  9
$UCSORTHOREF
  2

  9
$UCSORTHOVIEW
 70
    0
  9
$UCSORGTOP
 10
0
 20
0
 30
0
  9
$UCSORGBOTTOM
 10
0
 20
0
 30
0
  9
$UCSORGLEFT
 10
0
 20
0
 30
0
  9
$UCSORGRIGHT
 10
0
 20
0
 30
0
  9
$UCSORGFRONT
 10
0
 20
0
 30
0
  9
$UCSORGBACK
 10
0
 20
0
 30
0
  9
$PUCSBASE
  2

  9
$PUCSNAME
  2

  9
$PUCSORG
 10
0
 20
0
 30
0
  9
$PUCSXDIR
 10
1
 20
0
 30
0
  9
$PUCSYDIR
 10
0
 20
1
 30
0
  9
$PUCSORTHOREF
  2

  9
$PUCSORTHOVIEW
 70
    0
  9
$PUCSORGTOP
 10
0
 20
0
 30
0
  9
$PUCSORGBOTTOM
 10
0
 20
0
 30
0
  9
$PUCSORGLEFT
 10
0
 20
0
 30
0
  9
$PUCSORGRIGHT
 10
0
 20
0
 30
0
  9
$PUCSORGFRONT
 10
0
 20
0
 30
0
  9
$PUCSORGBACK
 10
0
 20
0
 30
0
  9
$USERI1
 70
    0
  9
$USERI2
 70
    0
  9
$USERI3
 70
    0
  9
$USERI4
 70
    0
  9
$USERI5
 70
    0
  9
$USERR1
 40
0
  9
$USERR2
 40
0
  9
$USERR3
 40
0
  9
$USERR4
 40
0
  9
$USERR5
 40
0
  9
$WORLDVIEW
 70
    1
  9
$SHADEDGE
 70
    3
  9
$SHADEDIF
 70
   70
  9
$TILEMODE
 70
    1
  9
$MAXACTVP
 70
   64
  9
$PINSBASE
 10
0
 20
0
 30
0
  9
$PLIMCHECK
 70
    0
  9
$PEXTMIN
 10
0
 20
0
 30
0
  9
$PEXTMAX
 10
0
 20
0
 30
0
  9
$PLIMMIN
 10
0
 20
0
  9
$PLIMMAX
 10
297
 20
210
  9
$UNITMODE
 70
    0
  9
$VISRETAIN
 70
    1
  9
$PLINEGEN
 70
    0
  9
$PSLTSCALE
 70
    1
  9
$TREEDEPTH
 70
 3020
  9
$CMLSTYLE
  2
Standard
  9
$CMLJUST
 70
    0
  9
$CMLSCALE
 40
20
  9
$PROXYGRAPHICS
 70
    1
  9
$MEASUREMENT
 70
    1
  9
$CELWEIGHT
370
   -1
  9
$ENDCAPS
280
    0
  9
$JOINSTYLE
280
    0
  9
$LWDISPLAY
290
    0
  9
$INSUNITS
 70
    0
  9
$HYPERLINKBASE
  1

  9
$STYLESHEET
  1

  9
$XEDIT
290
    1
  9
$CEPSNTYPE
380
    0
  9
$PSTYLEMODE
290
    1
  9
$EXTNAMES
290
    1
  9
$PSVPSCALE
 40
0
  9
$OLESTARTUP
290
    0
  9
$SORTENTS
280
  127
  9
$INDEXCTL
280
    0
  9
$HIDETEXT
280
    1
  9
$XCLIPFRAME
290
    0
  9
$HALOGAP
280
    0
  9
$OBSCOLOR
 70
  257
  9
$OBSLTYPE
280
    0
  9
$INTERSECTIONDISPLAY
280
    0
  9
$INTERSECTIONCOLOR
 70
  257
  9
$DIMASSOC
280
    1
  9
$PROJECTNAME
  1

  0
ENDSEC
  0
SECTION
  2
CLASSES
  0
ENDSEC
  0
SECTION
  2
TABLES
  0
TABLE
  2
VPORT
  5
8
330
0
100
AcDbSymbolTable
 70
    1
  0
VPORT
  5
31
330
2
100
AcDbSymbolTableRecord
100
AcDbViewportTableRecord
  2
*ACTIVE
 70
    0
 10
0
 20
0
 11
1
 21
1
 12
705.071
 22
270.068
 13
0
 23
0
 14
10
 24
10
 15
10
 25
10
 16
0
 26
0
 36
1
 17
0
 27
0
 37
0
 40
705.071
 41
2.4426877
 42
50
 43
0
 44
0
 50
0
 51
0
 71
    0
 72
  100
 73
    1
 74
    3
 75
    0
 76
    0
 77
    0
 78
    0
281
    0
 65
    1
110
0
120
0
130
0
111
1
121
0
131
0
112
0
122
1
132
0
 79
    0
146
0
  0
ENDTAB
  0
TABLE
  2
LTYPE
  5
5
330
0
100
AcDbSymbolTable
 70
    4
  0
LTYPE
  5
14
330
5
100
AcDbSymbolTableRecord
100
AcDbLinetypeTableRecord
  2
ByBlock
 70
    0
  3

 72
   65
 73
    0
 40
0
  0
LTYPE
  5
15
330
5
100
AcDbSymbolTableRecord
100
AcDbLinetypeTableRecord
  2
ByLayer
 70
    0
  3

 72
   65
 73
    0
 40
0
  0
LTYPE
  5
16
330
5
100
AcDbSymbolTableRecord
100
AcDbLinetypeTableRecord
  2
Continuous
 70
    0
  3
Solid line
 72
   65
 73
    0
 40
0
  0
ENDTAB
  0
TABLE
  2
LAYER
  5
2
330
0
100
AcDbSymbolTable
 70
    1
  0
LAYER
  5
10
330
2
100
AcDbSymbolTableRecord
100
AcDbLayerTableRecord
  2
0
 70
    0
 62
    7
  6
CONTINUOUS
370
   -3
390
F
  0
ENDTAB
  0
TABLE
  2
STYLE
  5
3
330
0
100
AcDbSymbolTable
 70
    3
  0
STYLE
  5
32
330
2
100
AcDbSymbolTableRecord
100
AcDbTextStyleTableRecord
  2
Standard
 70
    0
 40
0
 41
1
 50
0
 71
    0
 42
1
  3
txt
  4

  0
ENDTAB
  0
TABLE
  2
VIEW
  5
6
330
0
100
AcDbSymbolTable
 70
    0
  0
ENDTAB
  0
TABLE
  2
UCS
  5
7
330
0
100
AcDbSymbolTable
 70
    0
  0
ENDTAB
  0
TABLE
  2
APPID
  5
9
330
0
100
AcDbSymbolTable
 70
    1
  0
APPID
  5
12
330
9
100
AcDbSymbolTableRecord
100
AcDbRegAppTableRecord
  2
ACAD
 70
    0
  0
ENDTAB
  0
TABLE
  2
DIMSTYLE
  5
A
330
0
100
AcDbSymbolTable
 70
    1
100
AcDbDimStyleTable
 71
    1
  0
DIMSTYLE
105
33
330
A
100
AcDbSymbolTableRecord
100
AcDbDimStyleTableRecord
  2
Standard
 70
    0
 40
1
 41
0.18
 42
0.0625
 43
0.38
 44
0.18
 45
0
 46
0
 47
0
 48
0
140
0.18
141
0.09
142
0
143
25.4
144
1
145
0
146
1
147
0.09
148
0
 71
    0
 72
    0
 73
    0
 74
    1
 75
    0
 76
    0
 77
    0
 78
    0
 79
    0
170
    0
171
    2
172
    0
173
    0
174
    0
175
    0
176
    0
177
    0
178
    0
179
    0
271
    4
272
    4
273
    2
274
    2
275
    0
276
    0
277
    2
278
   46
279
    0
280
    0
281
    0
282
    0
283
    1
284
    0
285
    0
286
    0
288
    0
289
    3
340
Standard
341

371
   -2
372
   -2
  0
ENDTAB
  0
TABLE
  2
BLOCK_RECORD
  5
1
330
0
100
AcDbSymbolTable
 70
    2
  0
BLOCK_RECORD
  5
1F
330
1
100
AcDbSymbolTableRecord
100
AcDbBlockTableRecord
  2
*Model_Space
  0
BLOCK_RECORD
  5
1E
330
1
100
AcDbSymbolTableRecord
100
AcDbBlockTableRecord
  2
*Paper_Space
  0
ENDTAB
  0
ENDSEC
  0
SECTION
  2
BLOCKS
  0
BLOCK
  5
20
330
1F
100
AcDbEntity
  8
0
100
AcDbBlockBegin
  2
*Model_Space
 70
    0
 10
0
 20
0
 30
0
  3
*Model_Space
  1

  0
ENDBLK
  5
21
330
1F
100
AcDbEntity
  8
0
100
AcDbBlockEnd
  0
BLOCK
  5
1C
330
1B
100
AcDbEntity
  8
0
100
AcDbBlockBegin
  2
*Paper_Space
 70
    0
 10
0
 20
0
 30
0
  3
*Paper_Space
  1

  0
ENDBLK
  5
1D
330
1F
100
AcDbEntity
  8
0
100
AcDbBlockEnd
  0
ENDSEC
  0
SECTION
  2
ENTITIES
  0
HATCH
  5
34
100
AcDbEntity
  8
0
  6
BYLAYER
 62
   19
370
   -1
100
AcDbHatch
 10
0
 20
0
 30
0
210
0
220
0
230
1
  2
SOLID
 70
    1
 71
    0
 91
   11
 92
    0
 93
    1
 72
    4
 94
    3
 73
    0
 74
    1
 95
   59
 96
   55
 40
0
 40
0
 40
0
 40
0
 40
1
 40
1
 40
1
 40
2
 40
2
 40
2
 40
3
 40
3
 40
3
 40
4
 40
4
 40
4
 40
5
 40
5
 40
5
 40
6
 40
6
 40
6
 40
7
 40
7
 40
7
 40
8
 40
8
 40
8
 40
9
 40
9
 40
9
 40
10
 40
10
 40
10
 40
11
 40
11
 40
11
 40
12
 40
12
 40
12
 40
13
 40
13
 40
13
 40
14
 40
14
 40
14
 40
15
 40
15
 40
15
 40
16
 40
16
 40
16
 40
17
 40
17
 40
17
 40
18
 40
18
 40
18
 40
18
 10
6.001
 20
308.357
 10
16.154
 20
308.031
 10
23.284
 20
305.479
 10
27.395
 20
300.702
 10
31.502
 20
295.922
 10
33.559
 20
285.673
 10
33.559
 20
269.96
 10
33.559
 20
269.96
 10
33.559
 20
59.264
 10
33.559
 20
59.264
 10
33.559
 20
44.451
 10
31.683
 20
34.388
 10
27.939
 20
29.076
 10
24.191
 20
23.764
 10
16.879
 20
21.026
 10
6.001
 20
20.867
 10
6.001
 20
20.867
 10
6.001
 20
9.202
 10
6.001
 20
9.202
 10
6.001
 20
9.202
 10
94.657
 20
9.202
 10
94.657
 20
9.202
 10
94.657
 20
9.202
 10
94.657
 20
20.867
 10
94.657
 20
20.867
 10
76.28400000000001
 20
21.641
 10
67.099
 20
34.442
 10
67.099
 20
59.264
 10
67.099
 20
59.264
 10
67.099
 20
163.032
 10
67.099
 20
163.032
 10
72.054
 20
160.116
 10
76.828
 20
157.887
 10
81.422
 20
156.349
 10
86.014
 20
154.808
 10
90.425
 20
154.041
 10
94.657
 20
154.041
 10
113.994
 20
154.041
 10
132.821
 20
165.827
 10
151.133
 20
189.4
 10
169.444
 20
212.973
 10
178.6
 20
237.962
 10
178.6
 20
264.371
 10
178.6
 20
280.896
 10
173.946
 20
294.3
 10
164.64
 20
304.59
 10
155.331
 20
314.877
 10
140.708
 20
320.022
 10
120.765
 20
320.022
 10
120.765
 20
320.022
 10
6.001
 20
320.022
 10
6.001
 20
320.022
 10
6.001
 20
320.022
 10
6.001
 20
308.357
 10
6.001
 20
308.357
 97
    0
 92
    0
 93
    1
 72
    4
 94
    3
 73
    0
 74
    1
 95
   29
 96
   25
 40
0
 40
0
 40
0
 40
0
 40
1
 40
1
 40
1
 40
2
 40
2
 40
2
 40
3
 40
3
 40
3
 40
4
 40
4
 40
4
 40
5
 40
5
 40
5
 40
6
 40
6
 40
6
 40
7
 40
7
 40
7
 40
8
 40
8
 40
8
 40
8
 10
99.91500000000001
 20
308.357
 10
113.813
 20
308.357
 10
124.419
 20
301.173
 10
131.733
 20
286.812
 10
139.045
 20
272.447
 10
142.702
 20
254.715
 10
142.702
 20
233.618
 10
142.702
 20
213.166
 10
139.861
 20
197.826
 10
134.181
 20
187.604
 10
128.498
 20
177.378
 10
119.977
 20
172.267
 10
108.617
 20
172.267
 10
102.572
 20
172.267
 10
96.077
 20
174.211
 10
89.128
 20
178.107
 10
82.176
 20
182.003
 10
74.833
 20
187.847
 10
67.099
 20
195.639
 10
67.099
 20
195.639
 10
67.099
 20
292.778
 10
67.099
 20
292.778
 10
77.73399999999999
 20
303.163
 10
88.67400000000001
 20
308.357
 10
99.91500000000001
 20
308.357
 97
    0
 92
    0
 93
    1
 72
    4
 94
    3
 73
    0
 74
    1
 95
   98
 96
   94
 40
0
 40
0
 40
0
 40
0
 40
1
 40
1
 40
1
 40
2
 40
2
 40
2
 40
3
 40
3
 40
3
 40
4
 40
4
 40
4
 40
5
 40
5
 40
5
 40
6
 40
6
 40
6
 40
7
 40
7
 40
7
 40
8
 40
8
 40
8
 40
9
 40
9
 40
9
 40
10
 40
10
 40
10
 40
11
 40
11
 40
11
 40
12
 40
12
 40
12
 40
13
 40
13
 40
13
 40
14
 40
14
 40
14
 40
15
 40
15
 40
15
 40
16
 40
16
 40
16
 40
17
 40
17
 40
17
 40
18
 40
18
 40
18
 40
19
 40
19
 40
19
 40
20
 40
20
 40
20
 40
21
 40
21
 40
21
 40
22
 40
22
 40
22
 40
23
 40
23
 40
23
 40
24
 40
24
 40
24
 40
25
 40
25
 40
25
 40
26
 40
26
 40
26
 40
27
 40
27
 40
27
 40
28
 40
28
 40
28
 40
29
 40
29
 40
29
 40
30
 40
30
 40
30
 40
31
 40
31
 40
31
 40
31
 10
182.48
 20
259.998
 10
182.48
 20
259.998
 10
182.48
 20
250.586
 10
182.48
 20
250.586
 10
188.604
 20
253.068
 10
194.027
 20
254.312
 10
198.752
 20
254.312
 10
207.173
 20
254.312
 10
211.386
 20
250.454
 10
211.386
 20
242.742
 10
211.386
 20
242.742
 10
211.386
 20
49.204
 10
211.386
 20
49.204
 10
211.386
 20
37.438
 10
209.039
 20
29.463
 10
204.35
 20
25.281
 10
199.658
 20
21.096
 10
192.431
 20
18.874
 10
182.67
 20
18.614
 10
182.67
 20
18.614
 10
182.67
 20
9.202
 10
182.67
 20
9.202
 10
182.67
 20
9.202
 10
269.2
 20
9.202
 10
269.2
 20
9.202
 10
269.2
 20
9.202
 10
269.2
 20
18.614
 10
269.2
 20
18.614
 10
269.2
 20
18.614
 10
261.64
 20
18.614
 10
261.64
 20
18.614
 10
246.141
 20
18.587
 10
238.391
 20
31.78
 10
238.391
 20
58.193
 10
238.391
 20
86.43600000000001
 10
245.11
 20
112.427
 10
258.553
 20
136.16
 10
271.993
 20
159.892
 10
286.539
 20
171.759
 10
302.193
 20
171.759
 10
308.878
 20
171.759
 10
313.894
 20
169.632
 10
317.24
 20
165.386
 10
320.586
 20
161.136
 10
322.259
 20
154.763
 10
322.259
 20
146.267
 10
322.259
 20
146.267
 10
322.259
 20
29.203
 10
322.259
 20
29.203
 10
322.259
 20
22.404
 10
319.469
 20
18.874
 10
313.891
 20
18.614
 10
313.891
 20
18.614
 10
313.891
 20
9.202
 10
313.891
 20
9.202
 10
313.891
 20
9.202
 10
380.453
 20
9.202
 10
380.453
 20
9.202
 10
380.453
 20
9.202
 10
380.453
 20
18.614
 10
380.453
 20
18.614
 10
369.803
 20
18.874
 10
362.291
 20
21.227
 10
357.917
 20
25.673
 10
353.543
 20
30.116
 10
351.356
 20
37.959
 10
351.356
 20
49.204
 10
351.356
 20
49.204
 10
351.356
 20
151.562
 10
351.356
 20
151.562
 10
351.356
 20
165.68
 10
348.628
 20
176.397
 10
343.179
 20
183.72
 10
337.726
 20
190.908
 10
330.119
 20
194.505
 10
320.357
 20
194.505
 10
308.567
 20
194.505
 10
296.015
 20
189.079
 10
282.703
 20
178.23
 10
269.39
 20
167.377
 10
255.317
 20
151.102
 10
240.483
 20
129.404
 10
240.483
 20
129.404
 10
240.483
 20
264.312
 10
240.483
 20
264.312
 10
240.483
 20
271.632
 10
243.081
 20
276.338
 10
248.281
 20
278.431
 10
248.281
 20
278.431
 10
248.281
 20
286.862
 10
248.281
 20
286.862
 10
248.281
 20
286.862
 10
182.48
 20
259.998
 10
182.48
 20
259.998
 97
    0
 92
    0
 93
    1
 72
    4
 94
    3
 73
    0
 74
    1
 95
   29
 96
   25
 40
0
 40
0
 40
0
 40
0
 40
1
 40
1
 40
1
 40
2
 40
2
 40
2
 40
3
 40
3
 40
3
 40
4
 40
4
 40
4
 40
5
 40
5
 40
5
 40
6
 40
6
 40
6
 40
7
 40
7
 40
7
 40
8
 40
8
 40
8
 40
8
 10
402.751
 20
148.355
 10
384.892
 20
130.294
 10
375.965
 20
107.735
 10
375.965
 20
80.676
 10
375.965
 20
57.968
 10
382.239
 20
39.526
 10
394.792
 20
25.35
 10
407.343
 20
11.171
 10
424.459
 20
4.084
 10
446.14
 20
4.084
 10
467.818
 20
4.084
 10
487.673
 20
12.996
 10
505.703
 20
30.82
 10
523.731
 20
48.645
 10
532.746
 20
71.32299999999999
 10
532.746
 20
98.85299999999999
 10
532.746
 20
122.03
 10
526.269
 20
140.591
 10
513.3200000000001
 20
154.532
 10
500.368
 20
168.474
 10
483.11
 20
175.445
 10
461.544
 20
175.445
 10
440.206
 20
175.445
 10
420.608
 20
166.414
 10
402.751
 20
148.355
 97
    0
 92
    0
 93
    1
 72
    4
 94
    3
 73
    0
 74
    1
 95
   32
 96
   28
 40
0
 40
0
 40
0
 40
0
 40
1
 40
1
 40
1
 40
2
 40
2
 40
2
 40
3
 40
3
 40
3
 40
4
 40
4
 40
4
 40
5
 40
5
 40
5
 40
6
 40
6
 40
6
 40
7
 40
7
 40
7
 40
8
 40
8
 40
8
 40
9
 40
9
 40
9
 40
9
 10
474.552
 20
152.238
 10
483.68
 20
145.943
 10
491.78
 20
136.294
 10
498.857
 20
123.296
 10
505.931
 20
110.294
 10
509.469
 20
95.616
 10
509.469
 20
79.264
 10
509.469
 20
61.616
 10
505.045
 20
47.321
 10
496.204
 20
36.379
 10
487.36
 20
25.438
 10
476.547
 20
19.967
 10
463.769
 20
19.967
 10
446.538
 20
19.967
 10
431.447
 20
28.289
 10
418.498
 20
44.939
 10
405.546
 20
61.586
 10
399.071
 20
80.499
 10
399.071
 20
101.677
 10
399.071
 20
118.853
 10
403.179
 20
133.148
 10
411.395
 20
144.561
 10
419.61
 20
155.972
 10
431.477
 20
161.68
 10
446.996
 20
161.68
 10
456.238
 20
161.68
 10
465.422
 20
158.531
 10
474.552
 20
152.238
 97
    0
 92
    0
 93
    1
 72
    4
 94
    3
 73
    0
 74
    1
 95
   44
 96
   40
 40
0
 40
0
 40
0
 40
0
 40
1
 40
1
 40
1
 40
2
 40
2
 40
2
 40
3
 40
3
 40
3
 40
4
 40
4
 40
4
 40
5
 40
5
 40
5
 40
6
 40
6
 40
6
 40
7
 40
7
 40
7
 40
8
 40
8
 40
8
 40
9
 40
9
 40
9
 40
10
 40
10
 40
10
 40
11
 40
11
 40
11
 40
12
 40
12
 40
12
 40
13
 40
13
 40
13
 40
13
 10
681.534
 20
63.074
 10
661.864
 20
39.622
 10
642.58
 20
27.896
 10
623.682
 20
27.896
 10
608.519
 20
27.896
 10
595.771
 20
34.608
 10
585.444
 20
48.034
 10
575.115
 20
61.459
 10
569.951
 20
78.199
 10
569.951
 20
98.252
 10
569.951
 20
100.291
 10
570.059
 20
103.52
 10
570.2809999999999
 20
107.939
 10
570.2809999999999
 20
107.939
 10
676.5890000000001
 20
107.939
 10
676.5890000000001
 20
107.939
 10
676.038
 20
125.044
 10
670.986
 20
139.548
 10
661.426
 20
151.444
 10
651.866
 20
163.34
 10
638.954
 20
169.288
 10
622.694
 20
169.288
 10
602.474
 20
169.288
 10
584.921
 20
159.968
 10
570.034
 20
141.332
 10
555.143
 20
122.695
 10
547.701
 20
101.762
 10
547.701
 20
78.539
 10
547.701
 20
58.371
 10
553.9640000000001
 20
40.952
 10
566.49
 20
26.281
 10
579.016
 20
11.608
 10
593.4640000000001
 20
4.274
 10
609.837
 20
4.274
 10
633.131
 20
4.274
 10
657.03
 20
20.134
 10
681.534
 20
51.858
 10
681.534
 20
51.858
 10
681.534
 20
63.074
 10
681.534
 20
63.074
 97
    0
 92
    0
 93
    1
 72
    4
 94
    3
 73
    0
 74
    1
 95
   20
 96
   16
 40
0
 40
0
 40
0
 40
0
 40
1
 40
1
 40
1
 40
2
 40
2
 40
2
 40
3
 40
3
 40
3
 40
4
 40
4
 40
4
 40
5
 40
5
 40
5
 40
5
 10
571.764
 20
116.436
 10
573.521
 20
128.558
 10
578.3
 20
138.613
 10
586.103
 20
146.601
 10
593.904
 20
154.588
 10
602.75
 20
158.582
 10
612.639
 20
158.582
 10
622.088
 20
158.582
 10
630.275
 20
154.899
 10
637.197
 20
147.535
 10
644.12
 20
140.169
 10
648.24
 20
129.803
 10
649.559
 20
116.436
 10
649.559
 20
116.436
 10
571.764
 20
116.436
 10
571.764
 20
116.436
 97
    0
 92
    0
 93
    1
 72
    4
 94
    3
 73
    0
 74
    1
 95
   92
 96
   88
 40
0
 40
0
 40
0
 40
0
 40
1
 40
1
 40
1
 40
2
 40
2
 40
2
 40
3
 40
3
 40
3
 40
4
 40
4
 40
4
 40
5
 40
5
 40
5
 40
6
 40
6
 40
6
 40
7
 40
7
 40
7
 40
8
 40
8
 40
8
 40
9
 40
9
 40
9
 40
10
 40
10
 40
10
 40
11
 40
11
 40
11
 40
12
 40
12
 40
12
 40
13
 40
13
 40
13
 40
14
 40
14
 40
14
 40
15
 40
15
 40
15
 40
16
 40
16
 40
16
 40
17
 40
17
 40
17
 40
18
 40
18
 40
18
 40
19
 40
19
 40
19
 40
20
 40
20
 40
20
 40
21
 40
21
 40
21
 40
22
 40
22
 40
22
 40
23
 40
23
 40
23
 40
24
 40
24
 40
24
 40
25
 40
25
 40
25
 40
26
 40
26
 40
26
 40
27
 40
27
 40
27
 40
28
 40
28
 40
28
 40
29
 40
29
 40
29
 40
29
 10
689.775
 20
138.13
 10
696.283
 20
140.851
 10
700.794
 20
142.215
 10
703.3150000000001
 20
142.215
 10
710.241
 20
142.215
 10
713.706
 20
136.822
 10
713.706
 20
126.038
 10
713.706
 20
126.038
 10
713.706
 20
42.537
 10
713.706
 20
42.537
 10
713.706
 20
32.949
 10
711.841
 20
26.359
 10
708.117
 20
22.764
 10
704.39
 20
19.17
 10
698.276
 20
17.262
 10
689.775
 20
17.045
 10
689.775
 20
17.045
 10
689.775
 20
9.202
 10
689.775
 20
9.202
 10
689.775
 20
9.202
 10
761.725
 20
9.202
 10
761.725
 20
9.202
 10
761.725
 20
9.202
 10
761.725
 20
17.045
 10
761.725
 20
17.045
 10
752.003
 20
17.262
 10
745.2430000000001
 20
19.412
 10
741.4400000000001
 20
23.492
 10
737.636
 20
27.572
 10
735.735
 20
35.975
 10
735.735
 20
48.705
 10
735.735
 20
73.837
 10
741.465
 20
96.114
 10
752.9299999999999
 20
115.534
 10
764.3920000000001
 20
134.954
 10
776.7809999999999
 20
144.666
 10
790.093
 20
144.666
 10
794.635
 20
144.666
 10
798.3339999999999
 20
142.95
 10
801.187
 20
139.524
 10
804.04
 20
136.097
 10
805.466
 20
131.555
 10
805.466
 20
125.897
 10
805.466
 20
125.897
 10
805.466
 20
25.042
 10
805.466
 20
25.042
 10
805.466
 20
19.928
 10
803.247
 20
17.262
 10
798.809
 20
17.045
 10
798.809
 20
17.045
 10
798.809
 20
9.202
 10
798.809
 20
9.202
 10
798.809
 20
9.202
 10
853.961
 20
9.202
 10
853.961
 20
9.202
 10
853.961
 20
9.202
 10
853.961
 20
17.045
 10
853.961
 20
17.045
 10
845.5069999999999
 20
17.262
 10
839.353
 20
19.142
 10
835.498
 20
22.683
 10
831.64
 20
26.222
 10
829.713
 20
32.84
 10
829.713
 20
42.537
 10
829.713
 20
42.537
 10
829.713
 20
128.162
 10
829.713
 20
128.162
 10
829.713
 20
151.8
 10
820.784
 20
163.621
 10
802.9299999999999
 20
163.621
 10
794.159
 20
163.621
 10
784.864
 20
159.88
 10
775.038
 20
152.402
 10
765.212
 20
144.924
 10
752.692
 20
130.705
 10
737.478
 20
109.743
 10
737.478
 20
109.743
 10
737.478
 20
163.621
 10
737.478
 20
163.621
 10
737.478
 20
163.621
 10
730.8440000000001
 20
163.621
 10
730.8440000000001
 20
163.621
 10
730.8440000000001
 20
163.621
 10
689.775
 20
146.3
 10
689.775
 20
146.3
 10
689.775
 20
146.3
 10
689.775
 20
138.13
 10
689.775
 20
138.13
 97
    0
 92
    0
 93
    1
 72
    4
 94
    3
 73
    0
 74
    1
 95
   29
 96
   25
 40
0
 40
0
 40
0
 40
0
 40
1
 40
1
 40
1
 40
2
 40
2
 40
2
 40
3
 40
3
 40
3
 40
4
 40
4
 40
4
 40
5
 40
5
 40
5
 40
6
 40
6
 40
6
 40
7
 40
7
 40
7
 40
8
 40
8
 40
8
 40
8
 10
894.111
 20
216.567
 10
891.192
 20
213.767
 10
889.735
 20
210.189
 10
889.735
 20
205.834
 10
889.735
 20
201.684
 10
891.143
 20
198.184
 10
893.96
 20
195.333
 10
896.774
 20
192.479
 10
900.146
 20
191.055
 10
904.068
 20
191.055
 10
908.09
 20
191.055
 10
911.511
 20
192.506
 10
914.328
 20
195.411
 10
917.1420000000001
 20
198.313
 10
918.552
 20
201.789
 10
918.552
 20
205.834
 10
918.552
 20
209.878
 10
917.168
 20
213.378
 10
914.403
 20
216.334
 10
911.636
 20
219.29
 10
908.09
 20
220.768
 10
903.7670000000001
 20
220.768
 10
900.245
 20
220.768
 10
897.027
 20
219.367
 10
894.111
 20
216.567
 97
    0
 92
    0
 93
    1
 72
    4
 94
    3
 73
    0
 74
    1
 95
   50
 96
   46
 40
0
 40
0
 40
0
 40
0
 40
1
 40
1
 40
1
 40
2
 40
2
 40
2
 40
3
 40
3
 40
3
 40
4
 40
4
 40
4
 40
5
 40
5
 40
5
 40
6
 40
6
 40
6
 40
7
 40
7
 40
7
 40
8
 40
8
 40
8
 40
9
 40
9
 40
9
 40
10
 40
10
 40
10
 40
11
 40
11
 40
11
 40
12
 40
12
 40
12
 40
13
 40
13
 40
13
 40
14
 40
14
 40
14
 40
15
 40
15
 40
15
 40
15
 10
869.518
 20
9.202
 10
869.518
 20
9.202
 10
938.769
 20
9.202
 10
938.769
 20
9.202
 10
938.769
 20
9.202
 10
938.769
 20
16.669
 10
938.769
 20
16.669
 10
930.822
 20
16.875
 10
924.9880000000001
 20
18.665
 10
921.268
 20
22.036
 10
917.546
 20
25.405
 10
915.686
 20
31.705
 10
915.686
 20
40.937
 10
915.686
 20
40.937
 10
915.686
 20
156.053
 10
915.686
 20
156.053
 10
915.686
 20
156.053
 10
908.269
 20
156.053
 10
908.269
 20
156.053
 10
908.269
 20
156.053
 10
869.518
 20
140.342
 10
869.518
 20
140.342
 10
869.518
 20
140.342
 10
869.518
 20
132.408
 10
869.518
 20
132.408
 10
870.322
 20
132.614
 10
871.529
 20
133.081
 10
873.139
 20
133.808
 10
876.256
 20
135.154
 10
879.122
 20
135.83
 10
881.739
 20
135.83
 10
888.981
 20
135.83
 10
892.602
 20
132.563
 10
892.602
 20
126.03
 10
892.602
 20
126.03
 10
892.602
 20
40.937
 10
892.602
 20
40.937
 10
892.602
 20
31.498
 10
890.6900000000001
 20
25.147
 10
886.869
 20
21.88
 10
883.045
 20
18.613
 10
877.2619999999999
 20
16.875
 10
869.518
 20
16.669
 10
869.518
 20
16.669
 10
869.518
 20
9.202
 10
869.518
 20
9.202
 97
    0
 92
    0
 93
    1
 72
    4
 94
    3
 73
    0
 74
    1
 95
  107
 96
  103
 40
0
 40
0
 40
0
 40
0
 40
1
 40
1
 40
1
 40
2
 40
2
 40
2
 40
3
 40
3
 40
3
 40
4
 40
4
 40
4
 40
5
 40
5
 40
5
 40
6
 40
6
 40
6
 40
7
 40
7
 40
7
 40
8
 40
8
 40
8
 40
9
 40
9
 40
9
 40
10
 40
10
 40
10
 40
11
 40
11
 40
11
 40
12
 40
12
 40
12
 40
13
 40
13
 40
13
 40
14
 40
14
 40
14
 40
15
 40
15
 40
15
 40
16
 40
16
 40
16
 40
17
 40
17
 40
17
 40
18
 40
18
 40
18
 40
19
 40
19
 40
19
 40
20
 40
20
 40
20
 40
21
 40
21
 40
21
 40
22
 40
22
 40
22
 40
23
 40
23
 40
23
 40
24
 40
24
 40
24
 40
25
 40
25
 40
25
 40
26
 40
26
 40
26
 40
27
 40
27
 40
27
 40
28
 40
28
 40
28
 40
29
 40
29
 40
29
 40
30
 40
30
 40
30
 40
31
 40
31
 40
31
 40
32
 40
32
 40
32
 40
33
 40
33
 40
33
 40
34
 40
34
 40
34
 40
34
 10
954.975
 20
141.689
 10
961.389
 20
141.484
 10
967.359
 20
138.915
 10
972.8869999999999
 20
133.981
 10
978.413
 20
129.044
 10
984.138
 20
122.252
 10
990.059
 20
113.604
 10
990.059
 20
113.604
 10
1014.538
 20
77.158
 10
1014.538
 20
77.158
 10
1014.538
 20
77.158
 10
994.784
 20
52.245
 10
994.784
 20
52.245
 10
976.526
 20
29.552
 10
961.229
 20
17.647
 10
948.894
 20
16.528
 10
948.894
 20
16.528
 10
948.894
 20
9.202
 10
948.894
 20
9.202
 10
948.894
 20
9.202
 10
1014.755
 20
9.202
 10
1014.755
 20
9.202
 10
1014.755
 20
9.202
 10
1014.755
 20
16.528
 10
1014.755
 20
16.528
 10
1002.913
 20
16.731
 10
996.991
 20
21.107
 10
996.991
 20
29.655
 10
996.991
 20
34.945
 10
998.643
 20
40.542
 10
1001.95
 20
46.445
 10
1005.256
 20
52.345
 10
1010.909
 20
60.413
 10
1018.912
 20
70.645
 10
1018.912
 20
70.645
 10
1049.21
 20
25.534
 10
1049.21
 20
25.534
 10
1050.887
 20
23.497
 10
1051.726
 20
21.565
 10
1051.726
 20
19.734
 10
1051.726
 20
17.597
 10
1050.098
 20
16.528
 10
1046.841
 20
16.528
 10
1046.841
 20
16.528
 10
1046.841
 20
9.202
 10
1046.841
 20
9.202
 10
1046.841
 20
9.202
 10
1099.835
 20
9.202
 10
1099.835
 20
9.202
 10
1099.835
 20
9.202
 10
1099.835
 20
16.528
 10
1099.835
 20
16.528
 10
1092.53
 20
16.834
 10
1085.943
 20
19.936
 10
1080.073
 20
25.841
 10
1074.2
 20
31.744
 10
1068.797
 20
38.31
 10
1063.863
 20
45.536
 10
1063.863
 20
45.536
 10
1033.972
 20
89.908
 10
1033.972
 20
89.908
 10
1049.746
 20
110.079
 10
1061.68
 20
123.652
 10
1069.773
 20
130.623
 10
1077.863
 20
137.592
 10
1085.858
 20
141.281
 10
1093.754
 20
141.689
 10
1093.754
 20
141.689
 10
1093.754
 20
149.015
 10
1093.754
 20
149.015
 10
1093.754
 20
149.015
 10
1033.821
 20
149.015
 10
1033.821
 20
149.015
 10
1033.821
 20
149.015
 10
1033.821
 20
141.689
 10
1033.821
 20
141.689
 10
1043.592
 20
141.484
 10
1048.477
 20
137.72
 10
1048.477
 20
130.394
 10
1048.477
 20
124.797
 10
1046.527
 20
119.199
 10
1042.63
 20
113.604
 10
1038.729
 20
108.007
 10
1034.418
 20
102.228
 10
1029.69
 20
96.26600000000001
 10
1029.69
 20
96.26600000000001
 10
1004.425
 20
133.769
 10
1004.425
 20
133.769
 10
1003.634
 20
134.885
 10
1003.241
 20
136.104
 10
1003.241
 20
137.425
 10
1003.241
 20
140.165
 10
1005.214
 20
141.586
 10
1009.162
 20
141.689
 10
1009.162
 20
141.689
 10
1009.162
 20
149.015
 10
1009.162
 20
149.015
 10
1009.162
 20
149.015
 10
954.975
 20
149.015
 10
954.975
 20
149.015
 10
954.975
 20
149.015
 10
954.975
 20
141.689
 10
954.975
 20
141.689
 97
    0
 75
    0
 76
    1
 98
    1
 10
0
 20
0
  0
HATCH
  5
35
100
AcDbEntity
  8
0
  6
BYLAYER
 62
   19
370
   -1
100
AcDbHatch
 10
0
 20
0
 30
0
210
0
220
0
230
1
  2
SOLID
 70
    1
 71
    0
 91
    1
 92
    0
 93
    1
 72
    4
 94
    3
 73
    0
 74
    1
 95
   32
 96
   28
 40
0
 40
0
 40
0
 40
0
 40
1
 40
1
 40
1
 40
2
 40
2
 40
2
 40
3
 40
3
 40
3
 40
4
 40
4
 40
4
 40
5
 40
5
 40
5
 40
6
 40
6
 40
6
 40
7
 40
7
 40
7
 40
8
 40
8
 40
8
 40
9
 40
9
 40
9
 40
9
 10
1357.2
 20
230.906
 10
1358.371
 20
228.377
 10
1349.54
 20
230.339
 10
1339.262
 20
232.128
 10
1327.137
 20
233.142
 10
1312.972
 20
238.587
 10
1300.051
 20
240.381
 10
1287.279
 20
242.153
 10
1275.181
 20
241.729
 10
1268.388
 20
234.024
 10
1272.656
 20
227.334
 10
1282.97
 20
225.958
 10
1291.677
 20
225.661
 10
1305.237
 20
225.197
 10
1319.153
 20
230.639
 10
1331.612
 20
227.766
 10
1315.78
 20
220.679
 10
1296.941
 20
216.242
 10
1274.718
 20
219.5
 10
1257.043
 20
222.091
 10
1248.358
 20
234.469
 10
1233.795
 20
238.28
 10
1252.25
 20
240.37
 10
1267.862
 20
249.943
 10
1288.507
 20
250.371
 10
1303.542
 20
250.683
 10
1358.331
 20
230.691
 10
1357.2
 20
230.906
 97
    0
 75
    0
 76
    1
 98
    1
 10
0
 20
0
  0
HATCH
  5
36
100
AcDbEntity
  8
0
  6
BYLAYER
 62
   19
370
   -1
100
AcDbHatch
 10
0
 20
0
 30
0
210
0
220
0
230
1
  2
SOLID
 70
    1
 71
    0
 91
    1
 92
    0
 93
    1
 72
    4
 94
    3
 73
    0
 74
    1
 95
   29
 96
   25
 40
0
 40
0
 40
0
 40
0
 40
1
 40
1
 40
1
 40
2
 40
2
 40
2
 40
3
 40
3
 40
3
 40
4
 40
4
 40
4
 40
5
 40
5
 40
5
 40
6
 40
6
 40
6
 40
7
 40
7
 40
7
 40
8
 40
8
 40
8
 40
8
 10
1329.842
 20
338.334
 10
1338.11
 20
339.789
 10
1349.741
 20
339.73
 10
1357.874
 20
338.091
 10
1359.212
 20
337.822
 10
1361.807
 20
338.623
 10
1361.867
 20
336.398
 10
1360.582
 20
334.385
 10
1358.336
 20
334.244
 10
1356.55
 20
333.768
 10
1350.233
 20
332.082
 10
1344.77
 20
330.982
 10
1338.552
 20
328.25
 10
1324.048
 20
321.879
 10
1306.209
 20
317.196
 10
1290.001
 20
324.721
 10
1294.674
 20
325.669
 10
1300.725
 20
324.707
 10
1306.206
 20
325.287
 10
1318.771
 20
326.618
 10
1330.541
 20
333.2
 10
1341.733
 20
335.695
 10
1338.865
 20
338.039
 10
1333.8
 20
337.447
 10
1329.842
 20
338.334
 97
    0
 75
    0
 76
    1
 98
    1
 10
0
 20
0
  0
HATCH
  5
37
100
AcDbEntity
  8
0
  6
BYLAYER
 62
   19
370
   -1
100
AcDbHatch
 10
0
 20
0
 30
0
210
0
220
0
230
1
  2
SOLID
 70
    1
 71
    0
 91
    3
 92
    0
 93
    1
 72
    4
 94
    3
 73
    0
 74
    1
 95
  581
 96
  577
 40
0
 40
0
 40
0
 40
0
 40
1
 40
1
 40
1
 40
2
 40
2
 40
2
 40
3
 40
3
 40
3
 40
4
 40
4
 40
4
 40
5
 40
5
 40
5
 40
6
 40
6
 40
6
 40
7
 40
7
 40
7
 40
8
 40
8
 40
8
 40
9
 40
9
 40
9
 40
10
 40
10
 40
10
 40
11
 40
11
 40
11
 40
12
 40
12
 40
12
 40
13
 40
13
 40
13
 40
14
 40
14
 40
14
 40
15
 40
15
 40
15
 40
16
 40
16
 40
16
 40
17
 40
17
 40
17
 40
18
 40
18
 40
18
 40
19
 40
19
 40
19
 40
20
 40
20
 40
20
 40
21
 40
21
 40
21
 40
22
 40
22
 40
22
 40
23
 40
23
 40
23
 40
24
 40
24
 40
24
 40
25
 40
25
 40
25
 40
26
 40
26
 40
26
 40
27
 40
27
 40
27
 40
28
 40
28
 40
28
 40
29
 40
29
 40
29
 40
30
 40
30
 40
30
 40
31
 40
31
 40
31
 40
32
 40
32
 40
32
 40
33
 40
33
 40
33
 40
34
 40
34
 40
34
 40
35
 40
35
 40
35
 40
36
 40
36
 40
36
 40
37
 40
37
 40
37
 40
38
 40
38
 40
38
 40
39
 40
39
 40
39
 40
40
 40
40
 40
40
 40
41
 40
41
 40
41
 40
42
 40
42
 40
42
 40
43
 40
43
 40
43
 40
44
 40
44
 40
44
 40
45
 40
45
 40
45
 40
46
 40
46
 40
46
 40
47
 40
47
 40
47
 40
48
 40
48
 40
48
 40
49
 40
49
 40
49
 40
50
 40
50
 40
50
 40
51
 40
51
 40
51
 40
52
 40
52
 40
52
 40
53
 40
53
 40
53
 40
54
 40
54
 40
54
 40
55
 40
55
 40
55
 40
56
 40
56
 40
56
 40
57
 40
57
 40
57
 40
58
 40
58
 40
58
 40
59
 40
59
 40
59
 40
60
 40
60
 40
60
 40
61
 40
61
 40
61
 40
62
 40
62
 40
62
 40
63
 40
63
 40
63
 40
64
 40
64
 40
64
 40
65
 40
65
 40
65
 40
66
 40
66
 40
66
 40
67
 40
67
 40
67
 40
68
 40
68
 40
68
 40
69
 40
69
 40
69
 40
70
 40
70
 40
70
 40
71
 40
71
 40
71
 40
72
 40
72
 40
72
 40
73
 40
73
 40
73
 40
74
 40
74
 40
74
 40
75
 40
75
 40
75
 40
76
 40
76
 40
76
 40
77
 40
77
 40
77
 40
78
 40
78
 40
78
 40
79
 40
79
 40
79
 40
80
 40
80
 40
80
 40
81
 40
81
 40
81
 40
82
 40
82
 40
82
 40
83
 40
83
 40
83
 40
84
 40
84
 40
84
 40
85
 40
85
 40
85
 40
86
 40
86
 40
86
 40
87
 40
87
 40
87
 40
88
 40
88
 40
88
 40
89
 40
89
 40
89
 40
90
 40
90
 40
90
 40
91
 40
91
 40
91
 40
92
 40
92
 40
92
 40
93
 40
93
 40
93
 40
94
 40
94
 40
94
 40
95
 40
95
 40
95
 40
96
 40
96
 40
96
 40
97
 40
97
 40
97
 40
98
 40
98
 40
98
 40
99
 40
99
 40
99
 40
100
 40
100
 40
100
 40
101
 40
101
 40
101
 40
102
 40
102
 40
102
 40
103
 40
103
 40
103
 40
104
 40
104
 40
104
 40
105
 40
105
 40
105
 40
106
 40
106
 40
106
 40
107
 40
107
 40
107
 40
108
 40
108
 40
108
 40
109
 40
109
 40
109
 40
110
 40
110
 40
110
 40
111
 40
111
 40
111
 40
112
 40
112
 40
112
 40
113
 40
113
 40
113
 40
114
 40
114
 40
114
 40
115
 40
115
 40
115
 40
116
 40
116
 40
116
 40
117
 40
117
 40
117
 40
118
 40
118
 40
118
 40
119
 40
119
 40
119
 40
120
 40
120
 40
120
 40
121
 40
121
 40
121
 40
122
 40
122
 40
122
 40
123
 40
123
 40
123
 40
124
 40
124
 40
124
 40
125
 40
125
 40
125
 40
126
 40
126
 40
126
 40
127
 40
127
 40
127
 40
128
 40
128
 40
128
 40
129
 40
129
 40
129
 40
130
 40
130
 40
130
 40
131
 40
131
 40
131
 40
132
 40
132
 40
132
 40
133
 40
133
 40
133
 40
134
 40
134
 40
134
 40
135
 40
135
 40
135
 40
136
 40
136
 40
136
 40
137
 40
137
 40
137
 40
138
 40
138
 40
138
 40
139
 40
139
 40
139
 40
140
 40
140
 40
140
 40
141
 40
141
 40
141
 40
142
 40
142
 40
142
 40
143
 40
143
 40
143
 40
144
 40
144
 40
144
 40
145
 40
145
 40
145
 40
146
 40
146
 40
146
 40
147
 40
147
 40
147
 40
148
 40
148
 40
148
 40
149
 40
149
 40
149
 40
150
 40
150
 40
150
 40
151
 40
151
 40
151
 40
152
 40
152
 40
152
 40
153
 40
153
 40
153
 40
154
 40
154
 40
154
 40
155
 40
155
 40
155
 40
156
 40
156
 40
156
 40
157
 40
157
 40
157
 40
158
 40
158
 40
158
 40
159
 40
159
 40
159
 40
160
 40
160
 40
160
 40
161
 40
161
 40
161
 40
162
 40
162
 40
162
 40
163
 40
163
 40
163
 40
164
 40
164
 40
164
 40
165
 40
165
 40
165
 40
166
 40
166
 40
166
 40
167
 40
167
 40
167
 40
168
 40
168
 40
168
 40
169
 40
169
 40
169
 40
170
 40
170
 40
170
 40
171
 40
171
 40
171
 40
172
 40
172
 40
172
 40
173
 40
173
 40
173
 40
174
 40
174
 40
174
 40
175
 40
175
 40
175
 40
176
 40
176
 40
176
 40
177
 40
177
 40
177
 40
178
 40
178
 40
178
 40
179
 40
179
 40
179
 40
180
 40
180
 40
180
 40
181
 40
181
 40
181
 40
182
 40
182
 40
182
 40
183
 40
183
 40
183
 40
184
 40
184
 40
184
 40
185
 40
185
 40
185
 40
186
 40
186
 40
186
 40
187
 40
187
 40
187
 40
188
 40
188
 40
188
 40
189
 40
189
 40
189
 40
190
 40
190
 40
190
 40
191
 40
191
 40
191
 40
192
 40
192
 40
192
 40
192
 10
1242.631
 20
142.695
 10
1237.864
 20
148.037
 10
1194.596
 20
183.017
 10
1183.763
 20
184.696
 10
1183.621
 20
180.85
 10
1190.774
 20
179.629
 10
1193.804
 20
177.103
 10
1183.923
 20
178.324
 10
1173.964
 20
179.462
 10
1164.931
 20
181.594
 10
1172.753
 20
184.637
 10
1175.361
 20
211.072
 10
1169.684
 20
213.521
 10
1168.55
 20
201.981
 10
1168.978
 20
186.283
 10
1160.659
 20
181.445
 10
1158.346
 20
182.342
 10
1155.888
 20
178.016
 10
1151.022
 20
177.442
 10
1153.574
 20
170.258
 10
1163.556
 20
171.044
 10
1165.57
 20
163.283
 10
1158.936
 20
167.355
 10
1145.992
 20
164.66
 10
1140.882
 20
170.365
 10
1141.509
 20
165.381
 10
1144.895
 20
158.215
 10
1144.487
 20
154.602
 10
1144.196
 20
152.013
 10
1145.214
 20
151.073
 10
1144.701
 20
148.5
 10
1141.373
 20
149.151
 10
1137.977
 20
149.73
 10
1136.03
 20
151.863
 10
1138.294
 20
154.475
 10
1136.269
 20
140.991
 10
1134.625
 20
139.592
 10
1130.013
 20
139.501
 10
1119.534
 20
149.287
 10
1116.479
 20
151.791
 10
1116.091
 20
149.645
 10
1109.658
 20
144.046
 10
1107.422
 20
142.473
 10
1105.075
 20
144.176
 10
1100.804
 20
146.642
 10
1098.597
 20
148.497
 10
1096.674
 20
145.173
 10
1091.235
 20
150.043
 10
1089.798
 20
146.266
 10
1089.798
 20
146.266
 10
1087.9
 20
157.049
 10
1085.238
 20
155.035
 10
1082.235
 20
152.764
 10
1082.783
 20
148.187
 10
1080.512
 20
146.614
 10
1079.481
 20
147.644
 10
1078.684
 20
151.321
 10
1075.907
 20
150.483
 10
1073.082
 20
149.767
 10
1072.88
 20
144.894
 10
1075.853
 20
145.021
 10
1074.327
 20
142.848
 10
1070.061
 20
144.078
 10
1068.491
 20
146.187
 10
1070.135
 20
141.663
 10
1069.536
 20
137.91
 10
1066.469
 20
135.008
 10
1064.335
 20
134.116
 10
1062.962
 20
135.433
 10
1061.007
 20
135.062
 10
1064.751
 20
133.32
 10
1061.282
 20
125.96
 10
1066.615
 20
122.169
 10
1062.563
 20
122.709
 10
1059.35
 20
125.602
 10
1057.674
 20
129.359
 10
1057.138
 20
130.559
 10
1057.69
 20
132.788
 10
1057.179
 20
134.554
 10
1056.703
 20
136.197
 10
1055.369
 20
137.627
 10
1055.305
 20
138.396
 10
1054.937
 20
142.803
 10
1050.011
 20
143.798
 10
1047.73
 20
145.572
 10
1046.629
 20
144.38
 10
1049.513
 20
143.833
 10
1049.603
 20
141.729
 10
1045.326
 20
138.548
 10
1046.354
 20
131.916
 10
1050.552
 20
127.244
 10
1045.886
 20
128.036
 10
1042.752
 20
131.404
 10
1041.357
 20
136.348
 10
1040.107
 20
140.776
 10
1043.851
 20
146.732
 10
1042.04
 20
150.272
 10
1044.265
 20
156.358
 10
1054.897
 20
163.805
 10
1060.968
 20
158.825
 10
1061.309
 20
159.774
 10
1062.606
 20
160.393
 10
1063.994
 20
160.981
 10
1072.317
 20
160.452
 10
1075.137
 20
152.92
 10
1082.981
 20
160.53
 10
1082.981
 20
160.53
 10
1071.958
 20
160.605
 10
1070.941
 20
160.57
 10
1068.08
 20
160.545
 10
1071.574
 20
161.481
 10
1070.856
 20
163.011
 10
1068.291
 20
165.253
 10
1064.868
 20
165.89
 10
1061.617
 20
165.133
 10
1057.951
 20
164.279
 10
1056.589
 20
159.875
 10
1053.875
 20
159.362
 10
1053.352
 20
160.722
 10
1054.12
 20
164.405
 10
1051.242
 20
164.77
 10
1048.37
 20
165.265
 10
1046.203
 20
160.896
 10
1048.971
 20
159.802
 10
1046.693
 20
158.438
 10
1043.296
 20
161.297
 10
1042.719
 20
163.862
 10
1042.381
 20
159.061
 10
1040.308
 20
155.876
 10
1036.327
 20
154.472
 10
1034.015
 20
154.525
 10
1033.296
 20
156.287
 10
1031.359
 20
156.743
 10
1034.071
 20
153.628
 10
1027.908
 20
148.316
 10
1031.239
 20
142.684
 10
1027.756
 20
144.825
 10
1025.997
 20
148.775
 10
1025.994
 20
152.89
 10
1025.993
 20
154.203
 10
1027.404
 20
156.016
 10
1027.654
 20
157.836
 10
1027.888
 20
159.531
 10
1027.252
 20
161.38
 10
1027.505
 20
162.108
 10
1028.961
 20
166.284
 10
1024.866
 20
169.198
 10
1023.503
 20
171.746
 10
1022.013
 20
171.105
 10
1024.425
 20
169.431
 10
1023.652
 20
167.474
 10
1018.451
 20
166.307
 10
1016.693
 20
159.83
 10
1018.628
 20
153.854
 10
1014.688
 20
156.476
 10
1013.195
 20
160.828
 10
1013.931
 20
165.911
 10
1014.589
 20
170.465
 10
1020.432
 20
174.383
 10
1020.217
 20
178.354
 10
1024.724
 20
183.01
 10
1037.465
 20
185.487
 10
1040.987
 20
178.468
 10
1041.684
 20
179.196
 10
1043.12
 20
179.234
 10
1044.628
 20
179.206
 10
1052.017
 20
175.337
 10
1058.09
 20
167.303
 10
1070.579
 20
170.946
 10
1070.579
 20
170.946
 10
1073.257
 20
168.545
 10
1072.362
 20
172.861
 10
1074.203
 20
173.113
 10
1074.476
 20
174.826
 10
1077.201
 20
174.253
 10
1079.157
 20
176.365
 10
1080.448
 20
179.098
 10
1084.354
 20
179.391
 10
1090.691
 20
184.673
 10
1114.247
 20
226.116
 10
1122.125
 20
233.314
 10
1125.703
 20
236.583
 10
1130.788
 20
239.587
 10
1136.58
 20
239.318
 10
1132.478
 20
240.107
 10
1144.645
 20
232.209
 10
1139.78
 20
236.938
 10
1139.705
 20
250.114
 10
1126.286
 20
242.132
 10
1120.23
 20
236.865
 10
1112.796
 20
230.4
 10
1106.403
 20
218.989
 10
1103.363
 20
212.444
 10
1100.283
 20
224.941
 10
1105.62
 20
234.37
 10
1102.844
 20
244.814
 10
1102.134
 20
247.488
 10
1098.443
 20
251.881
 10
1095.769
 20
254.955
 10
1087.262
 20
264.741
 10
1077.892
 20
273.391
 10
1074.501
 20
286.601
 10
1072.5
 20
287.286
 10
1074.104
 20
284.61
 10
1072.102
 20
285.295
 10
1068.602
 20
294.881
 10
1054.146
 20
300.635
 10
1042.213
 20
301.362
 10
1032.686
 20
301.943
 10
1031.175
 20
297.938
 10
1024.686
 20
295.861
 10
1021.322
 20
294.784
 10
1017.406
 20
294.9
 10
1014.376
 20
293.668
 10
1010.473
 20
292.082
 10
1006.497
 20
287.686
 10
1001.056
 20
290.147
 10
1005.916
 20
292.503
 10
1010.276
 20
295.326
 10
1012.31
 20
300.318
 10
1001.036
 20
297.645
 10
992.318
 20
292.589
 10
990.37
 20
281.218
 10
988.822
 20
281.669
 10
988.365
 20
283.289
 10
987.212
 20
284.164
 10
987.126
 20
286.605
 10
987.0410000000001
 20
289.046
 10
986.956
 20
291.488
 10
989.285
 20
295.812
 10
989.441
 20
302.161
 10
994.463
 20
303.972
 10
992.7430000000001
 20
304.026
 10
991.826
 20
304.943
 10
991.9160000000001
 20
306.939
 10
994.6130000000001
 20
325.159
 10
1013.764
 20
333.13
 10
1020.519
 20
345.215
 10
1021.326
 20
344.446
 10
1019.159
 20
342.044
 10
1019.469
 20
340.289
 10
1024.099
 20
344.434
 10
1036.429
 20
358.043
 10
1039.01
 20
358.083
 10
1038.063
 20
353.057
 10
1032.959
 20
348.774
 10
1032.745
 20
345.031
 10
1035.07
 20
346.612
 10
1037.483
 20
348.748
 10
1039.877
 20
350.78
 10
1042.273
 20
352.814
 10
1052.049
 20
357.535
 10
1056.056
 20
359.9
 10
1053.436
 20
355.651
 10
1049.859
 20
352.295
 10
1046.675
 20
348.573
 10
1048.627
 20
347.624
 10
1049.089
 20
350.93
 10
1049.705
 20
349.29
 10
1046.974
 20
345.735
 10
1044.743
 20
344.313
 10
1048.002
 20
345.564
 10
1054.278
 20
347.972
 10
1061.185
 20
347.708
 10
1067.381
 20
350.518
 10
1070.312
 20
351.848
 10
1072.381
 20
353.703
 10
1074.555
 20
355.046
 10
1076.905
 20
356.498
 10
1079.57
 20
358.336
 10
1082.383
 20
358.375
 10
1081.807
 20
354.384
 10
1078.364
 20
353.068
 10
1076.556
 20
350.228
 10
1085.136
 20
354.309
 10
1090.135
 20
350.832
 10
1100.293
 20
352.89
 10
1100.47
 20
351.74
 10
1099.652
 20
351.519
 10
1099.768
 20
350.427
 10
1111.067
 20
350.805
 10
1120.194
 20
351.821
 10
1128.997
 20
353.281
 10
1126.543
 20
349.861
 10
1121.156
 20
349.178
 10
1118.246
 20
346.183
 10
1121.088
 20
345.451
 10
1124.345
 20
347.279
 10
1121.972
 20
344.48
 10
1128.796
 20
347.11
 10
1136.692
 20
349.924
 10
1141.77
 20
354.949
 10
1141.805
 20
354.986
 10
1142.353
 20
355.574
 10
1142.358
 20
355.581
 10
1149.59
 20
366.197
 10
1159.373
 20
373.812
 10
1168.926
 20
382.175
 10
1193.902
 20
404.043
 10
1209.058
 20
431.563
 10
1224.783
 20
462.347
 10
1225.299
 20
459.945
 10
1225.89
 20
457.625
 10
1228.026
 20
456.961
 10
1233.456
 20
469.958
 10
1242.722
 20
479.313
 10
1252.635
 20
487.153
 10
1256.496
 20
490.207
 10
1259.72
 20
491.616
 10
1264.626
 20
493.682
 10
1272.126
 20
496.842
 10
1279.816
 20
502.926
 10
1287.979
 20
507.332
 10
1302.963
 20
515.417
 10
1314.976
 20
521.4829999999999
 10
1319.932
 20
537.169
 10
1318.752
 20
515.645
 10
1300.194
 20
505.84
 10
1288.427
 20
494.514
 10
1284.699
 20
490.926
 10
1280.152
 20
486.836
 10
1279.11
 20
481.355
 10
1286.984
 20
481.06
 10
1292.455
 20
488.999
 10
1296.402
 20
493.57
 10
1311.064
 20
510.548
 10
1323.666
 20
527.832
 10
1347.479
 20
535.687
 10
1347.614
 20
531.821
 10
1334.634
 20
514.715
 10
1328.846
 20
509.37
 10
1323.239
 20
504.192
 10
1315.588
 20
489.451
 10
1315.513
 20
488.738
 10
1322.543
 20
486.444
 10
1326.624
 20
490.271
 10
1330.599
 20
494.154
 10
1337.027
 20
500.432
 10
1342.981
 20
509.333
 10
1349.467
 20
513.7569999999999
 10
1349.229
 20
511.007
 10
1348.65
 20
509.526
 10
1349.07
 20
507.632
 10
1350.746
 20
508.35
 10
1353.637
 20
507.911
 10
1354.562
 20
507.824
 10
1349.048
 20
496.931
 10
1347.161
 20
487.18
 10
1338.433
 20
479.761
 10
1326.812
 20
469.88
 10
1310.369
 20
466.156
 10
1295.113
 20
460.526
 10
1279.473
 20
454.755
 10
1220.951
 20
391.912
 10
1215.497
 20
378.302
 10
1227.183
 20
383.15
 10
1236.846
 20
389.883
 10
1247.897
 20
395.322
 10
1255.051
 20
398.993
 10
1269.181
 20
406.071
 10
1281.078
 20
407.481
 10
1292.976
 20
408.891
 10
1300.128
 20
408.549
 10
1307.341
 20
407.787
 10
1314.554
 20
407.025
 10
1342.156
 20
395.59
 10
1340.197
 20
394.268
 10
1331.655
 20
393.547
 10
1322.133
 20
391.302
 10
1316.397
 20
393.437
 10
1310.66
 20
395.572
 10
1333.148
 20
380.624
 10
1331.575
 20
378.689
 10
1323.788
 20
377.843
 10
1284.428
 20
386.132
 10
1281.845
 20
385.508
 10
1271.722
 20
384.862
 10
1272.666
 20
382.39
 10
1260.025
 20
380.469
 10
1247.385
 20
378.547
 10
1221.541
 20
375.027
 10
1216.79
 20
358.792
 10
1222.511
 20
356.617
 10
1228.184
 20
360.472
 10
1233.16
 20
362.419
 10
1248.712
 20
368.503
 10
1264.239
 20
379.804
 10
1282.626
 20
380.646
 10
1302.139
 20
381.54
 10
1333.2
 20
354.892
 10
1333.691
 20
353.097
 10
1312.856
 20
349.513
 10
1267.401
 20
359.282
 10
1255.918
 20
340.603
 10
1276.897
 20
348.368
 10
1324.824
 20
335.39
 10
1326.44
 20
333.288
 10
1325.199
 20
333.801
 10
1313.508
 20
332.648
 10
1310.573
 20
332.734
 10
1279.69
 20
333.649
 10
1250.168
 20
322.612
 10
1233.247
 20
307.423
 10
1225.619
 20
315.63
 10
1204.482
 20
314.155
 10
1192.21
 20
310.267
 10
1206.84
 20
310.889
 10
1219.269
 20
310.405
 10
1227.819
 20
305.4
 10
1230.312
 20
303.941
 10
1231.499
 20
300.841
 10
1234.702
 20
300.752
 10
1244.62
 20
306.736
 10
1256.701
 20
318.46
 10
1271.268
 20
320.973
 10
1291.131
 20
324.4
 10
1311.724
 20
313.105
 10
1324.922
 20
306.283
 10
1323.813
 20
306.622
 10
1315.253
 20
306.135
 10
1313.93
 20
306.574
 10
1312.637
 20
307.007
 10
1312.946
 20
306.556
 10
1309.616
 20
307.646
 10
1298.239
 20
311.838
 10
1276.136
 20
314.822
 10
1270.055
 20
303.209
 10
1283.859
 20
298.974
 10
1300.414
 20
299.812
 10
1310.738
 20
293.019
 10
1308.211
 20
290.103
 10
1313.867
 20
290.006
 10
1319.326
 20
283.287
 10
1319.431
 20
281.501
 10
1304.249
 20
286.542
 10
1303.999
 20
285.806
 10
1303.367
 20
283.954
 10
1314.182
 20
279.927
 10
1309.396
 20
278.917
 10
1294.025
 20
275.724
 10
1287.115
 20
285.957
 10
1273.093
 20
286.204
 10
1276.367
 20
280.4
 10
1286.801
 20
276.421
 10
1294.289
 20
274.111
 10
1297.857
 20
273.01
 10
1305.594
 20
272.727
 10
1305.991
 20
271.464
 10
1306.711
 20
269.85
 10
1305.187
 20
268.016
 10
1303.678
 20
267.717
 10
1301.965
 20
267.665
 10
1293.293
 20
267.954
 10
1289.031
 20
267.205
 10
1285.666
 20
264.753
 10
1281.513
 20
263.547
 10
1276.933
 20
263.727
 10
1270.986
 20
263.962
 10
1266.018
 20
268.364
 10
1262.705
 20
268.73
 10
1269.382
 20
263.393
 10
1270.709
 20
259.586
 10
1279.544
 20
258.93
 10
1288.617
 20
258.255
 10
1294.621
 20
261.712
 10
1302.585
 20
264.012
 10
1308.033
 20
265.586
 10
1322.005
 20
267.633
 10
1322.681
 20
265.936
 10
1322.494
 20
264.586
 10
1320.914
 20
264.041
 10
1320.914
 20
264.041
 10
1320.914
 20
264.041
 10
1287.9
 20
250.886
 10
1271.632
 20
258.042
 10
1270.142
 20
256.039
 10
1269.051
 20
254.816
 10
1266.878
 20
254.21
 10
1256.753
 20
251.385
 10
1250.329
 20
259.705
 10
1245.916
 20
259.589
 10
1249.082
 20
256.23
 10
1251.525
 20
252.096
 10
1251.309
 20
245.11
 10
1237.495
 20
241.76
 10
1224.266
 20
246.983
 10
1217.95
 20
255.557
 10
1219.01
 20
255.945
 10
1207.575
 20
255.194
 10
1207.575
 20
255.194
 10
1213.793
 20
253.677
 10
1216.487
 20
248.334
 10
1220.775
 20
244.655
 10
1231.469
 20
235.479
 10
1241.978
 20
228.137
 10
1255.759
 20
222.655
 10
1249.391
 20
218.696
 10
1241.152
 20
221.569
 10
1234.379
 20
222.52
 10
1238.95
 20
214.484
 10
1264.171
 20
200.843
 10
1280.419
 20
200.665
 10
1296.736
 20
200.485
 10
1316.081
 20
207.672
 10
1331.617
 20
204.286
 10
1317.517
 20
204.184
 10
1305.776
 20
195.076
 10
1291.028
 20
194.312
 10
1270.78
 20
193.265
 10
1261.695
 20
193.312
 10
1266.639
 20
192.85
 10
1296.785
 20
190.038
 10
1335.707
 20
196.483
 10
1364.303
 20
195.65
 10
1384.922
 20
194.616
 10
1405.946
 20
189.405
 10
1406.142
 20
187.334
 10
1381.228
 20
192.475
 10
1341.736
 20
189.911
 10
1322.492
 20
185.634
 10
1338.055
 20
186.285
 10
1351.308
 20
184.456
 10
1364.161
 20
182.2
 10
1355.823
 20
180.133
 10
1328.574
 20
181.262
 10
1322.663
 20
180.751
 10
1316.247
 20
180.197
 10
1313.069
 20
179.958
 10
1306.704
 20
180.069
 10
1291.178
 20
180.34
 10
1364.312
 20
167.661
 10
1389.633
 20
169.626
 10
1388.261
 20
167.467
 10
1384.845
 20
166.812
 10
1382.417
 20
166.318
 10
1374.464
 20
164.701
 10
1364.101
 20
164.525
 10
1351.946
 20
164.032
 10
1362.344
 20
159.539
 10
1375.292
 20
156.175
 10
1385.937
 20
152.998
 10
1386.342
 20
152.877
 10
1402.568
 20
146.567
 10
1404.544
 20
145.092
 10
1402.597
 20
143.406
 10
1313.619
 20
163.553
 10
1312.836
 20
161.95
 10
1317.12
 20
161.269
 10
1405.528
 20
129.386
 10
1405.221
 20
126.191
 10
1402.514
 20
127.298
 10
1321.196
 20
139.978
 10
1323.459
 20
140.447
 10
1332.405
 20
132.732
 10
1347.693
 20
131.823
 10
1360.544
 20
128.298
 10
1343.918
 20
123.57
 10
1302.08
 20
129.337
 10
1291.768
 20
138.117
 10
1293.029
 20
137.457
 10
1296.287
 20
122.179
 10
1305.855
 20
119.665
 10
1291.637
 20
120.442
 10
1279.921
 20
122.162
 10
1268.783
 20
132.589
 10
1271.007
 20
131.572
 10
1276.353
 20
121.491
 10
1295.656
 20
117.359
 10
1316.135
 20
112.975
 10
1339.355
 20
112.794
 10
1356.518
 20
103.082
 10
1337.74
 20
103.101
 10
1316.724
 20
106.603
 10
1295.13
 20
111.327
 10
1281.915
 20
114.217
 10
1271.074
 20
120.952
 10
1259.396
 20
128.269
 97
    0
 92
    0
 93
    1
 72
    4
 94
    3
 73
    0
 74
    1
 95
   17
 96
   13
 40
0
 40
0
 40
0
 40
0
 40
1
 40
1
 40
1
 40
2
 40
2
 40
2
 40
3
 40
3
 40
3
 40
4
 40
4
 40
4
 40
4
 10
1232.203
 20
337.33
 10
1226.105
 20
332.641
 10
1217.291
 20
325.559
 10
1208.048
 20
329.154
 10
1209.11
 20
326.786
 10
1205.42
 20
328.849
 10
1205.671
 20
327.237
 10
1218.783
 20
321.669
 10
1230.031
 20
331.67
 10
1235.822
 20
338.679
 10
1235.069
 20
340.134
 10
1232.852
 20
337.83
 10
1232.203
 20
337.33
 97
    0
 92
    0
 93
    1
 72
    4
 94
    3
 73
    0
 74
    1
 95
   11
 96
    7
 40
0
 40
0
 40
0
 40
0
 40
1
 40
1
 40
1
 40
2
 40
2
 40
2
 40
2
 10
1007.458
 20
307.842
 10
1010.814
 20
308.058
 10
1013.201
 20
309.746
 10
1013.672
 20
313.81
 10
1009.422
 20
315.1
 10
1006.43
 20
311.163
 10
1007.458
 20
307.842
 97
    0
 75
    0
 76
    1
 98
    1
 10
0
 20
0
  0
HATCH
  5
38
100
AcDbEntity
  8
0
  6
BYLAYER
 62
   19
370
   -1
100
AcDbHatch
 10
0
 20
0
 30
0
210
0
220
0
230
1
  2
SOLID
 70
    1
 71
    0
 91
    1
 92
    0
 93
    1
 72
    4
 94
    3
 73
    0
 74
    1
 95
   38
 96
   34
 40
0
 40
0
 40
0
 40
0
 40
1
 40
1
 40
1
 40
2
 40
2
 40
2
 40
3
 40
3
 40
3
 40
4
 40
4
 40
4
 40
5
 40
5
 40
5
 40
6
 40
6
 40
6
 40
7
 40
7
 40
7
 40
8
 40
8
 40
8
 40
9
 40
9
 40
9
 40
10
 40
10
 40
10
 40
11
 40
11
 40
11
 40
11
 10
1351.109
 20
456.419
 10
1348.724
 20
455.754
 10
1347.75
 20
454.131
 10
1346.452
 20
450.724
 10
1347.19
 20
449.193
 10
1351.182
 20
449.955
 10
1351.407
 20
447.874
 10
1347.417
 20
447.461
 10
1345.788
 20
444.847
 10
1341.118
 20
445.07
 10
1344.513
 20
442.398
 10
1350.018
 20
445.576
 10
1352.144
 20
444.233
 10
1352.825
 20
442.419
 10
1348.154
 20
436.971
 10
1351.18
 20
436.867
 10
1346.363
 20
435.37
 10
1340.161
 20
434.871
 10
1335.377
 20
434.481
 10
1296.329
 20
431.295
 10
1241.967
 20
401.205
 10
1241.22
 20
401.248
 10
1241.194
 20
406.122
 10
1245.783
 20
409.243
 10
1248.77
 20
412.512
 10
1263.954
 20
429.128
 10
1286.501
 20
441.121
 10
1313.527
 20
447.773
 10
1318.969
 20
449.113
 10
1324.638
 20
450.074
 10
1329.898
 20
451.401
 10
1335.084
 20
452.708
 10
1349.834
 20
458.914
 10
1351.109
 20
456.419
 97
    0
 75
    0
 76
    1
 98
    1
 10
0
 20
0
  0
HATCH
  5
39
100
AcDbEntity
  8
0
  6
BYLAYER
 62
   19
370
   -1
100
AcDbHatch
 10
0
 20
0
 30
0
210
0
220
0
230
1
  2
SOLID
 70
    1
 71
    0
 91
    1
 92
    0
 93
    1
 72
    4
 94
    3
 73
    0
 74
    1
 95
   20
 96
   16
 40
0
 40
0
 40
0
 40
0
 40
1
 40
1
 40
1
 40
2
 40
2
 40
2
 40
3
 40
3
 40
3
 40
4
 40
4
 40
4
 40
5
 40
5
 40
5
 40
5
 10
1364.36
 20
423.434
 10
1364.528
 20
420.209
 10
1355.939
 20
422.274
 10
1350.956
 20
422.355
 10
1345.791
 20
422.44
 10
1340.225
 20
422.35
 10
1335.089
 20
421.801
 10
1320.91
 20
420.286
 10
1307.175
 20
412.165
 10
1295.571
 20
416.144
 10
1313.316
 20
424.064
 10
1342.34
 20
428.281
 10
1363.161
 20
422.781
 10
1363.846
 20
422.601
 10
1364.264
 20
423.039
 10
1364.36
 20
423.434
 97
    0
 75
    0
 76
    1
 98
    1
 10
0
 20
0
  0
HATCH
  5
3A
100
AcDbEntity
  8
0
  6
BYLAYER
 62
   19
370
   -1
100
AcDbHatch
 10
0
 20
0
 30
0
210
0
220
0
230
1
  2
SOLID
 70
    1
 71
    0
 91
    1
 92
    0
 93
    1
 72
    4
 94
    3
 73
    0
 74
    1
 95
   20
 96
   16
 40
0
 40
0
 40
0
 40
0
 40
1
 40
1
 40
1
 40
2
 40
2
 40
2
 40
3
 40
3
 40
3
 40
4
 40
4
 40
4
 40
5
 40
5
 40
5
 40
5
 10
1261.055
 20
214.923
 10
1266.053
 20
207.508
 10
1321.803
 20
217.287
 10
1323.138
 20
218.556
 10
1320.096
 20
211.832
 10
1293.864
 20
204.816
 10
1298.531
 20
206.656
 10
1290.689
 20
204.75
 10
1286.4
 20
205.325
 10
1283.408
 20
204.705
 10
1280.936
 20
204.375
 10
1254.812
 20
210.972
 10
1245.734
 20
216.222
 10
1254.238
 20
218.216
 10
1262.3
 20
218.092
 10
1261.055
 20
214.923
 97
    0
 75
    0
 76
    1
 98
    1
 10
0
 20
0
  0
ENDSEC
  0
SECTION
  2
OBJECTS
  0
DICTIONARY
  5
C
330
0
100
AcDbDictionary
281
    1
  3
ACAD_GROUP
350
D
  0
DICTIONARY
  5
D
330
C
100
AcDbDictionary
281
    1
  0
ENDSEC
  0
EOF
