  0
SECTION
  2
HEADER
  9
$ACADVER
  1
AC1006
  9
$EXTMIN
 10
0.000000
 20
0.000000
 30
0.000000
  9
$EXTMAX
 10
228.000000
 20
221.000000
 30
0.000000
  0
ENDSEC
  0
SECTION
  2
ENTITIES
  0
POLYLINE
  8
0
 66
1
 70
1
  0
VERTEX
  8
0
 10
212.000000
 20
219.623976
 42
0.060715
  0
VERTEX
  8
0
 10
207.710769
 20
218.118505
 42
0.008185
  0
VERTEX
  8
0
 10
199.204810
 20
213.741908
 42
0.006682
  0
VERTEX
  8
0
 10
186.890608
 20
206.935426
 42
0.001916
  0
VERTEX
  8
0
 10
168.000000
 20
196.065728
 42
0.001359
  0
VERTEX
  8
0
 10
152.981312
 20
187.292490
 42
0.001950
  0
VERTEX
  8
0
 10
139.725343
 20
179.430834
 42
0.001038
  0
VERTEX
  8
0
 10
128.543444
 20
172.708590
 42
0.030460
  0
VERTEX
  8
0
 10
125.809679
 20
170.821182
 42
0.086033
  0
VERTEX
  8
0
 10
121.217698
 20
165.731063
 42
0.049544
  0
VERTEX
  8
0
 10
117.517273
 20
158.324608
 42
0.049619
  0
VERTEX
  8
0
 10
115.353774
 20
150.358183
 42
0.088094
  0
VERTEX
  8
0
 10
115.419628
 20
143.576726
 42
0.000000
  0
VERTEX
  8
0
 10
116.064342
 20
140.140104
 42
0.000000
  0
VERTEX
  8
0
 10
121.282171
 20
142.502911
 42
-0.051468
  0
VERTEX
  8
0
 10
129.857276
 20
145.367118
 42
-0.051371
  0
VERTEX
  8
0
 10
138.842100
 20
146.421959
 42
-0.053543
  0
VERTEX
  8
0
 10
147.481530
 20
145.618195
 42
-0.068103
  0
VERTEX
  8
0
 10
155.033783
 20
142.982765
 42
0.000000
  0
VERTEX
  8
0
 10
158.676311
 20
141.124486
 42
0.000000
  0
VERTEX
  8
0
 10
169.190724
 20
152.812243
 42
0.003061
  0
VERTEX
  8
0
 10
179.325572
 20
164.217761
 42
0.001583
  0
VERTEX
  8
0
 10
191.862007
 20
178.592713
 42
0.001557
  0
VERTEX
  8
0
 10
204.902645
 20
193.736759
 42
0.002049
  0
VERTEX
  8
0
 10
216.698617
 20
207.636859
 42
0.000000
  0
VERTEX
  8
0
 10
226.897234
 20
219.754992
 42
0.000000
  0
VERTEX
  8
0
 10
223.198617
 20
220.366490
 42
0.011079
  0
VERTEX
  8
0
 10
220.249141
 20
220.787226
 42
0.046469
  0
VERTEX
  8
0
 10
218.460731
 20
220.834923
 42
0.033616
  0
VERTEX
  8
0
 10
216.447676
 20
220.564748
 42
0.003913
  0
SEQEND
  0
POLYLINE
  8
0
 66
1
 70
1
  0
VERTEX
  8
0
 10
3.273257
 20
164.750000
 42
0.080950
  0
VERTEX
  8
0
 10
7.527099
 20
157.846876
 42
0.054774
  0
VERTEX
  8
0
 10
14.318892
 20
151.550674
 42
0.025229
  0
VERTEX
  8
0
 10
26.495598
 20
143.438840
 42
0.003458
  0
VERTEX
  8
0
 10
52.827457
 20
128.000000
 42
0.001885
  0
VERTEX
  8
0
 10
67.443459
 20
119.638969
 42
0.002667
  0
VERTEX
  8
0
 10
80.523551
 20
112.313779
 42
0.001526
  0
VERTEX
  8
0
 10
91.609977
 20
106.226650
 42
0.037751
  0
VERTEX
  8
0
 10
94.792613
 20
104.791589
 42
0.065315
  0
VERTEX
  8
0
 10
102.051681
 20
103.185879
 42
0.057416
  0
VERTEX
  8
0
 10
109.814093
 20
103.399056
 42
0.059027
  0
VERTEX
  8
0
 10
117.101625
 20
105.338319
 42
0.079574
  0
VERTEX
  8
0
 10
122.956627
 20
108.822649
 42
0.000000
  0
VERTEX
  8
0
 10
126.249912
 20
111.572005
 42
0.000000
  0
VERTEX
  8
0
 10
122.374956
 20
114.421763
 42
-0.058876
  0
VERTEX
  8
0
 10
115.661819
 20
120.697382
 42
-0.055601
  0
VERTEX
  8
0
 10
110.446623
 20
128.480243
 42
-0.056288
  0
VERTEX
  8
0
 10
107.126355
 20
137.122029
 42
-0.063677
  0
VERTEX
  8
0
 10
106.000000
 20
145.930506
 42
0.054204
  0
VERTEX
  8
0
 10
105.827881
 20
147.513534
 42
0.154148
  0
VERTEX
  8
0
 10
105.280604
 20
148.463873
 42
0.105801
  0
VERTEX
  8
0
 10
104.142509
 20
149.133149
 42
0.018679
  0
VERTEX
  8
0
 10
101.750000
 20
149.830012
 42
0.010675
  0
VERTEX
  8
0
 10
87.426685
 20
153.104099
 42
0.000815
  0
VERTEX
  8
0
 10
48.602649
 20
161.044673
 42
0.000223
  0
VERTEX
  8
0
 10
6.342705
 20
169.596683
 42
0.049848
  0
VERTEX
  8
0
 10
2.307250
 20
170.000000
 42
0.374131
  0
VERTEX
  8
0
 10
1.921032
 20
169.663973
 42
0.080354
  0
VERTEX
  8
0
 10
1.941835
 20
168.701115
 42
0.040077
  0
VERTEX
  8
0
 10
2.371264
 20
167.100248
 42
0.012132
  0
SEQEND
  0
POLYLINE
  8
0
 66
1
 70
1
  0
VERTEX
  8
0
 10
128.500000
 20
135.778468
 42
0.022163
  0
VERTEX
  8
0
 10
127.151492
 20
135.231964
 42
0.012598
  0
VERTEX
  8
0
 10
125.569616
 20
134.458934
 42
0.012562
  0
VERTEX
  8
0
 10
124.012582
 20
133.598459
 42
0.020228
  0
VERTEX
  8
0
 10
122.736990
 20
132.780057
 42
0.000000
  0
VERTEX
  8
0
 10
119.973980
 20
130.845283
 42
0.000000
  0
VERTEX
  8
0
 10
122.096660
 20
127.864254
 42
0.055384
  0
VERTEX
  8
0
 10
124.470480
 20
125.208653
 42
0.030474
  0
VERTEX
  8
0
 10
127.890923
 20
122.500005
 42
0.023817
  0
VERTEX
  8
0
 10
131.298314
 20
120.357911
 42
0.273310
  0
VERTEX
  8
0
 10
132.819286
 20
120.388312
 42
0.180387
  0
VERTEX
  8
0
 10
133.793857
 20
121.643290
 42
0.016091
  0
VERTEX
  8
0
 10
134.882552
 20
125.559169
 42
0.021961
  0
VERTEX
  8
0
 10
135.726407
 20
129.829891
 42
0.037809
  0
VERTEX
  8
0
 10
136.000000
 20
133.442820
 42
0.020307
  0
VERTEX
  8
0
 10
135.920522
 20
135.398967
 42
0.123869
  0
VERTEX
  8
0
 10
135.597418
 20
136.349404
 42
0.195588
  0
VERTEX
  8
0
 10
134.941494
 20
136.808152
 42
0.064864
  0
VERTEX
  8
0
 10
133.750000
 20
136.921053
 42
0.030984
  0
VERTEX
  8
0
 10
132.676084
 20
136.816532
 42
0.013832
  0
VERTEX
  8
0
 10
131.279687
 20
136.552853
 42
0.013631
  0
VERTEX
  8
0
 10
129.813264
 20
136.191577
 42
0.017978
  0
SEQEND
  0
POLYLINE
  8
0
 66
1
 70
1
  0
VERTEX
  8
0
 10
144.738553
 20
130.250000
 42
-0.038252
  0
VERTEX
  8
0
 10
143.644988
 20
123.878284
 42
-0.041417
  0
VERTEX
  8
0
 10
141.609771
 20
117.921436
 42
-0.041791
  0
VERTEX
  8
0
 10
138.640746
 20
112.428666
 42
-0.040368
  0
VERTEX
  8
0
 10
134.768947
 20
107.437569
 42
0.000000
  0
VERTEX
  8
0
 10
129.679092
 20
101.868457
 42
0.000000
  0
VERTEX
  8
0
 10
138.500489
 20
73.684228
 42
0.000553
  0
VERTEX
  8
0
 10
142.403590
 20
61.262132
 42
0.000382
  0
VERTEX
  8
0
 10
146.847312
 20
47.211468
 42
0.000386
  0
VERTEX
  8
0
 10
151.139551
 20
33.711945
 42
0.000791
  0
VERTEX
  8
0
 10
154.527711
 20
23.142045
 42
0.000000
  0
VERTEX
  8
0
 10
161.733535
 20
0.784091
 42
0.000000
  0
VERTEX
  8
0
 10
164.277072
 20
4.142045
 42
0.077800
  0
VERTEX
  8
0
 10
167.657387
 20
10.434343
 42
0.061904
  0
VERTEX
  8
0
 10
169.296940
 20
17.977209
 42
0.022370
  0
VERTEX
  8
0
 10
169.887154
 20
30.896582
 42
0.001791
  0
VERTEX
  8
0
 10
169.796298
 20
65.039637
 42
0.000000
  0
VERTEX
  8
0
 10
169.500000
 20
112.500000
 42
0.000000
  0
VERTEX
  8
0
 10
166.852038
 20
118.147962
 42
0.026033
  0
VERTEX
  8
0
 10
165.534429
 20
120.615489
 42
0.016226
  0
VERTEX
  8
0
 10
163.750937
 20
123.367813
 42
0.016273
  0
VERTEX
  8
0
 10
161.810567
 20
125.974167
 42
0.028232
  0
VERTEX
  8
0
 10
160.013512
 20
127.986488
 42
0.037084
  0
VERTEX
  8
0
 10
156.785682
 20
130.768003
 42
0.026671
  0
VERTEX
  8
0
 10
152.814364
 20
133.391516
 42
0.025630
  0
VERTEX
  8
0
 10
148.965839
 20
135.391304
 42
0.102409
  0
VERTEX
  8
0
 10
146.388889
 20
135.978038
 42
0.306159
  0
VERTEX
  8
0
 10
145.917259
 20
135.672780
 42
0.030422
  0
VERTEX
  8
0
 10
145.442587
 20
134.336609
 42
0.029486
  0
VERTEX
  8
0
 10
145.027464
 20
132.493763
 42
0.017278
  0
SEQEND
  0
ENDSEC
  0
EOF
